SplineFontDB: 3.0
FontName: Coda-ExtraBold
FullName: Coda ExtraBold
FamilyName: Coda
Weight: ExtraBold
Copyright: Copyright (c) 2009, 2010 vernon adams
Version: 1.001
ItalicAngle: 0
UnderlinePosition: -103
UnderlineWidth: 102
Ascent: 1638
Descent: 410
sfntRevision: 0x00010000
LayerCount: 2
Layer: 0 1 "Back"  1
Layer: 1 1 "Fore"  0
XUID: [1021 332 469972825 5920942]
FSType: 0
OS2Version: 3
OS2_WeightWidthSlopeOnly: 0
OS2_UseTypoMetrics: 1
CreationTime: 1292626275
ModificationTime: 1292627693
PfmFamily: 17
TTFWeight: 900
TTFWidth: 0
LineGap: 61
VLineGap: 0
Panose: 2 0 5 5 2 0 0 2 0 4
OS2TypoAscent: 72
OS2TypoAOffset: 1
OS2TypoDescent: 2
OS2TypoDOffset: 1
OS2TypoLinegap: 123
OS2WinAscent: -654
OS2WinAOffset: 1
OS2WinDescent: 1
OS2WinDOffset: 1
HheadAscent: -654
HheadAOffset: 1
HheadDescent: -1
HheadDOffset: 1
OS2SubXSize: 1434
OS2SubYSize: 1331
OS2SubXOff: 0
OS2SubYOff: 287
OS2SupXSize: 1434
OS2SupYSize: 1331
OS2SupXOff: 0
OS2SupYOff: 977
OS2StrikeYSize: 102
OS2StrikeYPos: 512
OS2Vendor: '    '
OS2CodePages: 00000013.00000000
OS2UnicodeRanges: a00000af.4000004b.00000000.00000000
Lookup: 258 0 0 "'kern' Horizontal Kerning in Latin lookup 0"  {"'kern' Horizontal Kerning in Latin lookup 0 per glyph data 0"  "'kern' Horizontal Kerning in Latin lookup 0 kerning class 1"  } ['kern' ('latn' <'dflt' > ) ]
MarkAttachClasses: 1
DEI: 91125
KernClass2: 68+ 54 "'kern' Horizontal Kerning in Latin lookup 0 kerning class 1" 
 6 period
 20 quotedbl quotesingle
 9 parenleft
 8 asterisk
 5 comma
 30 hyphen endash emdash afii00208
 5 slash
 22 quoteleft quotedblleft
 24 quoteright quotedblright
 9 trademark
 29 guilsinglright guillemotright
 12 questiondown
 11 bracketleft
 9 backslash
 9 braceleft
 27 quotedblbase quotesinglbase
 27 D Eth Dcaron Dcroat uni1E0A
 47 C Ccedilla Cacute Ccaron Cdotaccent Ccircumflex
 9 P uni1E56
 59 G Gcircumflex uni01F4 Gcaron Gbreve Gdotaccent Gcommaaccent
 21 L Lacute Lcommaaccent

StartChar: D
Encoding: 68 68 4
Width: 1661
Flags: W
HStem: 0 233<773 904> 1364 231<773 904>
VStem: 97 676<233 1364> 904 676<233.762 1362.88>
LayerCount: 2
Fore
SplineSet
773 233 m 1,0,-1
 904 233 l 1,1,-1
 904 1364 l 1,2,-1
 773 1364 l 1,3,-1
 773 233 l 1,0,-1
1580 393 m 2,4,5
 1580 353 1580 353 1577 308.5 c 128,-1,6
 1574 264 1574 264 1555.5 220 c 128,-1,7
 1537 176 1537 176 1496.5 136.5 c 128,-1,8
 1456 97 1456 97 1381.5 66.5 c 128,-1,9
 1307 36 1307 36 1192.5 18 c 128,-1,10
 1078 0 1078 0 911 0 c 2,11,-1
 97 0 l 1,12,-1
 97 1595 l 1,13,-1
 911 1595 l 2,14,15
 1078 1595 1078 1595 1192.5 1577 c 128,-1,16
 1307 1559 1307 1559 1381.5 1529 c 128,-1,17
 1456 1499 1456 1499 1496.5 1459.5 c 128,-1,18
 1537 1420 1537 1420 1555.5 1376.5 c 128,-1,19
 1574 1333 1574 1333 1577 1288.5 c 128,-1,20
 1580 1244 1580 1244 1580 1204 c 2,21,-1
 1580 393 l 2,4,5
EndSplineSet
EndChar

StartChar: H
Encoding: 72 72 5
Width: 1677
Flags: W
HStem: 0 21G<97 773 904 1580> 688 250<773 904> 1575 20G<97 773 904 1580>
VStem: 97 676<0 688 938 1595> 904 676<0 688 938 1595>
LayerCount: 2
Fore
SplineSet
1580 1595 m 1,0,-1
 1580 0 l 1,1,-1
 904 0 l 1,2,-1
 904 688 l 1,3,-1
 773 688 l 1,4,-1
 773 0 l 1,5,-1
 97 0 l 1,6,-1
 97 1595 l 1,7,-1
 773 1595 l 1,8,-1
 773 938 l 1,9,-1
 904 938 l 1,10,-1
 904 1595 l 1,11,-1
 1580 1595 l 1,0,-1
EndSplineSet
EndChar

StartChar: C
Encoding: 67 67 6
Width: 1629
Flags: W
HStem: -39 272<757.26 880.694> 1364 268<754.646 882.949>
VStem: 77 676<233.408 1363.53> 884 676<233.408 686 909 1363.53>
LayerCount: 2
Fore
SplineSet
884 1364 m 1,0,-1
 753 1364 l 1,1,-1
 753 233 l 1,2,-1
 884 233 l 1,3,-1
 884 686 l 1,4,-1
 1560 686 l 1,5,-1
 1560 371 l 2,6,7
 1560 331 1560 331 1554.5 285 c 128,-1,8
 1549 239 1549 239 1526 193.5 c 128,-1,9
 1503 148 1503 148 1457 106 c 128,-1,10
 1411 64 1411 64 1329.5 32 c 128,-1,11
 1248 0 1248 0 1125.5 -19.5 c 128,-1,12
 1003 -39 1003 -39 827 -39 c 0,13,14
 650 -39 650 -39 525.5 -19.5 c 128,-1,15
 401 0 401 0 318 32 c 128,-1,16
 235 64 235 64 186.5 106 c 128,-1,17
 138 148 138 148 114 193.5 c 128,-1,18
 90 239 90 239 83.5 285 c 128,-1,19
 77 331 77 331 77 371 c 2,20,-1
 77 1227 l 2,21,22
 77 1267 77 1267 83.5 1312.5 c 128,-1,23
 90 1358 90 1358 114 1403 c 128,-1,24
 138 1448 138 1448 186 1489.5 c 128,-1,25
 234 1531 234 1531 317 1562.5 c 128,-1,26
 400 1594 400 1594 524 1613 c 128,-1,27
 648 1632 648 1632 824 1632 c 256,28,29
 1000 1632 1000 1632 1123.5 1613 c 128,-1,30
 1247 1594 1247 1594 1328.5 1562.5 c 128,-1,31
 1410 1531 1410 1531 1456.5 1489.5 c 128,-1,32
 1503 1448 1503 1448 1526 1403 c 128,-1,33
 1549 1358 1549 1358 1554.5 1312.5 c 128,-1,34
 1560 1267 1560 1267 1560 1227 c 2,35,-1
 1560 909 l 1,36,-1
 884 909 l 1,37,-1
 884 1364 l 1,0,-1
EndSplineSet
EndChar

StartChar: P
Encoding: 80 80 7
Width: 1626
Flags: W
HStem: 0 21G<97 773> 432 232<773 904> 1364 231<773 904>
VStem: 97 676<0 432 664 1364> 904 676<664.474 1362.88>
LayerCount: 2
Fore
SplineSet
97 1595 m 1,0,-1
 911 1595 l 2,1,2
 1078 1595 1078 1595 1192.5 1577 c 128,-1,3
 1307 1559 1307 1559 1381.5 1529 c 128,-1,4
 1456 1499 1456 1499 1496.5 1459.5 c 128,-1,5
 1537 1420 1537 1420 1555.5 1376.5 c 128,-1,6
 1574 1333 1574 1333 1577 1288.5 c 128,-1,7
 1580 1244 1580 1244 1580 1204 c 2,8,-1
 1580 823 l 2,9,10
 1580 783 1580 783 1577 738.5 c 128,-1,11
 1574 694 1574 694 1555.5 651 c 128,-1,12
 1537 608 1537 608 1496.5 568 c 128,-1,13
 1456 528 1456 528 1381.5 498 c 128,-1,14
 1307 468 1307 468 1192.5 450 c 128,-1,15
 1078 432 1078 432 911 432 c 2,16,-1
 773 432 l 1,17,-1
 773 0 l 1,18,-1
 97 0 l 1,19,-1
 97 1595 l 1,0,-1
773 664 m 1,20,-1
 904 664 l 1,21,-1
 904 1364 l 1,22,-1
 773 1364 l 1,23,-1
 773 664 l 1,20,-1
EndSplineSet
EndChar

StartChar: G
Encoding: 71 71 8
Width: 1644
Flags: W
HStem: -39 272<754 875.392> 0 21G<1028.04 1561> 1364 268<755.052 880.332>
VStem: 78 676<233.172 1363.5> 885 676<233 594 909 1363.53>
LayerCount: 2
Fore
SplineSet
1561 825 m 1,0,-1
 1561 0 l 1,1,-1
 1039 0 l 1,2,-1
 982 104 l 1,3,4
 959 64 959 64 918 32 c 0,5,6
 883 5 883 5 823.5 -17 c 128,-1,7
 764 -39 764 -39 674 -39 c 0,8,9
 558 -39 558 -39 468.5 -20.5 c 128,-1,10
 379 -2 379 -2 313 28.5 c 128,-1,11
 247 59 247 59 202 99.5 c 128,-1,12
 157 140 157 140 129.5 184.5 c 128,-1,13
 102 229 102 229 90 273.5 c 128,-1,14
 78 318 78 318 78 358 c 2,15,-1
 78 1227 l 2,16,17
 78 1270 78 1270 84.5 1317 c 128,-1,18
 91 1364 91 1364 116 1409 c 128,-1,19
 141 1454 141 1454 189 1494.5 c 128,-1,20
 237 1535 237 1535 320 1565.5 c 128,-1,21
 403 1596 403 1596 526 1614 c 128,-1,22
 649 1632 649 1632 824 1632 c 0,23,24
 992 1632 992 1632 1112 1613 c 128,-1,25
 1232 1594 1232 1594 1314 1562.5 c 128,-1,26
 1396 1531 1396 1531 1444.5 1489.5 c 128,-1,27
 1493 1448 1493 1448 1519 1403 c 128,-1,28
 1545 1358 1545 1358 1553 1312.5 c 128,-1,29
 1561 1267 1561 1267 1561 1227 c 2,30,-1
 1561 909 l 1,31,-1
 885 909 l 1,32,-1
 885 1364 l 1,33,-1
 754 1364 l 1,34,-1
 754 233 l 1,35,-1
 885 233 l 1,36,-1
 885 594 l 1,37,-1
 823 594 l 1,38,-1
 823 825 l 1,39,-1
 1561 825 l 1,0,-1
EndSplineSet
EndChar

StartChar: L
Encoding: 76 76 9
Width: 1161
Flags: W
HStem: 0 244<773 1136> 1575 20G<97 773>
VStem: 97 676<244 1595>
LayerCount: 2
Fore
SplineSet
97 0 m 1,0,-1
 97 1595 l 1,1,-1
 773 1595 l 1,2,-1
 773 244 l 1,3,-1
 1136 244 l 1,4,-1
 1136 0 l 1,5,-1
 97 0 l 1,0,-1
EndSplineSet
EndChar

StartChar: E
Encoding: 69 69 10
Width: 1199
Flags: W
HStem: 0 244<773 1136> 711 250<773 1111> 1354 241<773 1136>
VStem: 97 676<244 711 961 1354>
LayerCount: 2
Fore
SplineSet
1136 1595 m 1,0,-1
 1136 1354 l 1,1,-1
 773 1354 l 1,2,-1
 773 961 l 1,3,-1
 1111 961 l 1,4,-1
 1111 711 l 1,5,-1
 773 711 l 1,6,-1
 773 244 l 1,7,-1
 1136 244 l 1,8,-1
 1136 0 l 1,9,-1
 97 0 l 1,10,-1
 97 1595 l 1,11,-1
 1136 1595 l 1,0,-1
EndSplineSet
EndChar

StartChar: T
Encoding: 84 84 11
Width: 1447
Flags: W
HStem: 0 21G<384 1060> 1304 291<25 384 1060 1422>
VStem: 384 676<0 1304>
LayerCount: 2
Fore
SplineSet
1422 1595 m 1,0,-1
 1422 1304 l 1,1,-1
 1060 1304 l 1,2,-1
 1060 0 l 1,3,-1
 384 0 l 1,4,-1
 384 1304 l 1,5,-1
 25 1304 l 1,6,-1
 25 1595 l 1,7,-1
 1422 1595 l 1,0,-1
EndSplineSet
EndChar

StartChar: U
Encoding: 85 85 12
Width: 1671
Flags: W
HStem: -39 272<771.488 899.814> 1575 20G<94 770 901 1577>
VStem: 94 676<233.408 1595> 901 676<233.408 1595>
LayerCount: 2
Fore
SplineSet
770 233 m 1,0,-1
 901 233 l 1,1,-1
 901 1595 l 1,2,-1
 1577 1595 l 1,3,-1
 1577 371 l 2,4,5
 1577 331 1577 331 1571 285 c 128,-1,6
 1565 239 1565 239 1541 193.5 c 128,-1,7
 1517 148 1517 148 1469.5 106 c 128,-1,8
 1422 64 1422 64 1340 32 c 128,-1,9
 1258 0 1258 0 1134.5 -19.5 c 128,-1,10
 1011 -39 1011 -39 836 -39 c 0,11,12
 659 -39 659 -39 535 -19.5 c 128,-1,13
 411 0 411 0 328.5 32 c 128,-1,14
 246 64 246 64 199 106 c 128,-1,15
 152 148 152 148 128.5 193.5 c 128,-1,16
 105 239 105 239 99.5 285 c 128,-1,17
 94 331 94 331 94 371 c 2,18,-1
 94 1595 l 1,19,-1
 770 1595 l 1,20,-1
 770 233 l 1,0,-1
EndSplineSet
EndChar

StartChar: Q
Encoding: 81 81 13
Width: 1642
Flags: W
HStem: -455 370<1113.9 1385.89> -59 20G<1401.3 1450.54> 1364 268<755.506 884.154>
VStem: 79 676<233.408 1363.53> 886 676<234.049 1363.53>
LayerCount: 2
Fore
SplineSet
206 -45 m 1,0,1
 217 -34 217 -34 232 -22 c 0,2,3
 245 -11 245 -11 264.5 3 c 128,-1,4
 284 17 284 17 311 32 c 1,5,6
 229 64 229 64 182.5 106 c 128,-1,7
 136 148 136 148 113 193.5 c 128,-1,8
 90 239 90 239 84.5 285 c 128,-1,9
 79 331 79 331 79 371 c 2,10,-1
 79 1227 l 2,11,12
 79 1267 79 1267 84.5 1312.5 c 128,-1,13
 90 1358 90 1358 113.5 1403 c 128,-1,14
 137 1448 137 1448 184 1489.5 c 128,-1,15
 231 1531 231 1531 313.5 1562.5 c 128,-1,16
 396 1594 396 1594 519.5 1613 c 128,-1,17
 643 1632 643 1632 820 1632 c 0,18,19
 996 1632 996 1632 1119.5 1613 c 128,-1,20
 1243 1594 1243 1594 1325.5 1562.5 c 128,-1,21
 1408 1531 1408 1531 1455.5 1489.5 c 128,-1,22
 1503 1448 1503 1448 1526.5 1403 c 128,-1,23
 1550 1358 1550 1358 1556 1312.5 c 128,-1,24
 1562 1267 1562 1267 1562 1227 c 2,25,-1
 1562 371 l 2,26,27
 1562 337 1562 337 1558 298.5 c 128,-1,28
 1554 260 1554 260 1538.5 220.5 c 128,-1,29
 1523 181 1523 181 1493 143.5 c 128,-1,30
 1463 106 1463 106 1411 73.5 c 128,-1,31
 1359 41 1359 41 1281 15.5 c 128,-1,32
 1203 -10 1203 -10 1092 -24 c 1,33,34
 1124 -50 1124 -50 1164 -67.5 c 128,-1,35
 1204 -85 1204 -85 1264 -85 c 0,36,37
 1311 -85 1311 -85 1369 -72 c 1,38,-1
 1451 -39 l 1,39,-1
 1443 -387 l 1,40,41
 1400 -406 1400 -406 1356 -421 c 0,42,43
 1318 -434 1318 -434 1274 -444.5 c 128,-1,44
 1230 -455 1230 -455 1191 -455 c 0,45,46
 1134 -455 1134 -455 1092 -443 c 128,-1,47
 1050 -431 1050 -431 1018 -411.5 c 128,-1,48
 986 -392 986 -392 961.5 -367 c 128,-1,49
 937 -342 937 -342 915 -316 c 0,50,51
 892 -290 892 -290 868.5 -265.5 c 128,-1,52
 845 -241 845 -241 814.5 -221.5 c 128,-1,53
 784 -202 784 -202 744.5 -190 c 128,-1,54
 705 -178 705 -178 651 -178 c 0,55,56
 576 -178 576 -178 517.5 -198 c 128,-1,57
 459 -218 459 -218 417 -242 c 0,58,59
 369 -270 369 -270 331 -305 c 1,60,-1
 206 -45 l 1,0,1
755 233 m 1,61,-1
 886 233 l 1,62,-1
 886 1364 l 1,63,-1
 755 1364 l 1,64,-1
 755 233 l 1,61,-1
EndSplineSet
EndChar

StartChar: R
Encoding: 82 82 14
Width: 1649
Flags: W
HStem: 0 21G<97 773 904 1582> 649 232<773 904> 1364 231<773 901.632>
VStem: 97 676<0 649 881 1364> 904 678<0 648.656> 904 652<885.756 1362.36>
LayerCount: 2
Fore
SplineSet
904 649 m 1,0,-1
 773 649 l 1,1,-1
 773 0 l 1,2,-1
 97 0 l 1,3,-1
 97 1595 l 1,4,-1
 886 1595 l 2,5,6
 1054 1595 1054 1595 1168.5 1576.5 c 128,-1,7
 1283 1558 1283 1558 1357.5 1525.5 c 128,-1,8
 1432 1493 1432 1493 1472.5 1448 c 128,-1,9
 1513 1403 1513 1403 1531.5 1349 c 128,-1,10
 1550 1295 1550 1295 1553 1234 c 128,-1,11
 1556 1173 1556 1173 1556 1110 c 0,12,13
 1556 1033 1556 1033 1545.5 982 c 128,-1,14
 1535 931 1535 931 1517.5 897 c 128,-1,15
 1500 863 1500 863 1478.5 844 c 128,-1,16
 1457 825 1457 825 1435 813 c 0,17,18
 1409 799 1409 799 1378.5 789 c 128,-1,19
 1348 779 1348 779 1316 774 c 1,20,21
 1355 771 1355 771 1401 756.5 c 128,-1,22
 1447 742 1447 742 1487 709.5 c 128,-1,23
 1527 677 1527 677 1553.5 623 c 128,-1,24
 1580 569 1580 569 1580 487 c 2,25,-1
 1582 0 l 1,26,-1
 904 0 l 1,27,-1
 904 649 l 1,0,-1
773 881 m 1,28,-1
 904 881 l 1,29,-1
 904 1364 l 1,30,-1
 773 1364 l 1,31,-1
 773 881 l 1,28,-1
EndSplineSet
EndChar

StartChar: I
Encoding: 73 73 15
Width: 870
Flags: W
HStem: 0 21G<97 773> 1575 20G<97 773>
VStem: 97 676<0 1595>
LayerCount: 2
Fore
SplineSet
773 1595 m 1,0,-1
 773 0 l 1,1,-1
 97 0 l 1,2,-1
 97 1595 l 1,3,-1
 773 1595 l 1,0,-1
EndSplineSet
EndChar

StartChar: M
Encoding: 77 77 16
Width: 2056
Flags: W
HStem: 0 21G<59 608 785.369 1267.64 1407 1996> 1575 20G<181.445 910.257 1143.8 1874.54>
LayerCount: 2
Fore
SplineSet
790 0 m 1,0,-1
 608 786 l 1,1,-1
 608 0 l 1,2,-1
 59 0 l 1,3,-1
 183 1595 l 1,4,-1
 907 1595 l 1,5,-1
 1028 852 l 1,6,-1
 1147 1595 l 1,7,-1
 1873 1595 l 1,8,-1
 1996 0 l 1,9,-1
 1407 0 l 1,10,-1
 1407 786 l 1,11,-1
 1264 0 l 1,12,-1
 790 0 l 1,0,-1
EndSplineSet
EndChar

StartChar: A
Encoding: 65 65 17
Width: 1606
Flags: W
HStem: 0 21G<-3 665.701 940.299 1609> 348 230<740 866> 1575 20G<341.624 1264.38>
LayerCount: 2
Fore
SplineSet
710 348 m 1,0,-1
 663 0 l 1,1,-1
 -3 0 l 1,2,-1
 346 1595 l 1,3,-1
 1260 1595 l 1,4,-1
 1609 0 l 1,5,-1
 943 0 l 1,6,-1
 896 348 l 1,7,-1
 710 348 l 1,0,-1
740 578 m 1,8,-1
 866 578 l 1,9,-1
 803 1001 l 1,10,-1
 740 578 l 1,8,-1
EndSplineSet
EndChar

StartChar: O
Encoding: 79 79 18
Width: 1641
Flags: W
HStem: -39 272<755.506 884.154> 1364 268<755.506 884.154>
VStem: 79 676<233.408 1363.53> 886 676<233.408 1363.53>
LayerCount: 2
Fore
SplineSet
755 233 m 1,0,-1
 886 233 l 1,1,-1
 886 1364 l 1,2,-1
 755 1364 l 1,3,-1
 755 233 l 1,0,-1
820 -39 m 0,4,5
 643 -39 643 -39 519.5 -19.5 c 128,-1,6
 396 0 396 0 313.5 32 c 128,-1,7
 231 64 231 64 184 106 c 128,-1,8
 137 148 137 148 113.5 193.5 c 128,-1,9
 90 239 90 239 84.5 285 c 128,-1,10
 79 331 79 331 79 371 c 2,11,-1
 79 1227 l 2,12,13
 79 1267 79 1267 84.5 1312.5 c 128,-1,14
 90 1358 90 1358 113.5 1403 c 128,-1,15
 137 1448 137 1448 184 1489.5 c 128,-1,16
 231 1531 231 1531 313.5 1562.5 c 128,-1,17
 396 1594 396 1594 519.5 1613 c 128,-1,18
 643 1632 643 1632 820 1632 c 0,19,20
 996 1632 996 1632 1119.5 1613 c 128,-1,21
 1243 1594 1243 1594 1325.5 1562.5 c 128,-1,22
 1408 1531 1408 1531 1455.5 1489.5 c 128,-1,23
 1503 1448 1503 1448 1526.5 1403 c 128,-1,24
 1550 1358 1550 1358 1556 1312.5 c 128,-1,25
 1562 1267 1562 1267 1562 1227 c 2,26,-1
 1562 371 l 2,27,28
 1562 331 1562 331 1556 285 c 128,-1,29
 1550 239 1550 239 1526.5 193.5 c 128,-1,30
 1503 148 1503 148 1455.5 106 c 128,-1,31
 1408 64 1408 64 1325.5 32 c 128,-1,32
 1243 0 1243 0 1119.5 -19.5 c 128,-1,33
 996 -39 996 -39 820 -39 c 0,4,5
EndSplineSet
EndChar

StartChar: B
Encoding: 66 66 19
Width: 1617
Flags: W
HStem: 0 233<773 904> 750 231<773 904> 1364 231<773 904>
VStem: 97 676<233 750 981 1364> 904 676<234.406 696.241>
LayerCount: 2
Fore
SplineSet
1580 460 m 0,0,1
 1580 397 1580 397 1577 338 c 128,-1,2
 1574 279 1574 279 1555.5 228 c 128,-1,3
 1537 177 1537 177 1497.5 135 c 128,-1,4
 1458 93 1458 93 1385 63 c 128,-1,5
 1312 33 1312 33 1199.5 16.5 c 128,-1,6
 1087 0 1087 0 923 0 c 2,7,-1
 97 0 l 1,8,-1
 97 1595 l 1,9,-1
 923 1595 l 2,10,11
 1075 1595 1075 1595 1179.5 1578 c 128,-1,12
 1284 1561 1284 1561 1352 1531 c 128,-1,13
 1420 1501 1420 1501 1456.5 1461 c 128,-1,14
 1493 1421 1493 1421 1510 1376 c 128,-1,15
 1527 1331 1527 1331 1530 1282.5 c 128,-1,16
 1533 1234 1533 1234 1533 1188 c 0,17,18
 1533 1123 1533 1123 1519 1076.5 c 128,-1,19
 1505 1030 1505 1030 1482 997.5 c 128,-1,20
 1459 965 1459 965 1430 944 c 128,-1,21
 1401 923 1401 923 1371 909 c 0,22,23
 1302 876 1302 876 1211 870 c 1,24,25
 1314 864 1314 864 1395 827 c 0,26,27
 1430 811 1430 811 1463 786.5 c 128,-1,28
 1496 762 1496 762 1522 720 c 128,-1,29
 1548 678 1548 678 1564 615.5 c 128,-1,30
 1580 553 1580 553 1580 460 c 0,0,1
773 233 m 1,31,-1
 904 233 l 1,32,-1
 904 750 l 1,33,-1
 773 750 l 1,34,-1
 773 233 l 1,31,-1
773 981 m 1,35,-1
 904 981 l 1,36,-1
 904 1364 l 1,37,-1
 773 1364 l 1,38,-1
 773 981 l 1,35,-1
EndSplineSet
EndChar

StartChar: S
Encoding: 83 83 20
Width: 1585
Flags: W
HStem: -39 272<735.551 861.21> 1364 268<736.341 864.584>
VStem: 58 676<233.408 533 1081.69 1362.53> 865 676<243.906 581.43>
LayerCount: 2
Fore
SplineSet
734 1106 m 2,0,1
 734 1090 734 1090 768.5 1083.5 c 128,-1,2
 803 1077 803 1077 860 1071.5 c 128,-1,3
 917 1066 917 1066 989.5 1058 c 128,-1,4
 1062 1050 1062 1050 1137.5 1032 c 128,-1,5
 1213 1014 1213 1014 1285.5 982 c 128,-1,6
 1358 950 1358 950 1415 897 c 128,-1,7
 1472 844 1472 844 1506.5 766 c 128,-1,8
 1541 688 1541 688 1541 578 c 0,9,10
 1541 499 1541 499 1536 422.5 c 128,-1,11
 1531 346 1531 346 1509 277.5 c 128,-1,12
 1487 209 1487 209 1442 151 c 128,-1,13
 1397 93 1397 93 1317 51 c 128,-1,14
 1237 9 1237 9 1117 -15 c 128,-1,15
 997 -39 997 -39 824 -39 c 256,16,17
 651 -39 651 -39 527 -19.5 c 128,-1,18
 403 0 403 0 318 32 c 128,-1,19
 233 64 233 64 181.5 106 c 128,-1,20
 130 148 130 148 102.5 193.5 c 128,-1,21
 75 239 75 239 66.5 285 c 128,-1,22
 58 331 58 331 58 371 c 2,23,-1
 58 533 l 1,24,-1
 734 533 l 1,25,-1
 734 233 l 1,26,-1
 865 233 l 1,27,-1
 865 553 l 2,28,29
 865 568 865 568 830.5 578.5 c 128,-1,30
 796 589 796 589 739 601 c 128,-1,31
 682 613 682 613 609.5 627.5 c 128,-1,32
 537 642 537 642 461.5 664.5 c 128,-1,33
 386 687 386 687 313.5 719.5 c 128,-1,34
 241 752 241 752 184 800 c 128,-1,35
 127 848 127 848 92.5 912.5 c 128,-1,36
 58 977 58 977 58 1064 c 0,37,38
 58 1172 58 1172 71.5 1256.5 c 128,-1,39
 85 1341 85 1341 118.5 1404 c 128,-1,40
 152 1467 152 1467 208 1510.5 c 128,-1,41
 264 1554 264 1554 348.5 1581 c 128,-1,42
 433 1608 433 1608 549.5 1620 c 128,-1,43
 666 1632 666 1632 820 1632 c 0,44,45
 982 1632 982 1632 1094.5 1614.5 c 128,-1,46
 1207 1597 1207 1597 1282 1567.5 c 128,-1,47
 1357 1538 1357 1538 1399.5 1499.5 c 128,-1,48
 1442 1461 1442 1461 1463 1418 c 128,-1,49
 1484 1375 1484 1375 1489 1331 c 128,-1,50
 1494 1287 1494 1287 1494 1247 c 2,51,-1
 1494 1128 l 1,52,-1
 865 1128 l 1,53,-1
 865 1364 l 1,54,-1
 734 1364 l 1,55,-1
 734 1106 l 2,0,1
EndSplineSet
EndChar

StartChar: Z
Encoding: 90 90 21
Width: 1147
Flags: W
HStem: 0 294<755 1113> 1304 291<34 430>
LayerCount: 2
Fore
SplineSet
1124 1595 m 1,0,-1
 755 294 l 1,1,-1
 1113 294 l 1,2,-1
 1113 0 l 1,3,-1
 22 0 l 1,4,-1
 430 1304 l 1,5,-1
 34 1304 l 1,6,-1
 34 1595 l 1,7,-1
 1124 1595 l 1,0,-1
EndSplineSet
EndChar

StartChar: Y
Encoding: 89 89 22
Width: 1570
Flags: W
HStem: 0 21G<446 1122> 1575 20G<-19 591.491 978.311 1589>
LayerCount: 2
Fore
SplineSet
585 1595 m 1,0,-1
 782 988 l 1,1,-1
 985 1595 l 1,2,-1
 1589 1595 l 1,3,-1
 1122 449 l 1,4,-1
 1122 0 l 1,5,-1
 446 0 l 1,6,-1
 446 459 l 1,7,-1
 -19 1595 l 1,8,-1
 585 1595 l 1,0,-1
EndSplineSet
EndChar

StartChar: J
Encoding: 74 74 23
Width: 1611
Flags: W
HStem: -39 272<711.237 840.003> 1575 20G<841 1517>
VStem: 35 675<233.408 686> 841 676<233.408 1595>
LayerCount: 2
Fore
SplineSet
841 1595 m 1,0,-1
 1517 1595 l 1,1,-1
 1517 371 l 2,2,3
 1517 331 1517 331 1509 285 c 128,-1,4
 1501 239 1501 239 1475.5 193.5 c 128,-1,5
 1450 148 1450 148 1401.5 106 c 128,-1,6
 1353 64 1353 64 1271.5 32 c 128,-1,7
 1190 0 1190 0 1070.5 -19.5 c 128,-1,8
 951 -39 951 -39 784 -39 c 0,9,10
 599 -39 599 -39 472 -19.5 c 128,-1,11
 345 0 345 0 261.5 32 c 128,-1,12
 178 64 178 64 132.5 106 c 128,-1,13
 87 148 87 148 65 193.5 c 128,-1,14
 43 239 43 239 39 285 c 128,-1,15
 35 331 35 331 35 371 c 2,16,-1
 35 686 l 1,17,-1
 710 686 l 1,18,-1
 710 233 l 1,19,-1
 841 233 l 1,20,-1
 841 1595 l 1,0,-1
EndSplineSet
EndChar

StartChar: period
Encoding: 46 46 24
Width: 687
Flags: W
HStem: 0 467<74 613>
VStem: 74 539<0 467>
LayerCount: 2
Fore
SplineSet
613 0 m 1,0,-1
 74 0 l 1,1,-1
 74 467 l 1,2,-1
 613 467 l 1,3,-1
 613 0 l 1,0,-1
EndSplineSet
EndChar

StartChar: V
Encoding: 86 86 25
Width: 1652
Flags: W
HStem: 0 21G<405.658 1246.34> 1575 20G<-15 662.458 989.5 1667>
LayerCount: 2
Fore
SplineSet
1667 1595 m 1,0,-1
 1241 0 l 1,1,-1
 411 0 l 1,2,-1
 -15 1595 l 1,3,-1
 659 1595 l 1,4,-1
 825 635 l 1,5,-1
 993 1595 l 1,6,-1
 1667 1595 l 1,0,-1
EndSplineSet
EndChar

StartChar: o
Encoding: 111 111 26
Width: 1486
Flags: W
HStem: -39 270<685.168 801.87> 1069 274<684.846 801.87>
VStem: 62 621<231.591 1068.36> 803 621<231.591 1068.36>
LayerCount: 2
Fore
SplineSet
683 231 m 1,0,-1
 803 231 l 1,1,-1
 803 1069 l 1,2,-1
 683 1069 l 1,3,-1
 683 231 l 1,0,-1
746 -39 m 256,4,5
 579 -39 579 -39 463 -21 c 128,-1,6
 347 -3 347 -3 271 27 c 128,-1,7
 195 57 195 57 153 97 c 128,-1,8
 111 137 111 137 90.5 180 c 128,-1,9
 70 223 70 223 66 267.5 c 128,-1,10
 62 312 62 312 62 352 c 2,11,-1
 62 952 l 2,12,13
 62 992 62 992 66 1036.5 c 128,-1,14
 70 1081 70 1081 90.5 1124.5 c 128,-1,15
 111 1168 111 1168 153 1207.5 c 128,-1,16
 195 1247 195 1247 271 1277 c 128,-1,17
 347 1307 347 1307 462.5 1325 c 128,-1,18
 578 1343 578 1343 746 1343 c 0,19,20
 913 1343 913 1343 1028 1325 c 128,-1,21
 1143 1307 1143 1307 1218.5 1277 c 128,-1,22
 1294 1247 1294 1247 1335.5 1207.5 c 128,-1,23
 1377 1168 1377 1168 1396.5 1124.5 c 128,-1,24
 1416 1081 1416 1081 1420 1036.5 c 128,-1,25
 1424 992 1424 992 1424 952 c 2,26,-1
 1424 352 l 2,27,28
 1424 312 1424 312 1420 267.5 c 128,-1,29
 1416 223 1416 223 1396.5 180 c 128,-1,30
 1377 137 1377 137 1335.5 97 c 128,-1,31
 1294 57 1294 57 1218.5 27 c 128,-1,32
 1143 -3 1143 -3 1028 -21 c 128,-1,33
 913 -39 913 -39 746 -39 c 256,4,5
EndSplineSet
EndChar

StartChar: c
Encoding: 99 99 27
Width: 1478
Flags: W
HStem: -37 268<684.168 800.87> 1069 274<683.846 798.268>
VStem: 61 621<232.22 1068.13> 802 621<231.754 598 741 1068.18>
LayerCount: 2
Fore
SplineSet
1423 598 m 1,0,-1
 1423 354 l 2,1,2
 1423 315 1423 315 1419 270.5 c 128,-1,3
 1415 226 1415 226 1395.5 182.5 c 128,-1,4
 1376 139 1376 139 1334.5 99.5 c 128,-1,5
 1293 60 1293 60 1217.5 29.5 c 128,-1,6
 1142 -1 1142 -1 1027 -19 c 128,-1,7
 912 -37 912 -37 745 -37 c 256,8,9
 578 -37 578 -37 462 -19 c 128,-1,10
 346 -1 346 -1 270 29 c 128,-1,11
 194 59 194 59 152 99 c 128,-1,12
 110 139 110 139 89.5 182 c 128,-1,13
 69 225 69 225 65 269.5 c 128,-1,14
 61 314 61 314 61 354 c 2,15,-1
 61 954 l 2,16,17
 61 994 61 994 65 1038 c 128,-1,18
 69 1082 69 1082 89.5 1125 c 128,-1,19
 110 1168 110 1168 152 1207.5 c 128,-1,20
 194 1247 194 1247 270 1277 c 128,-1,21
 346 1307 346 1307 461.5 1325 c 128,-1,22
 577 1343 577 1343 745 1343 c 0,23,24
 904 1343 904 1343 1016 1327 c 128,-1,25
 1128 1311 1128 1311 1203 1283 c 128,-1,26
 1278 1255 1278 1255 1322 1219 c 128,-1,27
 1366 1183 1366 1183 1388.5 1142 c 128,-1,28
 1411 1101 1411 1101 1417 1059 c 128,-1,29
 1423 1017 1423 1017 1423 978 c 2,30,-1
 1423 741 l 1,31,-1
 802 741 l 1,32,-1
 802 1069 l 1,33,-1
 682 1069 l 1,34,-1
 682 231 l 1,35,-1
 802 231 l 1,36,-1
 802 598 l 1,37,-1
 1423 598 l 1,0,-1
EndSplineSet
EndChar

StartChar: e
Encoding: 101 101 28
Width: 1480
Flags: W
HStem: -37 268<684.168 800.87> 621 206<682 802> 1069 274<683.846 800.87>
VStem: 61 621<232.22 621 827 1068.13> 802 621<232.22 531 827 1067.92>
LayerCount: 2
Fore
SplineSet
1423 531 m 1,0,-1
 1423 354 l 2,1,2
 1423 314 1423 314 1419 269.5 c 128,-1,3
 1415 225 1415 225 1395.5 182 c 128,-1,4
 1376 139 1376 139 1334.5 99 c 128,-1,5
 1293 59 1293 59 1217.5 29 c 128,-1,6
 1142 -1 1142 -1 1027 -19 c 128,-1,7
 912 -37 912 -37 745 -37 c 256,8,9
 578 -37 578 -37 462 -19 c 128,-1,10
 346 -1 346 -1 270 29 c 128,-1,11
 194 59 194 59 152 99 c 128,-1,12
 110 139 110 139 89.5 182 c 128,-1,13
 69 225 69 225 65 269.5 c 128,-1,14
 61 314 61 314 61 354 c 2,15,-1
 61 954 l 2,16,17
 61 994 61 994 65 1038 c 128,-1,18
 69 1082 69 1082 89.5 1125 c 128,-1,19
 110 1168 110 1168 152 1207.5 c 128,-1,20
 194 1247 194 1247 270 1277 c 128,-1,21
 346 1307 346 1307 461.5 1325 c 128,-1,22
 577 1343 577 1343 745 1343 c 0,23,24
 912 1343 912 1343 1027 1325 c 128,-1,25
 1142 1307 1142 1307 1217.5 1277 c 128,-1,26
 1293 1247 1293 1247 1334.5 1207.5 c 128,-1,27
 1376 1168 1376 1168 1395.5 1125 c 128,-1,28
 1415 1082 1415 1082 1419 1037.5 c 128,-1,29
 1423 993 1423 993 1423 954 c 2,30,-1
 1423 621 l 1,31,-1
 682 621 l 1,32,-1
 682 231 l 1,33,-1
 802 231 l 1,34,-1
 802 531 l 1,35,-1
 1423 531 l 1,0,-1
682 827 m 1,36,-1
 802 827 l 1,37,-1
 802 1069 l 1,38,-1
 682 1069 l 1,39,-1
 682 827 l 1,36,-1
EndSplineSet
EndChar

StartChar: n
Encoding: 110 110 29
Width: 1519
Flags: W
HStem: 0 21G<80 701 821 1442> 1280 20G<80 631.267 971.5 1047>
VStem: 80 621<0 1069> 821 621<0 1067.62>
LayerCount: 2
Fore
SplineSet
80 0 m 1,0,-1
 80 1300 l 1,1,-1
 623 1300 l 1,2,-1
 654 1225 l 1,3,4
 679 1255 679 1255 720 1277.5 c 128,-1,5
 761 1300 761 1300 807.5 1314.5 c 128,-1,6
 854 1329 854 1329 902.5 1336 c 128,-1,7
 951 1343 951 1343 992 1343 c 0,8,9
 1102 1343 1102 1343 1178 1323 c 128,-1,10
 1254 1303 1254 1303 1304 1270 c 128,-1,11
 1354 1237 1354 1237 1382 1194 c 128,-1,12
 1410 1151 1410 1151 1423 1105 c 128,-1,13
 1436 1059 1436 1059 1439 1013 c 128,-1,14
 1442 967 1442 967 1442 928 c 2,15,-1
 1442 0 l 1,16,-1
 821 0 l 1,17,-1
 821 1069 l 1,18,-1
 701 1069 l 1,19,-1
 701 0 l 1,20,-1
 80 0 l 1,0,-1
EndSplineSet
EndChar

StartChar: u
Encoding: 117 117 30
Width: 1519
Flags: W
HStem: 0 21G<473 547 886.842 1439> 1280 20G<77 698 818 1439>
VStem: 77 621<231.684 1300> 818 621<231 1300>
LayerCount: 2
Fore
SplineSet
1439 1300 m 1,0,-1
 1439 0 l 1,1,-1
 895 0 l 1,2,-1
 864 76 l 1,3,4
 843 45 843 45 802 23.5 c 128,-1,5
 761 2 761 2 713 -11.5 c 128,-1,6
 665 -25 665 -25 615.5 -31 c 128,-1,7
 566 -37 566 -37 528 -37 c 0,8,9
 418 -37 418 -37 341.5 -17.5 c 128,-1,10
 265 2 265 2 215 35 c 128,-1,11
 165 68 165 68 137 111 c 128,-1,12
 109 154 109 154 95.5 200 c 128,-1,13
 82 246 82 246 79.5 292.5 c 128,-1,14
 77 339 77 339 77 379 c 2,15,-1
 77 1300 l 1,16,-1
 698 1300 l 1,17,-1
 698 231 l 1,18,-1
 818 231 l 1,19,-1
 818 1300 l 1,20,-1
 1439 1300 l 1,0,-1
EndSplineSet
EndChar

StartChar: m
Encoding: 109 109 31
Width: 2249
Flags: W
HStem: 0 21G<80 701 821 1431 1551 2172> 1280 20G<80 630.267 970.5 1026.5 1659.5 1767>
VStem: 80 621<0 1069> 821 610<0 1069> 1551 621<0 1067.62>
CounterMasks: 1 38
LayerCount: 2
Fore
SplineSet
1421 1069 m 1,0,1
 1429 1026 1429 1026 1430 985 c 128,-1,2
 1431 944 1431 944 1431 909 c 2,3,-1
 1431 0 l 1,4,-1
 821 0 l 1,5,-1
 821 1069 l 1,6,-1
 701 1069 l 1,7,-1
 701 0 l 1,8,-1
 80 -1 l 1,9,-1
 80 1300 l 1,10,-1
 622 1300 l 1,11,-1
 653 1225 l 1,12,13
 678 1255 678 1255 719 1277.5 c 128,-1,14
 760 1300 760 1300 806.5 1314.5 c 128,-1,15
 853 1329 853 1329 901.5 1336 c 128,-1,16
 950 1343 950 1343 991 1343 c 0,17,18
 1062 1343 1062 1343 1117 1332 c 128,-1,19
 1172 1321 1172 1321 1214.5 1302.5 c 128,-1,20
 1257 1284 1257 1284 1288 1261 c 128,-1,21
 1319 1238 1319 1238 1343 1214 c 1,22,23
 1347 1220 1347 1220 1365.5 1241 c 128,-1,24
 1384 1262 1384 1262 1426 1284.5 c 128,-1,25
 1468 1307 1468 1307 1537.5 1325 c 128,-1,26
 1607 1343 1607 1343 1712 1343 c 0,27,28
 1822 1343 1822 1343 1899 1323 c 128,-1,29
 1976 1303 1976 1303 2027 1270 c 128,-1,30
 2078 1237 2078 1237 2107 1194 c 128,-1,31
 2136 1151 2136 1151 2150.5 1105 c 128,-1,32
 2165 1059 2165 1059 2168.5 1013 c 128,-1,33
 2172 967 2172 967 2172 928 c 2,34,-1
 2172 0 l 1,35,-1
 1551 0 l 1,36,-1
 1551 1069 l 1,37,-1
 1421 1069 l 1,0,1
EndSplineSet
EndChar

StartChar: i
Encoding: 105 105 32
Width: 781
Flags: W
HStem: 0 21G<80 701> 1280 20G<80 701> 1393 315<80 701>
VStem: 80 621<0 1300 1393 1708>
LayerCount: 2
Fore
SplineSet
701 0 m 1,0,-1
 80 0 l 1,1,-1
 80 1300 l 1,2,-1
 701 1300 l 1,3,-1
 701 0 l 1,0,-1
701 1708 m 1,4,-1
 701 1393 l 1,5,-1
 80 1393 l 1,6,-1
 80 1708 l 1,7,-1
 701 1708 l 1,4,-1
EndSplineSet
EndChar

StartChar: b
Encoding: 98 98 33
Width: 1505
Flags: W
HStem: -16 16G<80 630.949 982 1056> 1323 20G<968.5 1056> 1690 20G<80 701>
VStem: 80 621<231 1069 1225 1710> 821 621<232.127 1067.75>
LayerCount: 2
Fore
SplineSet
701 1710 m 1,0,-1
 701 1225 l 1,1,2
 718 1253 718 1253 742.5 1275 c 128,-1,3
 767 1297 767 1297 803 1312 c 128,-1,4
 839 1327 839 1327 887.5 1335 c 128,-1,5
 936 1343 936 1343 1001 1343 c 0,6,7
 1111 1343 1111 1343 1186.5 1323.5 c 128,-1,8
 1262 1304 1262 1304 1311 1271.5 c 128,-1,9
 1360 1239 1360 1239 1386.5 1196.5 c 128,-1,10
 1413 1154 1413 1154 1425.5 1108 c 128,-1,11
 1438 1062 1438 1062 1440 1016 c 128,-1,12
 1442 970 1442 970 1442 930 c 2,13,-1
 1442 377 l 2,14,15
 1442 338 1442 338 1440 291.5 c 128,-1,16
 1438 245 1438 245 1425.5 199 c 128,-1,17
 1413 153 1413 153 1386.5 110.5 c 128,-1,18
 1360 68 1360 68 1311 35 c 128,-1,19
 1262 2 1262 2 1186.5 -17.5 c 128,-1,20
 1111 -37 1111 -37 1001 -37 c 0,21,22
 963 -37 963 -37 913.5 -31 c 128,-1,23
 864 -25 864 -25 815 -11.5 c 128,-1,24
 766 2 766 2 722.5 24 c 128,-1,25
 679 46 679 46 654 78 c 1,26,-1
 623 0 l 1,27,-1
 80 0 l 1,28,-1
 80 1710 l 1,29,-1
 701 1710 l 1,0,-1
701 231 m 1,30,-1
 821 231 l 1,31,-1
 821 1069 l 1,32,-1
 701 1069 l 1,33,-1
 701 231 l 1,30,-1
EndSplineSet
EndChar

StartChar: d
Encoding: 100 100 34
Width: 1505
Flags: W
HStem: 0 21G<449 523 874.051 1425> 1323 20G<449 536.5> 1690 20G<804 1425>
VStem: 63 621<232.062 1067.75> 804 621<231 1069 1225 1710>
LayerCount: 2
Fore
SplineSet
1425 1710 m 1,0,-1
 1425 0 l 1,1,-1
 882 0 l 1,2,-1
 851 78 l 1,3,4
 825 46 825 46 782 24 c 128,-1,5
 739 2 739 2 690 -11.5 c 128,-1,6
 641 -25 641 -25 591.5 -31 c 128,-1,7
 542 -37 542 -37 504 -37 c 0,8,9
 394 -37 394 -37 318.5 -17.5 c 128,-1,10
 243 2 243 2 194 35 c 128,-1,11
 145 68 145 68 118.5 110.5 c 128,-1,12
 92 153 92 153 79.5 199 c 128,-1,13
 67 245 67 245 65 291 c 128,-1,14
 63 337 63 337 63 377 c 2,15,-1
 63 930 l 2,16,17
 63 970 63 970 65 1016 c 128,-1,18
 67 1062 67 1062 79.5 1108 c 128,-1,19
 92 1154 92 1154 118.5 1196.5 c 128,-1,20
 145 1239 145 1239 194 1271.5 c 128,-1,21
 243 1304 243 1304 318.5 1323.5 c 128,-1,22
 394 1343 394 1343 504 1343 c 0,23,24
 569 1343 569 1343 617.5 1335 c 128,-1,25
 666 1327 666 1327 702 1312 c 128,-1,26
 738 1297 738 1297 762.5 1275 c 128,-1,27
 787 1253 787 1253 804 1225 c 1,28,-1
 804 1710 l 1,29,-1
 1425 1710 l 1,0,-1
804 1069 m 1,30,-1
 684 1069 l 1,31,-1
 684 231 l 1,32,-1
 804 231 l 1,33,-1
 804 1069 l 1,30,-1
EndSplineSet
EndChar

StartChar: h
Encoding: 104 104 35
Width: 1519
Flags: W
HStem: 0 21G<80 701 821 1442> 1323 20G<983 1057> 1690 20G<80 701>
VStem: 80 621<0 1069 1225 1710> 821 621<0 1067.75>
LayerCount: 2
Fore
SplineSet
80 0 m 1,0,-1
 80 1710 l 1,1,-1
 701 1710 l 1,2,-1
 701 1225 l 1,3,4
 720 1257 720 1257 755.5 1279.5 c 128,-1,5
 791 1302 791 1302 833 1316 c 128,-1,6
 875 1330 875 1330 919.5 1336.5 c 128,-1,7
 964 1343 964 1343 1002 1343 c 0,8,9
 1112 1343 1112 1343 1187.5 1323.5 c 128,-1,10
 1263 1304 1263 1304 1312 1271.5 c 128,-1,11
 1361 1239 1361 1239 1387 1196.5 c 128,-1,12
 1413 1154 1413 1154 1425.5 1108 c 128,-1,13
 1438 1062 1438 1062 1440 1016 c 128,-1,14
 1442 970 1442 970 1442 930 c 2,15,-1
 1442 0 l 1,16,-1
 821 0 l 1,17,-1
 821 1069 l 1,18,-1
 701 1069 l 1,19,-1
 701 0 l 1,20,-1
 80 0 l 1,0,-1
EndSplineSet
EndChar

StartChar: l
Encoding: 108 108 36
Width: 781
Flags: W
HStem: 0 21G<80 701> 1690 20G<80 701>
VStem: 80 621<0 1710>
LayerCount: 2
Fore
SplineSet
701 0 m 1,0,-1
 80 0 l 1,1,-1
 80 1710 l 1,2,-1
 701 1710 l 1,3,-1
 701 0 l 1,0,-1
EndSplineSet
EndChar

StartChar: r
Encoding: 114 114 37
Width: 1014
Flags: W
HStem: 0 21G<80 701> 1280 20G<80 631.267 971.5 992>
VStem: 80 621<0 909>
LayerCount: 2
Fore
SplineSet
80 0 m 1,0,-1
 80 1300 l 1,1,-1
 623 1300 l 1,2,-1
 654 1225 l 1,3,4
 679 1255 679 1255 720 1277 c 128,-1,5
 761 1299 761 1299 807.5 1313.5 c 128,-1,6
 854 1328 854 1328 902.5 1335 c 128,-1,7
 951 1342 951 1342 992 1343 c 1,8,-1
 992 949 l 1,9,-1
 701 909 l 1,10,-1
 701 0 l 1,11,-1
 80 0 l 1,0,-1
EndSplineSet
EndChar

StartChar: p
Encoding: 112 112 38
Width: 1504
Flags: W
HStem: -37 21G<974 1047> 1280 20G<80 631.267 971.5 1047>
VStem: 80 621<-408 78 233 1069> 821 621<233.127 1067.62>
LayerCount: 2
Fore
SplineSet
80 -408 m 1,0,-1
 80 1300 l 1,1,-1
 623 1300 l 1,2,-1
 654 1225 l 1,3,4
 679 1255 679 1255 720 1277.5 c 128,-1,5
 761 1300 761 1300 807.5 1314.5 c 128,-1,6
 854 1329 854 1329 902.5 1336 c 128,-1,7
 951 1343 951 1343 992 1343 c 0,8,9
 1102 1343 1102 1343 1178 1323 c 128,-1,10
 1254 1303 1254 1303 1304 1270 c 128,-1,11
 1354 1237 1354 1237 1382 1194 c 128,-1,12
 1410 1151 1410 1151 1423 1105 c 128,-1,13
 1436 1059 1436 1059 1439 1013 c 128,-1,14
 1442 967 1442 967 1442 928 c 2,15,-1
 1442 379 l 2,16,17
 1442 339 1442 339 1439 292.5 c 128,-1,18
 1436 246 1436 246 1423 200 c 128,-1,19
 1410 154 1410 154 1382 111 c 128,-1,20
 1354 68 1354 68 1304 35 c 128,-1,21
 1254 2 1254 2 1178 -17.5 c 128,-1,22
 1102 -37 1102 -37 992 -37 c 0,23,24
 956 -37 956 -37 914 -32 c 128,-1,25
 872 -27 872 -27 831.5 -14.5 c 128,-1,26
 791 -2 791 -2 756.5 20.5 c 128,-1,27
 722 43 722 43 701 78 c 1,28,-1
 701 -408 l 1,29,-1
 80 -408 l 1,0,-1
701 233 m 1,30,-1
 821 233 l 1,31,-1
 821 1069 l 1,32,-1
 701 1069 l 1,33,-1
 701 233 l 1,30,-1
EndSplineSet
EndChar

StartChar: q
Encoding: 113 113 39
Width: 1481
Flags: W
HStem: -37 21G<449 530> 1300 23G<449 521.5 863.467 1401>
VStem: 63 613<233.127 1067.62> 795 606<233 1069> 817 584<-408 78>
LayerCount: 2
Fore
SplineSet
817 -408 m 1,0,-1
 817 78 l 1,1,2
 799 46 799 46 766 27 c 0,3,4
 750 17 750 17 727 6 c 128,-1,5
 704 -5 704 -5 672 -14.5 c 128,-1,6
 640 -24 640 -24 598 -30.5 c 128,-1,7
 556 -37 556 -37 504 -37 c 0,8,9
 394 -37 394 -37 318.5 -17.5 c 128,-1,10
 243 2 243 2 194 35 c 128,-1,11
 145 68 145 68 118.5 111 c 128,-1,12
 92 154 92 154 79.5 200 c 128,-1,13
 67 246 67 246 65 292.5 c 128,-1,14
 63 339 63 339 63 379 c 2,15,-1
 63 928 l 2,16,17
 63 967 63 967 65 1013 c 128,-1,18
 67 1059 67 1059 79.5 1105 c 128,-1,19
 92 1151 92 1151 118.5 1194 c 128,-1,20
 145 1237 145 1237 194 1270 c 128,-1,21
 243 1303 243 1303 318.5 1323 c 128,-1,22
 394 1343 394 1343 504 1343 c 0,23,24
 539 1343 539 1343 587 1336 c 128,-1,25
 635 1329 635 1329 683 1315 c 128,-1,26
 731 1301 731 1301 773.5 1278.5 c 128,-1,27
 816 1256 816 1256 840 1225 c 1,28,-1
 872 1300 l 1,29,-1
 1401 1300 l 1,30,-1
 1401 -408 l 1,31,-1
 817 -408 l 1,0,-1
795 1069 m 1,32,-1
 676 1069 l 1,33,-1
 676 233 l 1,34,-1
 795 233 l 1,35,-1
 795 1069 l 1,32,-1
EndSplineSet
EndChar

StartChar: t
Encoding: 116 116 40
Width: 954
Flags: W
HStem: 0 21G<162 783> 1100 200<16 162 783 938> 1575 20G<162 783>
VStem: 162 621<0 1100 1300 1595>
LayerCount: 2
Fore
SplineSet
783 0 m 1,0,-1
 162 0 l 1,1,-1
 162 1100 l 1,2,-1
 16 1100 l 1,3,-1
 16 1300 l 1,4,-1
 162 1300 l 1,5,-1
 162 1595 l 1,6,-1
 783 1595 l 1,7,-1
 783 1300 l 1,8,-1
 938 1300 l 1,9,-1
 938 1100 l 1,10,-1
 783 1100 l 1,11,-1
 783 0 l 1,0,-1
EndSplineSet
EndChar

StartChar: a
Encoding: 97 97 41
Width: 1480
Flags: W
HStem: 0 21G<844.958 1446> 1323 20G<655 811>
VStem: 775 620<231.712 602 782 1068.36>
LayerCount: 2
Fore
SplineSet
850 0 m 1,0,-1
 820 119 l 1,1,2
 792 75 792 75 746 41 c 0,3,4
 726 26 726 26 700.5 12 c 128,-1,5
 675 -2 675 -2 642.5 -13 c 128,-1,6
 610 -24 610 -24 570.5 -30.5 c 128,-1,7
 531 -37 531 -37 484 -37 c 0,8,9
 374 -37 374 -37 297.5 -15.5 c 128,-1,10
 221 6 221 6 171 41 c 128,-1,11
 121 76 121 76 93.5 121.5 c 128,-1,12
 66 167 66 167 52.5 215.5 c 128,-1,13
 39 264 39 264 36.5 311.5 c 128,-1,14
 34 359 34 359 34 399 c 0,15,16
 34 441 34 441 36.5 490 c 128,-1,17
 39 539 39 539 52.5 588.5 c 128,-1,18
 66 638 66 638 93.5 683.5 c 128,-1,19
 121 729 121 729 171 764.5 c 128,-1,20
 221 800 221 800 297.5 821 c 128,-1,21
 374 842 374 842 484 842 c 0,22,23
 542 842 542 842 588 836.5 c 128,-1,24
 634 831 634 831 669.5 822 c 128,-1,25
 705 813 705 813 731 802.5 c 128,-1,26
 757 792 757 792 775 782 c 1,27,-1
 775 1069 l 1,28,-1
 701 1069 l 1,29,-1
 701 928 l 1,30,-1
 88 894 l 1,31,32
 88 914 88 914 87.5 935 c 128,-1,33
 87 956 87 956 87 977 c 0,34,35
 87 1020 87 1020 94.5 1064.5 c 128,-1,36
 102 1109 102 1109 125 1149.5 c 128,-1,37
 148 1190 148 1190 191 1225.5 c 128,-1,38
 234 1261 234 1261 305.5 1287 c 128,-1,39
 377 1313 377 1313 480 1328 c 128,-1,40
 583 1343 583 1343 727 1343 c 0,41,42
 895 1343 895 1343 1009.5 1325 c 128,-1,43
 1124 1307 1124 1307 1198 1277 c 128,-1,44
 1272 1247 1272 1247 1312 1207.5 c 128,-1,45
 1352 1168 1352 1168 1370.5 1124.5 c 128,-1,46
 1389 1081 1389 1081 1392 1036.5 c 128,-1,47
 1395 992 1395 992 1395 952 c 2,48,-1
 1395 257 l 2,49,50
 1395 209 1395 209 1402.5 164 c 128,-1,51
 1410 119 1410 119 1420 82 c 0,52,53
 1431 39 1431 39 1446 0 c 1,54,-1
 850 0 l 1,0,-1
655 602 m 1,55,-1
 655 231 l 1,56,-1
 775 231 l 1,57,-1
 775 602 l 1,58,-1
 655 602 l 1,55,-1
EndSplineSet
EndChar

StartChar: f
Encoding: 102 102 42
Width: 1186
Flags: W
HStem: 0 21G<228 849> 1098 202<8 228 849 1182> 1477 254<849 1164.81> 1477 219<1125.55 1173>
VStem: 228 621<0 1098 1300 1475.57>
LayerCount: 2
Fore
SplineSet
228 1317 m 2,0,1
 228 1420 228 1420 253 1498 c 128,-1,2
 278 1576 278 1576 341 1627.5 c 128,-1,3
 404 1679 404 1679 511 1705 c 128,-1,4
 618 1731 618 1731 782 1731 c 0,5,6
 894 1731 894 1731 966.5 1723.5 c 128,-1,7
 1039 1716 1039 1716 1087 1706 c 0,8,9
 1110 1701 1110 1701 1131.5 1696 c 128,-1,10
 1153 1691 1153 1691 1173 1683 c 1,11,-1
 1173 1477 l 1,12,-1
 849 1477 l 1,13,-1
 849 1300 l 1,14,-1
 1182 1300 l 1,15,-1
 1182 1098 l 1,16,-1
 849 1098 l 1,17,-1
 849 0 l 1,18,-1
 228 0 l 1,19,-1
 228 1098 l 1,20,-1
 8 1098 l 1,21,-1
 8 1300 l 1,22,-1
 228 1300 l 1,23,-1
 228 1317 l 2,0,1
EndSplineSet
EndChar

StartChar: j
Encoding: 106 106 43
Width: 781
Flags: W
HStem: -318.5 252.5<-220.122 80> -285 219<-221 79.8281> 1280 20G<80 701> 1393 315<80 701>
VStem: 80 621<-64.8511 1300 1393 1708>
LayerCount: 2
Fore
SplineSet
701 94 m 2,0,1
 701 54 701 54 698.5 7.5 c 128,-1,2
 696 -39 696 -39 682 -85 c 128,-1,3
 668 -131 668 -131 639 -174 c 128,-1,4
 610 -217 610 -217 557 -250 c 128,-1,5
 504 -283 504 -283 422.5 -302.5 c 128,-1,6
 341 -322 341 -322 223 -322 c 0,7,8
 132 -322 132 -322 62 -318.5 c 128,-1,9
 -8 -315 -8 -315 -62 -309.5 c 128,-1,10
 -116 -304 -116 -304 -154.5 -297.5 c 128,-1,11
 -193 -291 -193 -291 -221 -285 c 1,12,-1
 -221 -66 l 1,13,-1
 80 -66 l 1,14,-1
 80 1300 l 1,15,-1
 701 1300 l 1,16,-1
 701 94 l 2,0,1
701 1708 m 1,17,-1
 701 1393 l 1,18,-1
 80 1393 l 1,19,-1
 80 1708 l 1,20,-1
 701 1708 l 1,17,-1
EndSplineSet
EndChar

StartChar: s
Encoding: 115 115 44
Width: 1426
Flags: W
HStem: -37 268<653.001 769.933> 1069 274<654.406 769.999>
VStem: 31 621<845.593 1068.82> 772 621<231.236 460.656>
LayerCount: 2
Fore
SplineSet
772 447 m 1,0,1
 764 456 764 456 727.5 461 c 128,-1,2
 691 466 691 466 637.5 473 c 128,-1,3
 584 480 584 480 518 490.5 c 128,-1,4
 452 501 452 501 384.5 520 c 128,-1,5
 317 539 317 539 253.5 569 c 128,-1,6
 190 599 190 599 140.5 644.5 c 128,-1,7
 91 690 91 690 61 753 c 128,-1,8
 31 816 31 816 31 902 c 0,9,10
 31 966 31 966 41.5 1023.5 c 128,-1,11
 52 1081 52 1081 79.5 1130 c 128,-1,12
 107 1179 107 1179 156 1218.5 c 128,-1,13
 205 1258 205 1258 282 1285.5 c 128,-1,14
 359 1313 359 1313 468.5 1328 c 128,-1,15
 578 1343 578 1343 726 1343 c 0,16,17
 870 1343 870 1343 973 1329.5 c 128,-1,18
 1076 1316 1076 1316 1146 1292 c 128,-1,19
 1216 1268 1216 1268 1258.5 1234 c 128,-1,20
 1301 1200 1301 1200 1323 1158.5 c 128,-1,21
 1345 1117 1345 1117 1352 1069 c 128,-1,22
 1359 1021 1359 1021 1359 970 c 0,23,24
 1359 944 1359 944 1358.5 917.5 c 128,-1,25
 1358 891 1358 891 1358 864 c 1,26,-1
 772 894 l 1,27,-1
 772 1069 l 1,28,-1
 652 1069 l 1,29,-1
 652 860 l 1,30,31
 661 851 661 851 698 845 c 128,-1,32
 735 839 735 839 788.5 832.5 c 128,-1,33
 842 826 842 826 908 815.5 c 128,-1,34
 974 805 974 805 1041 786.5 c 128,-1,35
 1108 768 1108 768 1171.5 739.5 c 128,-1,36
 1235 711 1235 711 1284 667.5 c 128,-1,37
 1333 624 1333 624 1363 563.5 c 128,-1,38
 1393 503 1393 503 1393 421 c 0,39,40
 1393 346 1393 346 1381 282.5 c 128,-1,41
 1369 219 1369 219 1338.5 168.5 c 128,-1,42
 1308 118 1308 118 1257.5 79.5 c 128,-1,43
 1207 41 1207 41 1129.5 15 c 128,-1,44
 1052 -11 1052 -11 945.5 -24 c 128,-1,45
 839 -37 839 -37 697 -37 c 0,46,47
 553 -37 553 -37 450 -22.5 c 128,-1,48
 347 -8 347 -8 277 18 c 128,-1,49
 207 44 207 44 164.5 80 c 128,-1,50
 122 116 122 116 100 158 c 128,-1,51
 78 200 78 200 71 247.5 c 128,-1,52
 64 295 64 295 64 345 c 0,53,54
 64 370 64 370 64.5 394.5 c 128,-1,55
 65 419 65 419 65 444 c 1,56,-1
 652 414 l 1,57,-1
 652 231 l 1,58,-1
 772 231 l 1,59,-1
 772 447 l 1,0,1
EndSplineSet
EndChar

StartChar: W
Encoding: 87 87 45
Width: 2376
Flags: W
HStem: 0 21G<305.138 1063.7 1312.36 2071.85> 1575 20G<1 678.18 934.008 1443.97 1697.84 2375>
VStem: 1 674<921 1595> 1701 674<921 1595>
LayerCount: 2
Fore
SplineSet
2375 1595 m 1,0,-1
 2068 0 l 1,1,-1
 1316 0 l 1,2,-1
 1189 698 l 1,3,-1
 1060 0 l 1,4,-1
 309 0 l 1,5,-1
 1 1595 l 1,6,-1
 675 1595 l 1,7,-1
 810 746 l 1,8,-1
 937 1595 l 1,9,-1
 1441 1595 l 1,10,-1
 1567 746 l 1,11,-1
 1701 1595 l 1,12,-1
 2375 1595 l 1,0,-1
EndSplineSet
EndChar

StartChar: v
Encoding: 118 118 46
Width: 1434
Flags: W
HStem: 0 21G<353.354 1081.63> 1280 20G<-8 601.636 831.295 1442>
LayerCount: 2
Fore
SplineSet
-8 1300 m 1,0,-1
 599 1300 l 1,1,-1
 715 420 l 1,2,-1
 834 1300 l 1,3,-1
 1442 1300 l 1,4,-1
 1076 0 l 1,5,-1
 359 0 l 1,6,-1
 -8 1300 l 1,0,-1
EndSplineSet
EndChar

StartChar: x
Encoding: 120 120 47
Width: 1363
Flags: W
HStem: 0 21G<-19 591.519 770.481 1381> 1280 20G<-19 596.331 765.669 1381>
LayerCount: 2
Fore
SplineSet
-19 0 m 1,0,-1
 378 652 l 1,1,-1
 -19 1300 l 1,2,-1
 589 1300 l 1,3,-1
 681 1049 l 1,4,-1
 773 1300 l 1,5,-1
 1381 1300 l 1,6,-1
 984 652 l 1,7,-1
 1381 0 l 1,8,-1
 778 0 l 1,9,-1
 681 258 l 1,10,-1
 584 0 l 1,11,-1
 -19 0 l 1,0,-1
EndSplineSet
EndChar

StartChar: w
Encoding: 119 119 48
Width: 2181
Flags: W
HStem: 0 21G<244.277 995.544 1181.37 1936.72> 1280 20G<6 590.045 804.068 1376.84 1588.91 2175>
LayerCount: 2
Fore
SplineSet
1087 739 m 1,0,-1
 993 0 l 1,1,-1
 248 0 l 1,2,-1
 6 1300 l 1,3,-1
 588 1300 l 1,4,-1
 678 420 l 1,5,-1
 807 1300 l 1,6,-1
 1374 1300 l 1,7,-1
 1499 420 l 1,8,-1
 1591 1300 l 1,9,-1
 2175 1300 l 1,10,-1
 1933 0 l 1,11,-1
 1184 0 l 1,12,-1
 1087 739 l 1,0,-1
EndSplineSet
EndChar

StartChar: z
Encoding: 122 122 49
Width: 1123
Flags: W
HStem: 0 246<695 1082> 1051 249<61 418>
LayerCount: 2
Fore
SplineSet
61 1300 m 1,0,-1
 1074 1300 l 1,1,-1
 1074 1079 l 1,2,-1
 695 246 l 1,3,-1
 1082 246 l 1,4,-1
 1082 0 l 1,5,-1
 36 0 l 1,6,-1
 36 233 l 1,7,-1
 418 1051 l 1,8,-1
 61 1051 l 1,9,-1
 61 1300 l 1,0,-1
EndSplineSet
EndChar

StartChar: X
Encoding: 88 88 50
Width: 1557
Flags: W
HStem: 0 21G<-21 633.732 923.01 1578> 1575 20G<-21 595.73 961.039 1578>
LayerCount: 2
Fore
SplineSet
587 1595 m 1,0,-1
 776 1162 l 1,1,-1
 970 1595 l 1,2,-1
 1578 1595 l 1,3,-1
 1152 782 l 1,4,-1
 1578 0 l 1,5,-1
 931 0 l 1,6,-1
 776 388 l 1,7,-1
 626 0 l 1,8,-1
 -21 0 l 1,9,-1
 401 782 l 1,10,-1
 -21 1595 l 1,11,-1
 587 1595 l 1,0,-1
EndSplineSet
EndChar

StartChar: g
Encoding: 103 103 51
Width: 1505
Flags: W
HStem: -491 256<713.174 824.841> -37 21G<458 531> 1300 23G<458 561 873 1425>
VStem: 63 621<233.5 1067.75> 804 621<233 1069>
LayerCount: 2
Fore
SplineSet
1425 126 m 2,0,1
 1425 56 1425 56 1423 -16.5 c 128,-1,2
 1421 -89 1421 -89 1403.5 -158 c 128,-1,3
 1386 -227 1386 -227 1347.5 -287.5 c 128,-1,4
 1309 -348 1309 -348 1236.5 -393 c 128,-1,5
 1164 -438 1164 -438 1050 -464.5 c 128,-1,6
 936 -491 936 -491 769 -491 c 256,7,8
 602 -491 602 -491 488.5 -473.5 c 128,-1,9
 375 -456 375 -456 302.5 -426 c 128,-1,10
 230 -396 230 -396 192.5 -356 c 128,-1,11
 155 -316 155 -316 138.5 -272 c 128,-1,12
 122 -228 122 -228 120.5 -181.5 c 128,-1,13
 119 -135 119 -135 119 -91 c 1,14,-1
 711 -121 l 1,15,-1
 711 -235 l 1,16,-1
 826 -235 l 1,17,-1
 826 78 l 1,18,19
 805 43 805 43 767 20.5 c 128,-1,20
 729 -2 729 -2 684.5 -14.5 c 128,-1,21
 640 -27 640 -27 594.5 -32 c 128,-1,22
 549 -37 549 -37 513 -37 c 0,23,24
 403 -37 403 -37 326.5 -17.5 c 128,-1,25
 250 2 250 2 200 35 c 128,-1,26
 150 68 150 68 122.5 110.5 c 128,-1,27
 95 153 95 153 81.5 199 c 128,-1,28
 68 245 68 245 65.5 291 c 128,-1,29
 63 337 63 337 63 377 c 2,30,-1
 63 930 l 2,31,32
 63 970 63 970 65.5 1016 c 128,-1,33
 68 1062 68 1062 81.5 1108 c 128,-1,34
 95 1154 95 1154 122.5 1196.5 c 128,-1,35
 150 1239 150 1239 200 1271.5 c 128,-1,36
 250 1304 250 1304 326.5 1323.5 c 128,-1,37
 403 1343 403 1343 513 1343 c 0,38,39
 609 1343 609 1343 673.5 1324.5 c 128,-1,40
 738 1306 738 1306 778 1284 c 0,41,42
 824 1258 824 1258 851 1225 c 1,43,-1
 881 1300 l 1,44,-1
 1425 1300 l 1,45,-1
 1425 126 l 2,0,1
804 1069 m 1,46,-1
 684 1069 l 1,47,-1
 684 233 l 1,48,-1
 804 233 l 1,49,-1
 804 1069 l 1,46,-1
EndSplineSet
EndChar

StartChar: K
Encoding: 75 75 52
Width: 1871
Flags: W
HStem: 0 21G<97 774 1132.1 1905> 1575 20G<97 774 1136.6 1882>
VStem: 97 677<0 470 1034 1595>
LayerCount: 2
Fore
SplineSet
774 0 m 1,0,-1
 97 0 l 1,1,-1
 97 1595 l 1,2,-1
 774 1595 l 1,3,-1
 774 1034 l 1,4,-1
 1150 1595 l 1,5,-1
 1882 1595 l 1,6,-1
 1348 834 l 1,7,-1
 1905 0 l 1,8,-1
 1144 0 l 1,9,-1
 834 521 l 1,10,-1
 774 470 l 1,11,-1
 774 0 l 1,0,-1
EndSplineSet
EndChar

StartChar: y
Encoding: 121 121 53
Width: 1520
Flags: W
HStem: -491 257<702.131 816.446> -37 21G<463 536.5> 1280 20G<78 699 819 1440>
VStem: 78 621<232.062 1300> 819 621<-199.836 78 231 1300>
LayerCount: 2
Fore
SplineSet
1440 1300 m 1,0,-1
 1440 128 l 2,1,2
 1440 48 1440 48 1434 -29 c 128,-1,3
 1428 -106 1428 -106 1405 -174.5 c 128,-1,4
 1382 -243 1382 -243 1338 -301.5 c 128,-1,5
 1294 -360 1294 -360 1217.5 -402 c 128,-1,6
 1141 -444 1141 -444 1027.5 -467.5 c 128,-1,7
 914 -491 914 -491 753 -491 c 0,8,9
 586 -491 586 -491 473 -473.5 c 128,-1,10
 360 -456 360 -456 288 -426 c 128,-1,11
 216 -396 216 -396 179 -356 c 128,-1,12
 142 -316 142 -316 126 -271.5 c 128,-1,13
 110 -227 110 -227 108.5 -180 c 128,-1,14
 107 -133 107 -133 107 -89 c 1,15,-1
 699 -121 l 1,16,-1
 699 -234 l 1,17,-1
 819 -234 l 1,18,-1
 819 78 l 1,19,20
 800 44 800 44 764.5 22 c 128,-1,21
 729 0 729 0 687 -13 c 128,-1,22
 645 -26 645 -26 600 -31.5 c 128,-1,23
 555 -37 555 -37 518 -37 c 0,24,25
 408 -37 408 -37 332.5 -17.5 c 128,-1,26
 257 2 257 2 208 34.5 c 128,-1,27
 159 67 159 67 132.5 110 c 128,-1,28
 106 153 106 153 94 199 c 128,-1,29
 82 245 82 245 80 291 c 128,-1,30
 78 337 78 337 78 377 c 2,31,-1
 78 1300 l 1,32,-1
 699 1300 l 1,33,-1
 699 231 l 1,34,-1
 819 231 l 1,35,-1
 819 1300 l 1,36,-1
 1440 1300 l 1,0,-1
EndSplineSet
EndChar

StartChar: k
Encoding: 107 107 54
Width: 1612
Flags: W
HStem: 0 21G<80 701 1013.71 1634> 1280 20G<973.117 1610> 1690 20G<80 701>
VStem: 80 621<0 348 888 1710>
LayerCount: 2
Fore
SplineSet
80 0 m 1,0,-1
 80 1710 l 1,1,-1
 701 1710 l 1,2,-1
 701 888 l 1,3,-1
 987 1300 l 1,4,-1
 1610 1300 l 1,5,-1
 1253 820 l 1,6,-1
 1634 0 l 1,7,-1
 1022 0 l 1,8,-1
 821 485 l 1,9,-1
 701 348 l 1,10,-1
 701 0 l 1,11,-1
 80 0 l 1,0,-1
EndSplineSet
EndChar

StartChar: F
Encoding: 70 70 55
Width: 1173
Flags: W
HStem: 0 21G<97 773> 705 249<773 1111> 1354 241<773 1136>
VStem: 97 676<0 705 954 1354>
LayerCount: 2
Fore
SplineSet
1136 1595 m 1,0,-1
 1136 1354 l 1,1,-1
 773 1354 l 1,2,-1
 773 954 l 1,3,-1
 1111 954 l 1,4,-1
 1111 705 l 1,5,-1
 773 705 l 1,6,-1
 773 0 l 1,7,-1
 97 0 l 1,8,-1
 97 1595 l 1,9,-1
 1136 1595 l 1,0,-1
EndSplineSet
EndChar

StartChar: N
Encoding: 78 78 56
Width: 1740
Flags: W
HStem: 0 21G<97 570 1009.29 1643> 1575 20G<97 702.615 1170 1643>
VStem: 97 473<0 711> 1170 473<834 1595>
LayerCount: 2
Fore
SplineSet
1022 0 m 1,0,-1
 570 711 l 1,1,-1
 570 0 l 1,2,-1
 97 0 l 1,3,-1
 97 1595 l 1,4,-1
 690 1595 l 1,5,-1
 1170 834 l 1,6,-1
 1170 1595 l 1,7,-1
 1643 1595 l 1,8,-1
 1643 0 l 1,9,-1
 1022 0 l 1,0,-1
EndSplineSet
EndChar

StartChar: Thorn
Encoding: 222 222 62
Width: 1600
Flags: W
HStem: 0 21G<97 769> 250 232<769 884> 1182 231<769 884> 1582 20G<97 769>
VStem: 97 672<0 250 482 1182 1413 1602> 884 669<482.474 1180.88>
LayerCount: 2
Fore
SplineSet
97 1602 m 1,0,-1
 769 1602 l 1,1,-1
 769 1413 l 1,2,-1
 884 1413 l 2,3,4
 1051 1413 1051 1413 1165.5 1395 c 128,-1,5
 1280 1377 1280 1377 1354.5 1347 c 128,-1,6
 1429 1317 1429 1317 1469.5 1277.5 c 128,-1,7
 1510 1238 1510 1238 1528.5 1194.5 c 128,-1,8
 1547 1151 1547 1151 1550 1106.5 c 128,-1,9
 1553 1062 1553 1062 1553 1022 c 2,10,-1
 1553 641 l 2,11,12
 1553 601 1553 601 1550 556.5 c 128,-1,13
 1547 512 1547 512 1528.5 469 c 128,-1,14
 1510 426 1510 426 1469.5 386 c 128,-1,15
 1429 346 1429 346 1354.5 316 c 128,-1,16
 1280 286 1280 286 1165.5 268 c 128,-1,17
 1051 250 1051 250 884 250 c 2,18,-1
 769 250 l 1,19,-1
 769 0 l 1,20,-1
 97 0 l 1,21,-1
 97 1602 l 1,0,-1
769 482 m 1,22,-1
 884 482 l 1,23,-1
 884 1182 l 1,24,-1
 769 1182 l 1,25,-1
 769 482 l 1,22,-1
EndSplineSet
EndChar

StartChar: germandbls
Encoding: 223 223 63
Width: 1482
Flags: W
HStem: -39 21G<717 888> 750 231<680 795> 1364 231<681.98 792.59>
VStem: 78 602<-205 750 981 1363.91> 795 589<1003.95 1363.17> 809 622<195 715.234>
LayerCount: 2
Fore
SplineSet
680 981 m 1,0,-1
 795 981 l 1,1,-1
 795 1364 l 1,2,-1
 680 1364 l 1,3,-1
 680 981 l 1,0,-1
680 -205 m 1,4,-1
 78 -205 l 1,5,-1
 78 1217 l 2,6,7
 78 1256 78 1256 83 1299.5 c 128,-1,8
 88 1343 88 1343 108.5 1385 c 128,-1,9
 129 1427 129 1427 171 1465 c 128,-1,10
 213 1503 213 1503 287 1532 c 128,-1,11
 361 1561 361 1561 473 1578 c 128,-1,12
 585 1595 585 1595 745 1595 c 0,13,14
 901 1595 901 1595 1009.5 1574.5 c 128,-1,15
 1118 1554 1118 1554 1189 1520 c 128,-1,16
 1260 1486 1260 1486 1299.5 1441.5 c 128,-1,17
 1339 1397 1339 1397 1357.5 1350 c 128,-1,18
 1376 1303 1376 1303 1380 1256 c 128,-1,19
 1384 1209 1384 1209 1384 1170 c 0,20,21
 1384 1111 1384 1111 1370 1068.5 c 128,-1,22
 1356 1026 1356 1026 1333 995 c 128,-1,23
 1310 964 1310 964 1281 943.5 c 128,-1,24
 1252 923 1252 923 1222 909 c 0,25,26
 1153 876 1153 876 1062 870 c 1,27,28
 1118 867 1118 867 1183 850.5 c 128,-1,29
 1248 834 1248 834 1303 798 c 128,-1,30
 1358 762 1358 762 1394.5 702.5 c 128,-1,31
 1431 643 1431 643 1431 553 c 2,32,-1
 1431 326 l 2,33,34
 1431 309 1431 309 1431.5 292 c 128,-1,35
 1432 275 1432 275 1432 258 c 0,36,37
 1432 222 1432 222 1426.5 186 c 128,-1,38
 1421 150 1421 150 1400.5 117 c 128,-1,39
 1380 84 1380 84 1340 55.5 c 128,-1,40
 1300 27 1300 27 1231.5 6 c 128,-1,41
 1163 -15 1163 -15 1061.5 -27 c 128,-1,42
 960 -39 960 -39 816 -39 c 2,43,-1
 717 -39 l 1,44,-1
 717 194 l 1,45,-1
 809 194 l 1,46,-1
 809 750 l 1,47,-1
 680 750 l 1,48,-1
 680 -205 l 1,4,-1
EndSplineSet
EndChar

StartChar: OE
Encoding: 338 338 64
Width: 1926
Flags: W
HStem: 0 244<705.06 825 1498 1863> 711 250<1498 1838> 1354 241<704.808 825 1498 1863>
VStem: 81 623<233.522 1363.64> 825 673<244 711 961 1354>
LayerCount: 2
Fore
SplineSet
751 0 m 2,0,1
 584 0 584 0 469 16.5 c 128,-1,2
 354 33 354 33 279.5 61 c 128,-1,3
 205 89 205 89 164.5 125.5 c 128,-1,4
 124 162 124 162 105.5 203.5 c 128,-1,5
 87 245 87 245 84 288 c 128,-1,6
 81 331 81 331 81 371 c 2,7,-1
 81 1227 l 2,8,9
 81 1266 81 1266 84 1308.5 c 128,-1,10
 87 1351 87 1351 105.5 1392 c 128,-1,11
 124 1433 124 1433 164.5 1470 c 128,-1,12
 205 1507 205 1507 279.5 1534.5 c 128,-1,13
 354 1562 354 1562 468.5 1578.5 c 128,-1,14
 583 1595 583 1595 751 1595 c 2,15,-1
 1863 1595 l 1,16,-1
 1863 1354 l 1,17,-1
 1498 1354 l 1,18,-1
 1498 961 l 1,19,-1
 1838 961 l 1,20,-1
 1838 711 l 1,21,-1
 1498 711 l 1,22,-1
 1498 244 l 1,23,-1
 1863 244 l 1,24,-1
 1863 0 l 1,25,-1
 751 0 l 2,0,1
704 233 m 1,26,-1
 825 233 l 1,27,-1
 825 1364 l 1,28,-1
 704 1364 l 1,29,-1
 704 233 l 1,26,-1
EndSplineSet
EndChar

StartChar: Oslash
Encoding: 216 216 70
Width: 1635
Flags: W
HStem: -39 272<753 882.154> 1364 268<753.506 882.154>
VStem: 884 676<233.408 1267>
LayerCount: 2
Fore
SplineSet
1337 1817 m 1,0,-1
 1466 1716 l 1,1,-1
 239 -166 l 1,2,-1
 102 -70 l 1,3,-1
 1337 1817 l 1,0,-1
753 233 m 1,4,-1
 884 233 l 1,5,-1
 884 1364 l 1,6,-1
 753 1364 l 1,7,-1
 753 233 l 1,4,-1
818 -39 m 0,8,9
 641 -39 641 -39 517.5 -19.5 c 128,-1,10
 394 0 394 0 311.5 32 c 128,-1,11
 229 64 229 64 182 106 c 128,-1,12
 135 148 135 148 111.5 193.5 c 128,-1,13
 88 239 88 239 82.5 285 c 128,-1,14
 77 331 77 331 77 371 c 2,15,-1
 77 1227 l 2,16,17
 77 1267 77 1267 82.5 1312.5 c 128,-1,18
 88 1358 88 1358 111.5 1403 c 128,-1,19
 135 1448 135 1448 182 1489.5 c 128,-1,20
 229 1531 229 1531 311.5 1562.5 c 128,-1,21
 394 1594 394 1594 517.5 1613 c 128,-1,22
 641 1632 641 1632 818 1632 c 0,23,24
 994 1632 994 1632 1117.5 1613 c 128,-1,25
 1241 1594 1241 1594 1323.5 1562.5 c 128,-1,26
 1406 1531 1406 1531 1453.5 1489.5 c 128,-1,27
 1501 1448 1501 1448 1524.5 1403 c 128,-1,28
 1548 1358 1548 1358 1554 1312.5 c 128,-1,29
 1560 1267 1560 1267 1560 1227 c 2,30,-1
 1560 371 l 2,31,32
 1560 331 1560 331 1554 285 c 128,-1,33
 1548 239 1548 239 1524.5 193.5 c 128,-1,34
 1501 148 1501 148 1453.5 106 c 128,-1,35
 1406 64 1406 64 1323.5 32 c 128,-1,36
 1241 0 1241 0 1117.5 -19.5 c 128,-1,37
 994 -39 994 -39 818 -39 c 0,8,9
EndSplineSet
EndChar

StartChar: Eth
Encoding: 208 208 71
Width: 1710
Flags: W
HStem: 0 233<822 953> 719 196<49 146 822 905> 1364 231<822 953>
VStem: 146 676<233 719 915 1364> 953 676<233.762 1362.88>
LayerCount: 2
Fore
SplineSet
146 915 m 1,0,-1
 146 1595 l 1,1,-1
 960 1595 l 2,2,3
 1127 1595 1127 1595 1241.5 1577 c 128,-1,4
 1356 1559 1356 1559 1430.5 1529 c 128,-1,5
 1505 1499 1505 1499 1545.5 1459.5 c 128,-1,6
 1586 1420 1586 1420 1604.5 1376.5 c 128,-1,7
 1623 1333 1623 1333 1626 1288.5 c 128,-1,8
 1629 1244 1629 1244 1629 1204 c 2,9,-1
 1629 393 l 2,10,11
 1629 353 1629 353 1626 308.5 c 128,-1,12
 1623 264 1623 264 1604.5 220 c 128,-1,13
 1586 176 1586 176 1545.5 136.5 c 128,-1,14
 1505 97 1505 97 1430.5 66.5 c 128,-1,15
 1356 36 1356 36 1241.5 18 c 128,-1,16
 1127 0 1127 0 960 0 c 2,17,-1
 146 0 l 1,18,-1
 146 719 l 1,19,-1
 49 719 l 1,20,-1
 49 915 l 1,21,-1
 146 915 l 1,0,-1
822 915 m 1,22,-1
 905 915 l 1,23,-1
 905 719 l 1,24,-1
 822 719 l 1,25,-1
 822 233 l 1,26,-1
 953 233 l 1,27,-1
 953 1364 l 1,28,-1
 822 1364 l 1,29,-1
 822 915 l 1,22,-1
EndSplineSet
EndChar

StartChar: AE
Encoding: 198 198 78
Width: 2081
Flags: W
HStem: 0 244<1655 2018> 348 230<831 980> 711 250<1655 1993> 1354 241<1655 2018>
VStem: 980 174<0 1039.36> 980 152<555.64 1595>
LayerCount: 2
Fore
SplineSet
753 348 m 1,0,-1
 635 0 l 1,1,-1
 -30 0 l 1,2,-1
 645 1595 l 1,3,-1
 1132 1595 l 1,4,-1
 1154 0 l 1,5,-1
 980 0 l 1,6,-1
 980 348 l 1,7,-1
 753 348 l 1,0,-1
831 578 m 1,8,-1
 980 578 l 1,9,-1
 980 1001 l 1,10,-1
 831 578 l 1,8,-1
2018 1595 m 1,11,-1
 2018 1354 l 1,12,-1
 1655 1354 l 1,13,-1
 1655 961 l 1,14,-1
 1993 961 l 1,15,-1
 1993 711 l 1,16,-1
 1655 711 l 1,17,-1
 1655 244 l 1,18,-1
 2018 244 l 1,19,-1
 2018 0 l 1,20,-1
 979 0 l 1,21,-1
 979 1595 l 1,22,-1
 2018 1595 l 1,11,-1
EndSplineSet
EndChar

StartChar: oe
Encoding: 339 339 79
Width: 2188
Flags: W
HStem: -23 254<669.203 784.717 1400.09 1516.87> 621 206<1398 1519> 1069 254<668.881 785.367 1399.8 1517.18>
VStem: 60 607<232.009 1068.99> 787 611<231 621 827 1069> 1519 612<232.009 555 827 1068.99>
LayerCount: 2
Fore
SplineSet
2131 555 m 1,0,-1
 2131 369 l 2,1,2
 2131 329 2131 329 2128 284.5 c 128,-1,3
 2125 240 2125 240 2106.5 196.5 c 128,-1,4
 2088 153 2088 153 2047.5 113 c 128,-1,5
 2007 73 2007 73 1932.5 43 c 128,-1,6
 1858 13 1858 13 1743 -5 c 128,-1,7
 1628 -23 1628 -23 1461 -23 c 0,8,9
 1358 -23 1358 -23 1290.5 -11 c 128,-1,10
 1223 1 1223 1 1181.5 18.5 c 128,-1,11
 1140 36 1140 36 1120 57 c 128,-1,12
 1100 78 1100 78 1093 96 c 1,13,14
 1080 77 1080 77 1056.5 56 c 128,-1,15
 1033 35 1033 35 991 17.5 c 128,-1,16
 949 0 949 0 885.5 -11.5 c 128,-1,17
 822 -23 822 -23 730 -23 c 0,18,19
 563 -23 563 -23 448 -5 c 128,-1,20
 333 13 333 13 258.5 43 c 128,-1,21
 184 73 184 73 143.5 113 c 128,-1,22
 103 153 103 153 84.5 196.5 c 128,-1,23
 66 240 66 240 63 284.5 c 128,-1,24
 60 329 60 329 60 369 c 2,25,-1
 60 932 l 2,26,27
 60 972 60 972 63 1016.5 c 128,-1,28
 66 1061 66 1061 84.5 1104.5 c 128,-1,29
 103 1148 103 1148 143.5 1187.5 c 128,-1,30
 184 1227 184 1227 258.5 1257 c 128,-1,31
 333 1287 333 1287 447.5 1305 c 128,-1,32
 562 1323 562 1323 730 1323 c 0,33,34
 828 1323 828 1323 894 1311.5 c 128,-1,35
 960 1300 960 1300 1001.5 1283 c 128,-1,36
 1043 1266 1043 1266 1064 1246.5 c 128,-1,37
 1085 1227 1085 1227 1093 1212 c 1,38,39
 1104 1229 1104 1229 1128 1248.5 c 128,-1,40
 1152 1268 1152 1268 1194.5 1284.5 c 128,-1,41
 1237 1301 1237 1301 1302 1312 c 128,-1,42
 1367 1323 1367 1323 1461 1323 c 0,43,44
 1629 1323 1629 1323 1744 1305 c 128,-1,45
 1859 1287 1859 1287 1933.5 1257 c 128,-1,46
 2008 1227 2008 1227 2048 1187.5 c 128,-1,47
 2088 1148 2088 1148 2106.5 1104.5 c 128,-1,48
 2125 1061 2125 1061 2128 1016.5 c 128,-1,49
 2131 972 2131 972 2131 932 c 2,50,-1
 2127 621 l 1,51,-1
 1398 621 l 1,52,-1
 1398 231 l 1,53,-1
 1519 231 l 1,54,-1
 1519 555 l 1,55,-1
 2131 555 l 1,0,-1
667 231 m 1,56,-1
 787 231 l 1,57,-1
 787 1069 l 1,58,-1
 667 1069 l 1,59,-1
 667 231 l 1,56,-1
1398 827 m 1,60,-1
 1519 827 l 1,61,-1
 1519 1069 l 1,62,-1
 1398 1069 l 1,63,-1
 1398 827 l 1,60,-1
EndSplineSet
EndChar

StartChar: eth
Encoding: 240 240 84
Width: 1428
Flags: W
HStem: -38 274<638.967 761.076> 826 270<635 764>
VStem: 32 603<237.345 824.391> 764 612<303.355 822.061>
DStem2: 275 1274 350 1150 0.839678 0.543085<0 259.625 780.335 993.635>
LayerCount: 2
Fore
SplineSet
493 1415 m 1,0,1
 448 1444 448 1444 405.5 1468.5 c 128,-1,2
 363 1493 363 1493 331 1510 c 0,3,4
 292 1530 292 1530 259 1546 c 1,5,-1
 497 1887 l 1,6,7
 554 1866 554 1866 618 1835 c 0,8,9
 673 1809 673 1809 743.5 1768.5 c 128,-1,10
 814 1728 814 1728 891 1672 c 1,11,-1
 1112 1815 l 1,12,-1
 1188 1692 l 1,13,-1
 1009 1576 l 1,14,15
 1081 1511 1081 1511 1147.5 1431 c 128,-1,16
 1214 1351 1214 1351 1265 1255.5 c 128,-1,17
 1316 1160 1316 1160 1346 1047.5 c 128,-1,18
 1376 935 1376 935 1376 806 c 0,19,20
 1376 653 1376 653 1367.5 531 c 128,-1,21
 1359 409 1359 409 1334.5 315 c 128,-1,22
 1310 221 1310 221 1264.5 154 c 128,-1,23
 1219 87 1219 87 1144.5 44.5 c 128,-1,24
 1070 2 1070 2 962.5 -18 c 128,-1,25
 855 -38 855 -38 707 -38 c 0,26,27
 557 -38 557 -38 448.5 -21 c 128,-1,28
 340 -4 340 -4 265 28.5 c 128,-1,29
 190 61 190 61 144 109 c 128,-1,30
 98 157 98 157 73.5 219.5 c 128,-1,31
 49 282 49 282 40.5 358 c 128,-1,32
 32 434 32 434 32 523 c 0,33,34
 32 604 32 604 38.5 678.5 c 128,-1,35
 45 753 45 753 65.5 816.5 c 128,-1,36
 86 880 86 880 125 931.5 c 128,-1,37
 164 983 164 983 229 1019.5 c 128,-1,38
 294 1056 294 1056 389 1076 c 128,-1,39
 484 1096 484 1096 618 1096 c 2,40,-1
 766 1096 l 1,41,42
 766 1125 766 1125 754.5 1154 c 128,-1,43
 743 1183 743 1183 723 1212 c 128,-1,44
 703 1241 703 1241 676 1269 c 128,-1,45
 649 1297 649 1297 618 1323 c 1,46,-1
 350 1150 l 1,47,-1
 275 1274 l 1,48,-1
 493 1415 l 1,0,1
764 826 m 1,49,-1
 635 826 l 1,50,-1
 635 236 l 1,51,-1
 764 236 l 1,52,-1
 764 826 l 1,49,-1
EndSplineSet
EndChar

StartChar: oslash
Encoding: 248 248 86
Width: 1486
Flags: W
HStem: -39 270<683.168 799.87> 1069 274<682.846 799.87>
DStem2: 105 -23 232 -131 0.620175 0.784463<0 1878.33>
LayerCount: 2
Fore
SplineSet
1279 1462 m 1,0,-1
 1397 1350 l 1,1,-1
 232 -131 l 1,2,-1
 105 -23 l 1,3,-1
 1279 1462 l 1,0,-1
681 231 m 1,4,-1
 801 231 l 1,5,-1
 801 1069 l 1,6,-1
 681 1069 l 1,7,-1
 681 231 l 1,4,-1
744 -39 m 256,8,9
 577 -39 577 -39 461 -21 c 128,-1,10
 345 -3 345 -3 269 27 c 128,-1,11
 193 57 193 57 151 97 c 128,-1,12
 109 137 109 137 88.5 180 c 128,-1,13
 68 223 68 223 64 267.5 c 128,-1,14
 60 312 60 312 60 352 c 2,15,-1
 60 952 l 2,16,17
 60 992 60 992 64 1036.5 c 128,-1,18
 68 1081 68 1081 88.5 1124.5 c 128,-1,19
 109 1168 109 1168 151 1207.5 c 128,-1,20
 193 1247 193 1247 269 1277 c 128,-1,21
 345 1307 345 1307 460.5 1325 c 128,-1,22
 576 1343 576 1343 744 1343 c 0,23,24
 911 1343 911 1343 1026 1325 c 128,-1,25
 1141 1307 1141 1307 1216.5 1277 c 128,-1,26
 1292 1247 1292 1247 1333.5 1207.5 c 128,-1,27
 1375 1168 1375 1168 1394.5 1124.5 c 128,-1,28
 1414 1081 1414 1081 1418 1036.5 c 128,-1,29
 1422 992 1422 992 1422 952 c 2,30,-1
 1422 352 l 2,31,32
 1422 312 1422 312 1418 267.5 c 128,-1,33
 1414 223 1414 223 1394.5 180 c 128,-1,34
 1375 137 1375 137 1333.5 97 c 128,-1,35
 1292 57 1292 57 1216.5 27 c 128,-1,36
 1141 -3 1141 -3 1026 -21 c 128,-1,37
 911 -39 911 -39 744 -39 c 256,8,9
EndSplineSet
EndChar

StartChar: thorn
Encoding: 254 254 87
Width: 1482
Flags: W
HStem: -23 21G<936 1034> 1303 20G<936.5 1034> 1582 20G<80 688>
VStem: 80 608<-409 78 231 1069 1225 1602> 809 610<231.708 1068.31>
LayerCount: 2
Fore
SplineSet
688 1602 m 1,0,-1
 688 1225 l 1,1,2
 696 1240 696 1240 710.5 1257 c 128,-1,3
 725 1274 725 1274 756.5 1289 c 128,-1,4
 788 1304 788 1304 841 1313.5 c 128,-1,5
 894 1323 894 1323 979 1323 c 0,6,7
 1089 1323 1089 1323 1164.5 1303.5 c 128,-1,8
 1240 1284 1240 1284 1289 1251.5 c 128,-1,9
 1338 1219 1338 1219 1364 1176 c 128,-1,10
 1390 1133 1390 1133 1402.5 1087 c 128,-1,11
 1415 1041 1415 1041 1417 995 c 128,-1,12
 1419 949 1419 949 1419 909 c 2,13,-1
 1419 391 l 2,14,15
 1419 352 1419 352 1417 305.5 c 128,-1,16
 1415 259 1415 259 1402.5 213 c 128,-1,17
 1390 167 1390 167 1364 124.5 c 128,-1,18
 1338 82 1338 82 1289 49 c 128,-1,19
 1240 16 1240 16 1164.5 -3.5 c 128,-1,20
 1089 -23 1089 -23 979 -23 c 0,21,22
 893 -23 893 -23 841.5 -13 c 128,-1,23
 790 -3 790 -3 760 12 c 128,-1,24
 730 27 730 27 715 44.5 c 128,-1,25
 700 62 700 62 688 78 c 1,26,-1
 688 -409 l 1,27,-1
 80 -409 l 1,28,-1
 80 1602 l 1,29,-1
 688 1602 l 1,0,-1
688 231 m 1,30,-1
 809 231 l 1,31,-1
 809 1069 l 1,32,-1
 688 1069 l 1,33,-1
 688 231 l 1,30,-1
EndSplineSet
EndChar

StartChar: ae
Encoding: 230 230 97
Width: 2191
Flags: W
HStem: -37 268<651 769.219 1395.58 1508.47> 621 206<1393 1513> 1069 274<700.75 770.531 1394.1 1511.87>
VStem: 30 621<232.001 600.812> 771 622<231 602 827 1069> 1513 621<232.22 531 827 1067.92>
CounterMasks: 1 1c
LayerCount: 2
Fore
SplineSet
2134 531 m 1,0,-1
 2134 354 l 2,1,2
 2134 314 2134 314 2129.5 269.5 c 128,-1,3
 2125 225 2125 225 2104 182 c 128,-1,4
 2083 139 2083 139 2040 99 c 128,-1,5
 1997 59 1997 59 1921 29 c 128,-1,6
 1845 -1 1845 -1 1729.5 -19 c 128,-1,7
 1614 -37 1614 -37 1448 -37 c 0,8,9
 1356 -37 1356 -37 1289 -19 c 128,-1,10
 1222 -1 1222 -1 1177 21 c 0,11,12
 1124 47 1124 47 1088 80 c 1,13,14
 1053 47 1053 47 984 21 c 0,15,16
 925 -1 925 -1 823.5 -19 c 128,-1,17
 722 -37 722 -37 564 -37 c 0,18,19
 454 -37 454 -37 371.5 -19 c 128,-1,20
 289 -1 289 -1 229.5 30 c 128,-1,21
 170 61 170 61 131.5 103 c 128,-1,22
 93 145 93 145 70.5 193.5 c 128,-1,23
 48 242 48 242 39 294.5 c 128,-1,24
 30 347 30 347 30 399 c 0,25,26
 30 441 30 441 32.5 490 c 128,-1,27
 35 539 35 539 48.5 588.5 c 128,-1,28
 62 638 62 638 89.5 683.5 c 128,-1,29
 117 729 117 729 167 764.5 c 128,-1,30
 217 800 217 800 293.5 821 c 128,-1,31
 370 842 370 842 480 842 c 0,32,33
 538 842 538 842 584 836.5 c 128,-1,34
 630 831 630 831 665.5 822 c 128,-1,35
 701 813 701 813 727 802.5 c 128,-1,36
 753 792 753 792 771 782 c 1,37,-1
 771 1069 l 1,38,-1
 697 1069 l 1,39,-1
 697 928 l 1,40,-1
 84 894 l 1,41,42
 84 914 84 914 83.5 935 c 128,-1,43
 83 956 83 956 83 977 c 0,44,45
 83 1020 83 1020 90.5 1064.5 c 128,-1,46
 98 1109 98 1109 121 1149.5 c 128,-1,47
 144 1190 144 1190 187 1225.5 c 128,-1,48
 230 1261 230 1261 301.5 1287 c 128,-1,49
 373 1313 373 1313 476 1328 c 128,-1,50
 579 1343 579 1343 723 1343 c 0,51,52
 822 1343 822 1343 889.5 1330 c 128,-1,53
 957 1317 957 1317 1000 1301 c 0,54,55
 1050 1283 1050 1283 1081 1259 c 1,56,57
 1116 1283 1116 1283 1170 1301 c 0,58,59
 1216 1317 1216 1317 1286.5 1330 c 128,-1,60
 1357 1343 1357 1343 1456 1343 c 0,61,62
 1623 1343 1623 1343 1738 1325 c 128,-1,63
 1853 1307 1853 1307 1928.5 1277 c 128,-1,64
 2004 1247 2004 1247 2045.5 1207.5 c 128,-1,65
 2087 1168 2087 1168 2106.5 1125 c 128,-1,66
 2126 1082 2126 1082 2130 1037.5 c 128,-1,67
 2134 993 2134 993 2134 954 c 2,68,-1
 2134 621 l 1,69,-1
 1393 621 l 1,70,-1
 1393 231 l 1,71,-1
 1513 231 l 1,72,-1
 1513 531 l 1,73,-1
 2134 531 l 1,0,-1
651 602 m 1,74,-1
 651 231 l 1,75,-1
 771 231 l 1,76,-1
 771 602 l 1,77,-1
 651 602 l 1,74,-1
1393 827 m 1,78,-1
 1513 827 l 1,79,-1
 1513 1069 l 1,80,-1
 1393 1069 l 1,81,-1
 1393 827 l 1,78,-1
EndSplineSet
EndChar

StartChar: guilsinglleft
Encoding: 8249 8249 98
Width: 1050
Flags: W
HStem: 0 21G<937.881 976> 1575 20G<938.495 976>
VStem: 44 293<489 1098>
LayerCount: 2
Fore
SplineSet
44 1098 m 1,0,-1
 976 1595 l 1,1,-1
 976 1090 l 1,2,-1
 337 797 l 1,3,-1
 976 504 l 1,4,-1
 976 0 l 1,5,-1
 44 489 l 1,6,-1
 44 1098 l 1,0,-1
EndSplineSet
EndChar

StartChar: multiply
Encoding: 215 215 103
Width: 1358
Flags: W
DStem2: 404 1294 34 924 0.707491 -0.706722<0 387.917 912.168 1300.08> 34 375 404 4 0.707107 0.707107<0 387.495 912.168 1299.66>
LayerCount: 2
Fore
SplineSet
1324 924 m 1,0,-1
 1049 649 l 1,1,-1
 1324 375 l 1,2,-1
 953 4 l 1,3,-1
 679 279 l 1,4,-1
 404 4 l 1,5,-1
 34 375 l 1,6,-1
 308 649 l 1,7,-1
 34 924 l 1,8,-1
 404 1294 l 1,9,-1
 679 1020 l 1,10,-1
 953 1294 l 1,11,-1
 1324 924 l 1,0,-1
EndSplineSet
EndChar

StartChar: divide
Encoding: 247 247 115
Width: 1312
Flags: W
HStem: 92 467<386 925> 670 238<38 1274> 1000 497<386 925>
VStem: 386 539<92 559 1000 1497>
LayerCount: 2
Fore
SplineSet
925 92 m 1,0,-1
 386 92 l 1,1,-1
 386 559 l 1,2,-1
 925 559 l 1,3,-1
 925 92 l 1,0,-1
925 1000 m 1,4,-1
 386 1000 l 1,5,-1
 386 1497 l 1,6,-1
 925 1497 l 1,7,-1
 925 1000 l 1,4,-1
1274 908 m 1,8,-1
 1274 670 l 1,9,-1
 38 670 l 1,10,-1
 38 908 l 1,11,-1
 1274 908 l 1,8,-1
EndSplineSet
EndChar

StartChar: uniFB01
Encoding: 64257 64257 118
Width: 1818
Flags: W
HStem: 0 21G<190 811 1117 1738> 1098 202<10 190 811 1117> 1393 316<1117 1738> 1477 232<811 1117>
VStem: 190 621<0 1098 1300 1475.43> 1117 621<0 1098 1393 1477>
LayerCount: 2
Fore
SplineSet
1738 0 m 1,0,-1
 1117 0 l 1,1,-1
 1117 1098 l 1,2,-1
 811 1098 l 1,3,-1
 811 0 l 1,4,-1
 190 0 l 1,5,-1
 190 1098 l 1,6,-1
 10 1098 l 1,7,-1
 10 1300 l 1,8,-1
 190 1300 l 1,9,-1
 190 1317 l 2,10,11
 190 1420 190 1420 215 1494.5 c 128,-1,12
 240 1569 240 1569 303 1616.5 c 128,-1,13
 366 1664 366 1664 473 1686.5 c 128,-1,14
 580 1709 580 1709 744 1709 c 2,15,-1
 1738 1709 l 1,16,-1
 1738 1393 l 1,17,-1
 1117 1393 l 1,18,-1
 1117 1477 l 1,19,-1
 811 1477 l 1,20,-1
 811 1300 l 1,21,-1
 1738 1300 l 1,22,-1
 1738 0 l 1,0,-1
EndSplineSet
EndChar

StartChar: uniFB02
Encoding: 64258 64258 119
Width: 1822
Flags: W
HStem: 0 21G<190 811 1121 1742> 1098 202<10 190 811 1121> 1477 234<811 1121>
VStem: 190 621<0 1098 1300 1475.43> 1121 621<0 1098 1300 1477>
LayerCount: 2
Fore
SplineSet
1742 0 m 1,0,-1
 1121 0 l 1,1,-1
 1121 1098 l 1,2,-1
 811 1098 l 1,3,-1
 811 0 l 1,4,-1
 190 0 l 1,5,-1
 190 1098 l 1,6,-1
 10 1098 l 1,7,-1
 10 1300 l 1,8,-1
 190 1300 l 1,9,-1
 190 1317 l 2,10,11
 190 1420 190 1420 215 1494.5 c 128,-1,12
 240 1569 240 1569 303 1617 c 128,-1,13
 366 1665 366 1665 473 1688 c 128,-1,14
 580 1711 580 1711 744 1711 c 2,15,-1
 1742 1710 l 1,16,-1
 1742 0 l 1,0,-1
811 1300 m 1,17,-1
 1121 1300 l 1,18,-1
 1121 1477 l 1,19,-1
 811 1477 l 1,20,-1
 811 1300 l 1,17,-1
EndSplineSet
EndChar

StartChar: Lslash
Encoding: 321 321 120
Width: 1566
Flags: W
HStem: 0 244<1038 1401> 1575 20G<362 1038>
VStem: 362 676<244 1595>
DStem2: 29 750 29 410 0.915315 0.402739<0 1500.82>
LayerCount: 2
Fore
SplineSet
1527 1072 m 1,0,-1
 29 410 l 1,1,-1
 29 750 l 1,2,-1
 1529 1410 l 1,3,-1
 1527 1072 l 1,0,-1
362 0 m 1,4,-1
 362 1595 l 1,5,-1
 1038 1595 l 1,6,-1
 1038 244 l 1,7,-1
 1401 244 l 1,8,-1
 1401 0 l 1,9,-1
 362 0 l 1,4,-1
EndSplineSet
EndChar

StartChar: lslash
Encoding: 322 322 121
Width: 1124
Flags: W
HStem: 0 21G<242 863> 1690 20G<242 863>
VStem: 242 621<0 1710>
DStem2: 14 788 14 539 0.915352 0.402655<0 1097.85>
LayerCount: 2
Fore
SplineSet
1110 1023 m 1,0,-1
 14 539 l 1,1,-1
 14 788 l 1,2,-1
 1112 1271 l 1,3,-1
 1110 1023 l 1,0,-1
863 0 m 1,4,-1
 242 0 l 1,5,-1
 242 1710 l 1,6,-1
 863 1710 l 1,7,-1
 863 0 l 1,4,-1
EndSplineSet
EndChar

StartChar: exclam
Encoding: 33 33 124
Width: 780
Flags: W
HStem: 0 397<87 693> 1584 20G<87 693>
VStem: 87 606<0 397>
LayerCount: 2
Fore
SplineSet
636 492 m 1,0,-1
 147 492 l 1,1,-1
 87 1604 l 1,2,-1
 693 1604 l 1,3,-1
 636 492 l 1,0,-1
87 0 m 1,4,-1
 87 397 l 1,5,-1
 693 397 l 1,6,-1
 693 0 l 1,7,-1
 87 0 l 1,4,-1
EndSplineSet
EndChar

StartChar: quotedbl
Encoding: 34 34 125
Width: 1228
Flags: W
HStem: 798 806<134 473 755 1094>
LayerCount: 2
Fore
SplineSet
473 798 m 1,0,-1
 134 798 l 1,1,-1
 34 1604 l 1,2,-1
 573 1604 l 1,3,-1
 473 798 l 1,0,-1
1094 798 m 1,4,-1
 755 798 l 1,5,-1
 655 1604 l 1,6,-1
 1194 1604 l 1,7,-1
 1094 798 l 1,4,-1
EndSplineSet
EndChar

StartChar: numbersign
Encoding: 35 35 126
Width: 1804
Flags: W
HStem: 0 21G<136 715.01 835 1414> 299 431<101 181 822 880 1521 1632> 872 432<173 269 910 968 1609 1704> 1575 20G<376.976 954 1075.91 1653>
LayerCount: 2
Fore
SplineSet
1632 300 m 1,0,-1
 1456 300 l 1,1,-1
 1411 0 l 1,2,-1
 835 0 l 1,3,-1
 880 299 l 1,4,-1
 757 299 l 1,5,-1
 712 0 l 1,6,-1
 136 0 l 1,7,-1
 181 299 l 1,8,-1
 39 299 l 1,9,-1
 101 730 l 1,10,-1
 248 730 l 1,11,-1
 269 872 l 1,12,-1
 111 872 l 1,13,-1
 173 1304 l 1,14,-1
 336 1304 l 1,15,-1
 380 1595 l 1,16,-1
 954 1595 l 1,17,-1
 910 1304 l 1,18,-1
 1034 1304 l 1,19,-1
 1079 1595 l 1,20,-1
 1653 1595 l 1,21,-1
 1609 1304 l 1,22,-1
 1767 1304 l 1,23,-1
 1704 873 l 1,24,-1
 1543 873 l 1,25,-1
 1521 730 l 1,26,-1
 1694 730 l 1,27,-1
 1632 300 l 1,0,-1
822 730 m 1,28,-1
 946 730 l 1,29,-1
 968 872 l 1,30,-1
 844 872 l 1,31,-1
 822 730 l 1,28,-1
EndSplineSet
EndChar

StartChar: dollar
Encoding: 36 36 127
Width: 1572
Flags: W
VStem: 49 676<233.116 533 1081.69 1361.42> 504 600<-248 -9.7207 1608.62 1843>
LayerCount: 2
Fore
SplineSet
725 1106 m 2,0,1
 725 1090 725 1090 759.5 1083.5 c 128,-1,2
 794 1077 794 1077 851 1071.5 c 128,-1,3
 908 1066 908 1066 980.5 1058 c 128,-1,4
 1053 1050 1053 1050 1128.5 1032 c 128,-1,5
 1204 1014 1204 1014 1276.5 982 c 128,-1,6
 1349 950 1349 950 1406 897 c 128,-1,7
 1463 844 1463 844 1497.5 766 c 128,-1,8
 1532 688 1532 688 1532 578 c 0,9,10
 1532 512 1532 512 1528.5 447.5 c 128,-1,11
 1525 383 1525 383 1511.5 323.5 c 128,-1,12
 1498 264 1498 264 1471 210.5 c 128,-1,13
 1444 157 1444 157 1396.5 113 c 128,-1,14
 1349 69 1349 69 1277.5 36 c 128,-1,15
 1206 3 1206 3 1104 -16 c 1,16,-1
 1104 -248 l 1,17,-1
 504 -248 l 1,18,-1
 504 -17 l 1,19,20
 403 -1 403 -1 330 24.5 c 128,-1,21
 257 50 257 50 206 82 c 128,-1,22
 155 114 155 114 124.5 151 c 128,-1,23
 94 188 94 188 77 226 c 128,-1,24
 60 264 60 264 54.5 301 c 128,-1,25
 49 338 49 338 49 371 c 2,26,-1
 49 533 l 1,27,-1
 725 533 l 1,28,-1
 725 233 l 1,29,-1
 856 233 l 1,30,-1
 856 553 l 2,31,32
 856 568 856 568 821.5 578.5 c 128,-1,33
 787 589 787 589 730 601 c 128,-1,34
 673 613 673 613 600.5 627.5 c 128,-1,35
 528 642 528 642 452.5 664.5 c 128,-1,36
 377 687 377 687 304.5 719.5 c 128,-1,37
 232 752 232 752 175 800 c 128,-1,38
 118 848 118 848 83.5 912.5 c 128,-1,39
 49 977 49 977 49 1064 c 0,40,41
 49 1195 49 1195 69.5 1291 c 128,-1,42
 90 1387 90 1387 141.5 1453 c 128,-1,43
 193 1519 193 1519 281 1558 c 128,-1,44
 369 1597 369 1597 504 1615 c 1,45,-1
 504 1843 l 1,46,-1
 1104 1843 l 1,47,-1
 1104 1612 l 1,48,49
 1195 1597 1195 1597 1258.5 1573.5 c 128,-1,50
 1322 1550 1322 1550 1364 1520.5 c 128,-1,51
 1406 1491 1406 1491 1430.5 1456.5 c 128,-1,52
 1455 1422 1455 1422 1467 1386.5 c 128,-1,53
 1479 1351 1479 1351 1482 1315.5 c 128,-1,54
 1485 1280 1485 1280 1485 1247 c 2,55,-1
 1485 1128 l 1,56,-1
 856 1128 l 1,57,-1
 856 1364 l 1,58,-1
 725 1364 l 1,59,-1
 725 1106 l 2,0,1
EndSplineSet
EndChar

StartChar: percent
Encoding: 37 37 128
Width: 2902
Flags: W
HStem: -40 21G<982 1525.69> 75 215<2277.52 2370.4> 454 215<532.522 625.398> 955 219<2277.52 2370.4> 1334 219<532.522 625.398>
VStem: 46 486<669.918 1333.91> 628 481<669.918 1333.91> 982 539<-40 499> 1386 536<1134 1670> 1791 486<290.842 954.788> 2373 481<290.842 954.788>
DStem2: 982 -40 1521 -40 0.229927 0.973208<123.931 1757.08>
LayerCount: 2
Fore
SplineSet
628 1334 m 1,0,-1
 532 1334 l 1,1,-1
 532 669 l 1,2,-1
 628 669 l 1,3,-1
 628 1334 l 1,0,-1
577 454 m 256,4,5
 444 454 444 454 353 468 c 128,-1,6
 262 482 262 482 203 506 c 128,-1,7
 144 530 144 530 112 561.5 c 128,-1,8
 80 593 80 593 65.5 627.5 c 128,-1,9
 51 662 51 662 48.5 697.5 c 128,-1,10
 46 733 46 733 46 765 c 2,11,-1
 46 1244 l 2,12,13
 46 1276 46 1276 48.5 1311 c 128,-1,14
 51 1346 51 1346 65.5 1380.5 c 128,-1,15
 80 1415 80 1415 112 1446 c 128,-1,16
 144 1477 144 1477 203 1501 c 128,-1,17
 262 1525 262 1525 353 1539 c 128,-1,18
 444 1553 444 1553 577 1553 c 256,19,20
 710 1553 710 1553 801 1539 c 128,-1,21
 892 1525 892 1525 951 1501 c 128,-1,22
 1010 1477 1010 1477 1042.5 1446 c 128,-1,23
 1075 1415 1075 1415 1089.5 1380.5 c 128,-1,24
 1104 1346 1104 1346 1106.5 1311 c 128,-1,25
 1109 1276 1109 1276 1109 1244 c 2,26,-1
 1109 765 l 2,27,28
 1109 733 1109 733 1106.5 697.5 c 128,-1,29
 1104 662 1104 662 1089.5 627.5 c 128,-1,30
 1075 593 1075 593 1042.5 561.5 c 128,-1,31
 1010 530 1010 530 951 506 c 128,-1,32
 892 482 892 482 801 468 c 128,-1,33
 710 454 710 454 577 454 c 256,4,5
2373 955 m 1,34,-1
 2277 955 l 1,35,-1
 2277 290 l 1,36,-1
 2373 290 l 1,37,-1
 2373 955 l 1,34,-1
2322 75 m 256,38,39
 2189 75 2189 75 2098 89 c 128,-1,40
 2007 103 2007 103 1948 127 c 128,-1,41
 1889 151 1889 151 1857 182 c 128,-1,42
 1825 213 1825 213 1810.5 248 c 128,-1,43
 1796 283 1796 283 1793.5 318.5 c 128,-1,44
 1791 354 1791 354 1791 386 c 2,45,-1
 1791 863 l 2,46,47
 1791 895 1791 895 1793.5 930.5 c 128,-1,48
 1796 966 1796 966 1810.5 1000.5 c 128,-1,49
 1825 1035 1825 1035 1857 1066.5 c 128,-1,50
 1889 1098 1889 1098 1948 1122 c 128,-1,51
 2007 1146 2007 1146 2098 1160 c 128,-1,52
 2189 1174 2189 1174 2322 1174 c 256,53,54
 2455 1174 2455 1174 2546 1160 c 128,-1,55
 2637 1146 2637 1146 2696 1122 c 128,-1,56
 2755 1098 2755 1098 2787.5 1066.5 c 128,-1,57
 2820 1035 2820 1035 2834.5 1000.5 c 128,-1,58
 2849 966 2849 966 2851.5 930.5 c 128,-1,59
 2854 895 2854 895 2854 863 c 2,60,-1
 2854 386 l 2,61,62
 2854 354 2854 354 2851.5 318.5 c 128,-1,63
 2849 283 2849 283 2834.5 248 c 128,-1,64
 2820 213 2820 213 2787.5 182 c 128,-1,65
 2755 151 2755 151 2696 127 c 128,-1,66
 2637 103 2637 103 2546 89 c 128,-1,67
 2455 75 2455 75 2322 75 c 256,38,39
1922 1670 m 1,68,-1
 1521 -40 l 1,69,-1
 982 -40 l 1,70,-1
 1386 1670 l 1,71,-1
 1922 1670 l 1,68,-1
EndSplineSet
EndChar

StartChar: ampersand
Encoding: 38 38 129
Width: 1688
Flags: W
HStem: -38 274<695.041 911.21> 728 224<691 914 1512 1673> 1154 444.5<911.134 1374.23> 1364 271<692.647 910>
VStem: 68 623<237.145 727.07 952.911 1363.44> 914 598<238.302 728 952 1080 1154 1362.72>
LayerCount: 2
Fore
SplineSet
910 1154 m 1,0,-1
 910 1364 l 1,1,-1
 691 1364 l 1,2,-1
 691 952 l 1,3,-1
 914 952 l 1,4,-1
 914 1080 l 1,5,-1
 1512 1080 l 1,6,-1
 1512 952 l 1,7,-1
 1673 952 l 1,8,-1
 1673 728 l 1,9,-1
 1512 728 l 1,10,-1
 1512 635 l 2,11,12
 1512 503 1512 503 1503 402 c 128,-1,13
 1494 301 1494 301 1467.5 226.5 c 128,-1,14
 1441 152 1441 152 1392.5 101 c 128,-1,15
 1344 50 1344 50 1264 19.5 c 128,-1,16
 1184 -11 1184 -11 1068.5 -24.5 c 128,-1,17
 953 -38 953 -38 793 -38 c 0,18,19
 629 -38 629 -38 511.5 -25 c 128,-1,20
 394 -12 394 -12 313.5 16 c 128,-1,21
 233 44 233 44 184.5 89 c 128,-1,22
 136 134 136 134 110 199 c 128,-1,23
 84 264 84 264 76 349 c 128,-1,24
 68 434 68 434 68 543 c 0,25,26
 68 602 68 602 78 646.5 c 128,-1,27
 88 691 88 691 103 724 c 128,-1,28
 118 757 118 757 136 779 c 128,-1,29
 154 801 154 801 170 814 c 128,-1,30
 186 827 186 827 197 833 c 128,-1,31
 208 839 208 839 210 840 c 1,32,33
 208 841 208 841 197 847 c 128,-1,34
 186 853 186 853 170 867 c 128,-1,35
 154 881 154 881 136 903 c 128,-1,36
 118 925 118 925 103 958 c 128,-1,37
 88 991 88 991 78 1035 c 128,-1,38
 68 1079 68 1079 68 1137 c 0,39,40
 68 1239 68 1239 81 1315.5 c 128,-1,41
 94 1392 94 1392 126 1447.5 c 128,-1,42
 158 1503 158 1503 211.5 1539 c 128,-1,43
 265 1575 265 1575 345.5 1596.5 c 128,-1,44
 426 1618 426 1618 536.5 1626.5 c 128,-1,45
 647 1635 647 1635 793 1635 c 0,46,47
 953 1635 953 1635 1068 1627 c 128,-1,48
 1183 1619 1183 1619 1262.5 1598.5 c 128,-1,49
 1342 1578 1342 1578 1390 1543 c 128,-1,50
 1438 1508 1438 1508 1464.5 1454.5 c 128,-1,51
 1491 1401 1491 1401 1499.5 1327 c 128,-1,52
 1508 1253 1508 1253 1508 1154 c 1,53,-1
 910 1154 l 1,0,-1
914 236 m 1,54,-1
 914 728 l 1,55,-1
 691 728 l 1,56,-1
 691 236 l 1,57,-1
 914 236 l 1,54,-1
EndSplineSet
EndChar

StartChar: quotesingle
Encoding: 39 39 130
Width: 607
Flags: W
HStem: 1584 20G<34 573>
VStem: 34 539
LayerCount: 2
Fore
SplineSet
473 798 m 1,0,-1
 134 798 l 1,1,-1
 34 1604 l 1,2,-1
 573 1604 l 1,3,-1
 473 798 l 1,0,-1
EndSplineSet
EndChar

StartChar: parenleft
Encoding: 40 40 131
Width: 933
Flags: W
HStem: -330 279<782.62 995> 1657 278<782.62 995>
VStem: 57 602<266.722 1338.6>
LayerCount: 2
Fore
SplineSet
57 803 m 256,0,1
 57 1068 57 1068 86 1254.5 c 128,-1,2
 115 1441 115 1441 170.5 1567 c 128,-1,3
 226 1693 226 1693 307 1766 c 128,-1,4
 388 1839 388 1839 492 1876.5 c 128,-1,5
 596 1914 596 1914 722.5 1924.5 c 128,-1,6
 849 1935 849 1935 995 1935 c 1,7,-1
 995 1657 l 1,8,9
 934 1657 934 1657 885 1652.5 c 128,-1,10
 836 1648 836 1648 798.5 1624 c 128,-1,11
 761 1600 761 1600 734.5 1548 c 128,-1,12
 708 1496 708 1496 691.5 1401 c 128,-1,13
 675 1306 675 1306 667 1160.5 c 128,-1,14
 659 1015 659 1015 659 803 c 256,15,16
 659 591 659 591 667 445.5 c 128,-1,17
 675 300 675 300 691.5 205 c 128,-1,18
 708 110 708 110 734.5 58 c 128,-1,19
 761 6 761 6 798.5 -18 c 128,-1,20
 836 -42 836 -42 884.5 -46.5 c 128,-1,21
 933 -51 933 -51 995 -51 c 1,22,-1
 995 -330 l 1,23,24
 849 -330 849 -330 722.5 -319.5 c 128,-1,25
 596 -309 596 -309 492 -271.5 c 128,-1,26
 388 -234 388 -234 307 -160.5 c 128,-1,27
 226 -87 226 -87 170.5 38.5 c 128,-1,28
 115 164 115 164 86 351 c 128,-1,29
 57 538 57 538 57 803 c 256,0,1
EndSplineSet
EndChar

StartChar: parenright
Encoding: 41 41 132
Width: 933
Flags: W
HStem: -330 279<-62 150.38> 1657 278<-62 150.38>
VStem: 274 602<266.722 1338.6>
LayerCount: 2
Fore
SplineSet
876 803 m 256,0,1
 876 538 876 538 847 351 c 128,-1,2
 818 164 818 164 762.5 38.5 c 128,-1,3
 707 -87 707 -87 626 -160.5 c 128,-1,4
 545 -234 545 -234 441 -271.5 c 128,-1,5
 337 -309 337 -309 210.5 -319.5 c 128,-1,6
 84 -330 84 -330 -62 -330 c 1,7,-1
 -62 -51 l 1,8,9
 0 -51 0 -51 48.5 -46.5 c 128,-1,10
 97 -42 97 -42 134.5 -18 c 128,-1,11
 172 6 172 6 198.5 58 c 128,-1,12
 225 110 225 110 241.5 205 c 128,-1,13
 258 300 258 300 266 445.5 c 128,-1,14
 274 591 274 591 274 803 c 256,15,16
 274 1015 274 1015 266 1160.5 c 128,-1,17
 258 1306 258 1306 241.5 1401 c 128,-1,18
 225 1496 225 1496 198.5 1548 c 128,-1,19
 172 1600 172 1600 134.5 1624 c 128,-1,20
 97 1648 97 1648 48 1652.5 c 128,-1,21
 -1 1657 -1 1657 -62 1657 c 1,22,-1
 -62 1935 l 1,23,24
 84 1935 84 1935 210.5 1924.5 c 128,-1,25
 337 1914 337 1914 441 1876.5 c 128,-1,26
 545 1839 545 1839 626 1766 c 128,-1,27
 707 1693 707 1693 762.5 1567 c 128,-1,28
 818 1441 818 1441 847 1254.5 c 128,-1,29
 876 1068 876 1068 876 803 c 256,0,1
EndSplineSet
EndChar

StartChar: asterisk
Encoding: 42 42 133
Width: 1343
Flags: W
HStem: 1581 20G<506.346 546.471 795.529 835.654>
LayerCount: 2
Fore
SplineSet
574 346 m 1,0,-1
 160 478 l 1,1,-1
 370 791 l 1,2,-1
 43 733 l 1,3,-1
 43 1164 l 1,4,-1
 370 1097 l 1,5,-1
 136 1347 l 1,6,-1
 538 1601 l 1,7,-1
 671 1287 l 1,8,-1
 804 1601 l 1,9,-1
 1206 1347 l 1,10,-1
 972 1097 l 1,11,-1
 1299 1164 l 1,12,-1
 1299 733 l 1,13,-1
 972 791 l 1,14,-1
 1182 478 l 1,15,-1
 768 346 l 1,16,-1
 671 647 l 1,17,-1
 574 346 l 1,0,-1
EndSplineSet
EndChar

StartChar: plus
Encoding: 43 43 134
Width: 1343
Flags: W
HStem: 0 21G<410 934> 408 483<43 410 934 1300>
VStem: 410 524<0 408 891 1298>
LayerCount: 2
Fore
SplineSet
410 891 m 1,0,-1
 410 1298 l 1,1,-1
 934 1298 l 1,2,-1
 934 891 l 1,3,-1
 1300 891 l 1,4,-1
 1300 408 l 1,5,-1
 934 408 l 1,6,-1
 934 0 l 1,7,-1
 410 0 l 1,8,-1
 410 408 l 1,9,-1
 43 408 l 1,10,-1
 43 891 l 1,11,-1
 410 891 l 1,0,-1
EndSplineSet
EndChar

StartChar: comma
Encoding: 44 44 135
Width: 727
Flags: W
HStem: -367 199<102 231.358>
VStem: 74 579<3.31689 487>
LayerCount: 2
Fore
SplineSet
102 -168 m 1,0,1
 164 -156 164 -156 212 -133 c 0,2,3
 233 -123 233 -123 252.5 -110.5 c 128,-1,4
 272 -98 272 -98 287.5 -81.5 c 128,-1,5
 303 -65 303 -65 312.5 -44.5 c 128,-1,6
 322 -24 322 -24 322 0 c 1,7,-1
 74 0 l 1,8,-1
 74 487 l 1,9,-1
 653 487 l 1,10,-1
 653 150 l 2,11,12
 653 -2 653 -2 615.5 -101.5 c 128,-1,13
 578 -201 578 -201 506.5 -260 c 128,-1,14
 435 -319 435 -319 333 -343 c 128,-1,15
 231 -367 231 -367 102 -367 c 1,16,-1
 102 -168 l 1,0,1
EndSplineSet
EndChar

StartChar: hyphen
Encoding: 45 45 136
Width: 1005
Flags: W
HStem: 461 436<59 946>
LayerCount: 2
Fore
SplineSet
946 897 m 1,0,-1
 946 461 l 1,1,-1
 59 461 l 1,2,-1
 59 897 l 1,3,-1
 946 897 l 1,0,-1
EndSplineSet
EndChar

StartChar: zero
Encoding: 48 48 138
Width: 1496
Flags: W
HStem: -39 270<687.203 803.855> 1359 274<686.881 803.855>
VStem: 78 607<231.591 1358.36> 805 611<231.591 1358.36>
LayerCount: 2
Fore
SplineSet
685 231 m 1,0,-1
 805 231 l 1,1,-1
 805 1359 l 1,2,-1
 685 1359 l 1,3,-1
 685 231 l 1,0,-1
748 -39 m 256,4,5
 581 -39 581 -39 466 -21 c 128,-1,6
 351 -3 351 -3 276.5 27 c 128,-1,7
 202 57 202 57 161.5 97 c 128,-1,8
 121 137 121 137 102.5 180 c 128,-1,9
 84 223 84 223 81 267.5 c 128,-1,10
 78 312 78 312 78 352 c 2,11,-1
 78 1242 l 2,12,13
 78 1282 78 1282 81 1326.5 c 128,-1,14
 84 1371 84 1371 102.5 1414.5 c 128,-1,15
 121 1458 121 1458 161.5 1497.5 c 128,-1,16
 202 1537 202 1537 276.5 1567 c 128,-1,17
 351 1597 351 1597 465.5 1615 c 128,-1,18
 580 1633 580 1633 748 1633 c 0,19,20
 915 1633 915 1633 1029.5 1615 c 128,-1,21
 1144 1597 1144 1597 1218 1567 c 128,-1,22
 1292 1537 1292 1537 1332.5 1497.5 c 128,-1,23
 1373 1458 1373 1458 1391.5 1414.5 c 128,-1,24
 1410 1371 1410 1371 1413 1326.5 c 128,-1,25
 1416 1282 1416 1282 1416 1242 c 2,26,-1
 1416 352 l 2,27,28
 1416 312 1416 312 1413 267.5 c 128,-1,29
 1410 223 1410 223 1391.5 180 c 128,-1,30
 1373 137 1373 137 1332.5 97 c 128,-1,31
 1292 57 1292 57 1218 27 c 128,-1,32
 1144 -3 1144 -3 1029.5 -21 c 128,-1,33
 915 -39 915 -39 748 -39 c 256,4,5
EndSplineSet
EndChar

StartChar: one
Encoding: 49 49 139
Width: 990
Flags: W
HStem: 0 21G<218 894> 1351 244<16 218>
VStem: 218 676<0 1351>
LayerCount: 2
Fore
SplineSet
894 1595 m 1,0,-1
 894 0 l 1,1,-1
 218 0 l 1,2,-1
 218 1351 l 1,3,-1
 16 1351 l 1,4,-1
 16 1595 l 1,5,-1
 894 1595 l 1,0,-1
EndSplineSet
EndChar

StartChar: two
Encoding: 50 50 140
Width: 1430
Flags: W
HStem: 0 300<652 1326> 1358 274<652.421 774.619>
VStem: 63 589<300 416.227 1064 1356.78> 775 613<1016.53 1357.24>
LayerCount: 2
Fore
SplineSet
64 1064 m 1,0,1
 64 1128 64 1128 67.5 1186 c 128,-1,2
 71 1244 71 1244 82 1296 c 128,-1,3
 93 1348 93 1348 112.5 1393 c 128,-1,4
 132 1438 132 1438 165 1475 c 256,5,6
 198 1512 198 1512 246 1541.5 c 128,-1,7
 294 1571 294 1571 360.5 1591 c 128,-1,8
 427 1611 427 1611 514.5 1621.5 c 128,-1,9
 602 1632 602 1632 713 1632 c 0,10,11
 858 1632 858 1632 965 1615 c 128,-1,12
 1072 1598 1072 1598 1147 1566 c 128,-1,13
 1222 1534 1222 1534 1269 1488.5 c 128,-1,14
 1316 1443 1316 1443 1342.5 1385 c 128,-1,15
 1369 1327 1369 1327 1378.5 1258.5 c 128,-1,16
 1388 1190 1388 1190 1388 1112 c 0,17,18
 1388 971 1388 971 1356.5 875.5 c 128,-1,19
 1325 780 1325 780 1273 717 c 128,-1,20
 1221 654 1221 654 1155 617 c 128,-1,21
 1089 580 1089 580 1020 555.5 c 128,-1,22
 951 531 951 531 885 513 c 128,-1,23
 819 495 819 495 767 469.5 c 128,-1,24
 715 444 715 444 683.5 405 c 128,-1,25
 652 366 652 366 652 300 c 1,26,-1
 1326 300 l 1,27,-1
 1326 0 l 1,28,-1
 63 0 l 1,29,-1
 63 302 l 2,30,31
 63 457 63 457 93.5 567 c 128,-1,32
 124 677 124 677 174 752.5 c 128,-1,33
 224 828 224 828 288 873.5 c 128,-1,34
 352 919 352 919 419 945 c 128,-1,35
 486 971 486 971 550 983 c 128,-1,36
 614 995 614 995 664 1002.5 c 128,-1,37
 714 1010 714 1010 744.5 1019 c 128,-1,38
 775 1028 775 1028 775 1048 c 2,39,-1
 775 1358 l 1,40,-1
 652 1358 l 1,41,-1
 652 1064 l 1,42,-1
 64 1064 l 1,0,1
EndSplineSet
EndChar

StartChar: three
Encoding: 51 51 141
Width: 1459
Flags: W
HStem: -38 274<641.47 781.225> 708 224<548 784> 1364 271<641.47 781.225>
VStem: 53 588<246.279 614 1025 1361.99> 784 613<239.727 706.664 932.793 1362.99>
LayerCount: 2
Fore
SplineSet
53 1025 m 1,0,1
 53 1126 53 1126 61 1210 c 128,-1,2
 69 1294 69 1294 94 1362 c 128,-1,3
 119 1430 119 1430 164.5 1481 c 128,-1,4
 210 1532 210 1532 284 1566.5 c 128,-1,5
 358 1601 358 1601 465.5 1618 c 128,-1,6
 573 1635 573 1635 722 1635 c 0,7,8
 872 1635 872 1635 980.5 1616.5 c 128,-1,9
 1089 1598 1089 1598 1164 1564 c 128,-1,10
 1239 1530 1239 1530 1285 1482.5 c 128,-1,11
 1331 1435 1331 1435 1355.5 1377.5 c 128,-1,12
 1380 1320 1380 1320 1388.5 1254 c 128,-1,13
 1397 1188 1397 1188 1397 1117 c 0,14,15
 1397 1030 1397 1030 1375.5 973.5 c 128,-1,16
 1354 917 1354 917 1328 883 c 128,-1,17
 1302 849 1302 849 1279.5 835 c 128,-1,18
 1257 821 1257 821 1254 820 c 1,19,20
 1257 819 1257 819 1279.5 805.5 c 128,-1,21
 1302 792 1302 792 1328 759 c 128,-1,22
 1354 726 1354 726 1375.5 668.5 c 128,-1,23
 1397 611 1397 611 1397 523 c 0,24,25
 1397 450 1397 450 1388.5 380 c 128,-1,26
 1380 310 1380 310 1355.5 247.5 c 128,-1,27
 1331 185 1331 185 1285 132.5 c 128,-1,28
 1239 80 1239 80 1164 42 c 128,-1,29
 1089 4 1089 4 980.5 -17 c 128,-1,30
 872 -38 872 -38 722 -38 c 0,31,32
 573 -38 573 -38 465.5 -19 c 128,-1,33
 358 0 358 0 284 37.5 c 128,-1,34
 210 75 210 75 164.5 130 c 128,-1,35
 119 185 119 185 94 257.5 c 128,-1,36
 69 330 69 330 61 419.5 c 128,-1,37
 53 509 53 509 53 615 c 1,38,-1
 641 614 l 1,39,-1
 641 236 l 1,40,-1
 784 236 l 1,41,-1
 784 708 l 1,42,-1
 548 708 l 1,43,-1
 548 932 l 1,44,-1
 784 932 l 1,45,-1
 784 1364 l 1,46,-1
 641 1364 l 1,47,-1
 641 1025 l 1,48,-1
 53 1025 l 1,0,1
EndSplineSet
EndChar

StartChar: four
Encoding: 52 52 142
Width: 1478
Flags: W
HStem: 0 21G<782 1420> 1575 20G<281.776 913>
VStem: 287 626<969 1595> 782 638<0 242 603 938>
LayerCount: 2
Fore
SplineSet
1420 0 m 1,0,-1
 782 0 l 1,1,-1
 782 242 l 1,2,-1
 42 242 l 1,3,-1
 42 657 l 1,4,-1
 287 1595 l 1,5,-1
 913 1595 l 1,6,-1
 670 657 l 1,7,-1
 670 603 l 1,8,-1
 782 603 l 1,9,-1
 782 938 l 1,10,-1
 1420 938 l 1,11,-1
 1420 0 l 1,0,-1
EndSplineSet
EndChar

StartChar: five
Encoding: 53 53 143
Width: 1438
Flags: W
HStem: -38 274<635.47 775.225> 1299 302<648 1319>
VStem: 778 613<238.031 836.178>
LayerCount: 2
Fore
SplineSet
635 474 m 1,0,-1
 635 236 l 1,1,-1
 778 236 l 1,2,-1
 778 838 l 1,3,-1
 608 838 l 1,4,-1
 585 655 l 1,5,-1
 59 655 l 1,6,-1
 146 1601 l 1,7,-1
 1319 1601 l 1,8,-1
 1319 1299 l 1,9,-1
 648 1299 l 1,10,-1
 620 998 l 1,11,12
 648 1028 648 1028 697 1053 c 1,13,14
 739 1073 739 1073 807 1090.5 c 128,-1,15
 875 1108 875 1108 976 1108 c 0,16,17
 1098 1108 1098 1108 1178 1072 c 128,-1,18
 1258 1036 1258 1036 1305.5 966 c 128,-1,19
 1353 896 1353 896 1372 792.5 c 128,-1,20
 1391 689 1391 689 1391 553 c 0,21,22
 1391 454 1391 454 1382.5 371.5 c 128,-1,23
 1374 289 1374 289 1349.5 223.5 c 128,-1,24
 1325 158 1325 158 1279 109 c 128,-1,25
 1233 60 1233 60 1158 27.5 c 128,-1,26
 1083 -5 1083 -5 974.5 -21.5 c 128,-1,27
 866 -38 866 -38 716 -38 c 0,28,29
 567 -38 567 -38 459.5 -21 c 128,-1,30
 352 -4 352 -4 278 27.5 c 128,-1,31
 204 59 204 59 158.5 104.5 c 128,-1,32
 113 150 113 150 88 207 c 128,-1,33
 63 264 63 264 55 331.5 c 128,-1,34
 47 399 47 399 47 475 c 1,35,-1
 635 474 l 1,0,-1
EndSplineSet
EndChar

StartChar: six
Encoding: 54 54 144
Width: 1462
Flags: W
HStem: -38 274<661.954 801.225> 798 270<663 801.348> 1376 256<663.885 775.826>
VStem: 75 586<236.156 798 1068 1360.34> 804 613<237.345 797.93>
LayerCount: 2
Fore
SplineSet
661 236 m 1,0,-1
 804 236 l 1,1,-1
 804 798 l 1,2,-1
 661 798 l 1,3,-1
 661 236 l 1,0,-1
742 -38 m 0,4,5
 594 -38 594 -38 486.5 -21 c 128,-1,6
 379 -4 379 -4 304.5 27.5 c 128,-1,7
 230 59 230 59 184.5 104.5 c 128,-1,8
 139 150 139 150 114 207 c 128,-1,9
 89 264 89 264 81 331.5 c 128,-1,10
 73 399 73 399 73 475 c 2,11,-1
 75 987 l 1,12,-1
 75 1055 l 2,13,14
 75 1122 75 1122 80 1190.5 c 128,-1,15
 85 1259 85 1259 105.5 1323 c 128,-1,16
 126 1387 126 1387 166.5 1443.5 c 128,-1,17
 207 1500 207 1500 279 1542 c 128,-1,18
 351 1584 351 1584 458.5 1608 c 128,-1,19
 566 1632 566 1632 720 1632 c 0,20,21
 887 1632 887 1632 1000.5 1609 c 128,-1,22
 1114 1586 1114 1586 1186.5 1548 c 128,-1,23
 1259 1510 1259 1510 1296.5 1461 c 128,-1,24
 1334 1412 1334 1412 1350.5 1359.5 c 128,-1,25
 1367 1307 1367 1307 1368.5 1255 c 128,-1,26
 1370 1203 1370 1203 1370 1160 c 1,27,-1
 778 1158 l 1,28,-1
 778 1376 l 1,29,-1
 663 1376 l 1,30,-1
 663 1068 l 1,31,-1
 784 1068 l 2,32,33
 924 1068 924 1068 1025 1054.5 c 128,-1,34
 1126 1041 1126 1041 1196.5 1013 c 128,-1,35
 1267 985 1267 985 1310 941.5 c 128,-1,36
 1353 898 1353 898 1377 837.5 c 128,-1,37
 1401 777 1401 777 1409 698.5 c 128,-1,38
 1417 620 1417 620 1417 523 c 0,39,40
 1417 434 1417 434 1408.5 358 c 128,-1,41
 1400 282 1400 282 1375.5 219.5 c 128,-1,42
 1351 157 1351 157 1305 109 c 128,-1,43
 1259 61 1259 61 1184 28.5 c 128,-1,44
 1109 -4 1109 -4 1000.5 -21 c 128,-1,45
 892 -38 892 -38 742 -38 c 0,4,5
EndSplineSet
EndChar

StartChar: seven
Encoding: 55 55 145
Width: 1095
Flags: W
HStem: 0 21G<137 816.627> 1351 244<17 380>
VStem: 137 676<0 676>
DStem2: 137 0 813 0 0.177026 0.984206<119.67 1372.68>
LayerCount: 2
Fore
SplineSet
1058 1595 m 1,0,-1
 1058 1351 l 1,1,-1
 813 0 l 1,2,-1
 137 0 l 1,3,-1
 380 1351 l 1,4,-1
 17 1351 l 1,5,-1
 17 1595 l 1,6,-1
 1058 1595 l 1,0,-1
EndSplineSet
EndChar

StartChar: eight
Encoding: 56 56 146
Width: 1432
Flags: W
HStem: -41 277<646.205 782.205> 721 240<665 765> 1610 20G<639.5 796.5>
VStem: 40 605<236.952 720.842> 117 548<961.748 1354.78> 765 548<961.508 1354.78> 785 605<236.987 720.842>
LayerCount: 2
Fore
SplineSet
718 1630 m 256,0,1
 875 1630 875 1630 987.5 1604.5 c 128,-1,2
 1100 1579 1100 1579 1172.5 1524.5 c 128,-1,3
 1245 1470 1245 1470 1279 1385 c 128,-1,4
 1313 1300 1313 1300 1313 1181 c 0,5,6
 1313 1127 1313 1127 1307.5 1085 c 128,-1,7
 1302 1043 1302 1043 1293.5 1011 c 128,-1,8
 1285 979 1285 979 1274 955.5 c 128,-1,9
 1263 932 1263 932 1252 916 c 0,10,11
 1226 878 1226 878 1192 865 c 1,12,13
 1247 852 1247 852 1291 805 c 0,14,15
 1309 785 1309 785 1327 756 c 128,-1,16
 1345 727 1345 727 1359 686.5 c 128,-1,17
 1373 646 1373 646 1381.5 592.5 c 128,-1,18
 1390 539 1390 539 1390 471 c 0,19,20
 1390 397 1390 397 1382.5 330 c 128,-1,21
 1375 263 1375 263 1351 206 c 128,-1,22
 1327 149 1327 149 1282 103.5 c 128,-1,23
 1237 58 1237 58 1163 25.5 c 128,-1,24
 1089 -7 1089 -7 981 -24 c 128,-1,25
 873 -41 873 -41 723 -41 c 256,26,27
 573 -41 573 -41 464 -24 c 128,-1,28
 355 -7 355 -7 279 25.5 c 128,-1,29
 203 58 203 58 156 103.5 c 128,-1,30
 109 149 109 149 83.5 206 c 128,-1,31
 58 263 58 263 49 329.5 c 128,-1,32
 40 396 40 396 40 471 c 0,33,34
 40 539 40 539 48.5 592.5 c 128,-1,35
 57 646 57 646 71 686.5 c 128,-1,36
 85 727 85 727 102.5 756 c 128,-1,37
 120 785 120 785 139 805 c 0,38,39
 182 852 182 852 238 865 c 1,40,41
 203 878 203 878 177 917 c 0,42,43
 166 933 166 933 155 956.5 c 128,-1,44
 144 980 144 980 135.5 1012.5 c 128,-1,45
 127 1045 127 1045 122 1086.5 c 128,-1,46
 117 1128 117 1128 117 1181 c 0,47,48
 117 1300 117 1300 152 1385 c 128,-1,49
 187 1470 187 1470 260.5 1524.5 c 128,-1,50
 334 1579 334 1579 447.5 1604.5 c 128,-1,51
 561 1630 561 1630 718 1630 c 256,0,1
665 1355 m 1,52,-1
 665 961 l 1,53,-1
 765 961 l 1,54,-1
 765 1355 l 1,55,-1
 665 1355 l 1,52,-1
645 236 m 1,56,-1
 785 236 l 1,57,-1
 785 721 l 1,58,-1
 645 721 l 1,59,-1
 645 236 l 1,56,-1
EndSplineSet
EndChar

StartChar: nine
Encoding: 57 57 147
Width: 1465
Flags: W
HStem: -38 256<680.364 779.131> 498 270<652 781> 1358 274<655.967 778.398>
VStem: 49 603<769.609 1356.65> 781 610<218.32 498 768 1357.84>
LayerCount: 2
Fore
SplineSet
781 1358 m 1,0,-1
 652 1358 l 1,1,-1
 652 768 l 1,2,-1
 781 768 l 1,3,-1
 781 1358 l 1,0,-1
724 1632 m 0,4,5
 873 1632 873 1632 980 1615 c 128,-1,6
 1087 1598 1087 1598 1161.5 1566.5 c 128,-1,7
 1236 1535 1236 1535 1281.5 1489.5 c 128,-1,8
 1327 1444 1327 1444 1352 1387 c 128,-1,9
 1377 1330 1377 1330 1385 1262.5 c 128,-1,10
 1393 1195 1393 1195 1393 1119 c 2,11,-1
 1391 579 l 1,12,-1
 1391 512 l 2,13,14
 1391 446 1391 446 1386 379.5 c 128,-1,15
 1381 313 1381 313 1360.5 252 c 128,-1,16
 1340 191 1340 191 1299.5 138 c 128,-1,17
 1259 85 1259 85 1187 46 c 128,-1,18
 1115 7 1115 7 1007.5 -15.5 c 128,-1,19
 900 -38 900 -38 746 -38 c 0,20,21
 579 -38 579 -38 465.5 -16.5 c 128,-1,22
 352 5 352 5 279.5 41 c 128,-1,23
 207 77 207 77 169.5 124 c 128,-1,24
 132 171 132 171 115.5 221 c 128,-1,25
 99 271 99 271 97.5 321.5 c 128,-1,26
 96 372 96 372 96 416 c 1,27,-1
 678 418 l 1,28,-1
 678 218 l 1,29,-1
 783 218 l 1,30,-1
 783 498 l 1,31,-1
 490 498 l 2,32,33
 380 498 380 498 304.5 518 c 128,-1,34
 229 538 229 538 180 574.5 c 128,-1,35
 131 611 131 611 104.5 662.5 c 128,-1,36
 78 714 78 714 65.5 777.5 c 128,-1,37
 53 841 53 841 51 915 c 128,-1,38
 49 989 49 989 49 1071 c 0,39,40
 49 1160 49 1160 57.5 1236 c 128,-1,41
 66 1312 66 1312 90.5 1374.5 c 128,-1,42
 115 1437 115 1437 161 1485 c 128,-1,43
 207 1533 207 1533 282 1565.5 c 128,-1,44
 357 1598 357 1598 465.5 1615 c 128,-1,45
 574 1632 574 1632 724 1632 c 0,4,5
EndSplineSet
EndChar

StartChar: colon
Encoding: 58 58 148
Width: 742
Flags: W
HStem: 92 467<101 640> 1000 497<101 640>
VStem: 101 539<92 559 1000 1497>
LayerCount: 2
Fore
SplineSet
640 92 m 1,0,-1
 101 92 l 1,1,-1
 101 559 l 1,2,-1
 640 559 l 1,3,-1
 640 92 l 1,0,-1
640 1000 m 1,4,-1
 101 1000 l 1,5,-1
 101 1497 l 1,6,-1
 640 1497 l 1,7,-1
 640 1000 l 1,4,-1
EndSplineSet
EndChar

StartChar: semicolon
Encoding: 59 59 149
Width: 774
Flags: W
HStem: -247 199<141 270.358> 1000 497<122 661>
VStem: 113 579<123.317 607> 122 539<1000 1497>
LayerCount: 2
Fore
SplineSet
661 1000 m 1,0,-1
 122 1000 l 1,1,-1
 122 1497 l 1,2,-1
 661 1497 l 1,3,-1
 661 1000 l 1,0,-1
141 -48 m 1,4,5
 203 -36 203 -36 251 -13 c 0,6,7
 272 -3 272 -3 291.5 9.5 c 128,-1,8
 311 22 311 22 326.5 38.5 c 128,-1,9
 342 55 342 55 351.5 75.5 c 128,-1,10
 361 96 361 96 361 120 c 1,11,-1
 113 120 l 1,12,-1
 113 607 l 1,13,-1
 692 607 l 1,14,-1
 692 270 l 2,15,16
 692 118 692 118 654.5 18.5 c 128,-1,17
 617 -81 617 -81 545.5 -140 c 128,-1,18
 474 -199 474 -199 372 -223 c 128,-1,19
 270 -247 270 -247 141 -247 c 1,20,-1
 141 -48 l 1,4,5
EndSplineSet
EndChar

StartChar: less
Encoding: 60 60 150
Width: 1042
Flags: W
HStem: 0 21G<936.881 975> 1577 20G<937.645 975>
LayerCount: 2
Fore
SplineSet
43 1098 m 1,0,-1
 975 1597 l 1,1,-1
 975 1092 l 1,2,-1
 336 797 l 1,3,-1
 975 504 l 1,4,-1
 975 0 l 1,5,-1
 43 489 l 1,6,-1
 43 1098 l 1,0,-1
EndSplineSet
EndChar

StartChar: equal
Encoding: 61 61 151
Width: 1027
Flags: W
HStem: 0 336<70 957> 561 336<70 957>
VStem: 70 887<0 336 561 897>
LayerCount: 2
Fore
SplineSet
957 336 m 1,0,-1
 957 0 l 1,1,-1
 70 0 l 1,2,-1
 70 336 l 1,3,-1
 957 336 l 1,0,-1
957 897 m 1,4,-1
 957 561 l 1,5,-1
 70 561 l 1,6,-1
 70 897 l 1,7,-1
 957 897 l 1,4,-1
EndSplineSet
EndChar

StartChar: greater
Encoding: 62 62 152
Width: 1042
Flags: W
HStem: 0 21G<67 105.119> 1577 20G<67 104.355>
LayerCount: 2
Fore
SplineSet
999 489 m 1,0,-1
 67 0 l 1,1,-1
 67 504 l 1,2,-1
 706 797 l 1,3,-1
 67 1092 l 1,4,-1
 67 1597 l 1,5,-1
 999 1098 l 1,6,-1
 999 489 l 1,0,-1
EndSplineSet
EndChar

StartChar: at
Encoding: 64 64 153
Width: 2278
Flags: W
HStem: -394 375<766.377 1575.88> 637 195<1113 1206.32> 1352 389<800.701 1565.72>
VStem: 43 450<265.246 1065.58> 615.5 497.5<332.166 635.992> 1212 463<332 637 784 1017.2> 1768 466<466.484 1144.48>
LayerCount: 2
Fore
SplineSet
1243 235 m 1,0,1
 1211 199 1211 199 1171 172 c 0,2,3
 1136 148 1136 148 1086.5 128.5 c 128,-1,4
 1037 109 1037 109 974 109 c 0,5,6
 884 109 884 109 822.5 125.5 c 128,-1,7
 761 142 761 142 721 170 c 128,-1,8
 681 198 681 198 659 235.5 c 128,-1,9
 637 273 637 273 627 315 c 128,-1,10
 617 357 617 357 615.5 401.5 c 128,-1,11
 614 446 614 446 614 489 c 0,12,13
 614 522 614 522 615.5 560 c 128,-1,14
 617 598 617 598 627 636 c 128,-1,15
 637 674 637 674 659 709.5 c 128,-1,16
 681 745 681 745 721 772 c 128,-1,17
 761 799 761 799 822.5 815.5 c 128,-1,18
 884 832 884 832 974 832 c 0,19,20
 1070 832 1070 832 1126.5 817 c 128,-1,21
 1183 802 1183 802 1212 784 c 1,22,-1
 1212 1018 l 1,23,-1
 1150 1018 l 1,24,-1
 1150 883 l 1,25,-1
 669 883 l 1,26,27
 669 900 669 900 668.5 918 c 128,-1,28
 668 936 668 936 668 955 c 0,29,30
 668 990 668 990 673 1025 c 128,-1,31
 678 1060 678 1060 694.5 1092.5 c 128,-1,32
 711 1125 711 1125 744 1152.5 c 128,-1,33
 777 1180 777 1180 833.5 1200.5 c 128,-1,34
 890 1221 890 1221 973 1233 c 128,-1,35
 1056 1245 1056 1245 1174 1245 c 0,36,37
 1291 1245 1291 1245 1373 1231 c 128,-1,38
 1455 1217 1455 1217 1511 1193.5 c 128,-1,39
 1567 1170 1567 1170 1599.5 1137.5 c 128,-1,40
 1632 1105 1632 1105 1649 1067.5 c 128,-1,41
 1666 1030 1666 1030 1671 990 c 128,-1,42
 1676 950 1676 950 1676 910 c 0,43,44
 1676 888 1676 888 1675.5 867.5 c 128,-1,45
 1675 847 1675 847 1675 827 c 2,46,-1
 1673 328 l 1,47,-1
 1768 328 l 1,48,49
 1768 458 1768 458 1768.5 580 c 128,-1,50
 1769 702 1769 702 1769 830 c 0,51,52
 1769 955 1769 955 1752.5 1042 c 128,-1,53
 1736 1129 1736 1129 1703.5 1187 c 128,-1,54
 1671 1245 1671 1245 1622.5 1278 c 128,-1,55
 1574 1311 1574 1311 1509.5 1327.5 c 128,-1,56
 1445 1344 1445 1344 1365 1348 c 128,-1,57
 1285 1352 1285 1352 1190 1352 c 0,58,59
 1038 1352 1038 1352 927.5 1335.5 c 128,-1,60
 817 1319 817 1319 740 1284.5 c 128,-1,61
 663 1250 663 1250 614.5 1196.5 c 128,-1,62
 566 1143 566 1143 539 1069.5 c 128,-1,63
 512 996 512 996 502.5 901.5 c 128,-1,64
 493 807 493 807 493 690 c 0,65,66
 493 523 493 523 508 405.5 c 128,-1,67
 523 288 523 288 558.5 209 c 128,-1,68
 594 130 594 130 652.5 84.5 c 128,-1,69
 711 39 711 39 798 16 c 128,-1,70
 885 -7 885 -7 1003.5 -13 c 128,-1,71
 1122 -19 1122 -19 1278 -19 c 0,72,73
 1310 -19 1310 -19 1348.5 -17.5 c 128,-1,74
 1387 -16 1387 -16 1428.5 -13 c 128,-1,75
 1470 -10 1470 -10 1511.5 -6.5 c 128,-1,76
 1553 -3 1553 -3 1592 1 c 0,77,78
 1683 10 1683 10 1776 21 c 1,79,-1
 1838 -234 l 1,80,81
 1764 -279 1764 -279 1676 -314 c 0,82,83
 1638 -329 1638 -329 1594 -343.5 c 128,-1,84
 1550 -358 1550 -358 1500 -369 c 128,-1,85
 1450 -380 1450 -380 1395.5 -387 c 128,-1,86
 1341 -394 1341 -394 1283 -394 c 0,87,88
 1071 -394 1071 -394 896.5 -378 c 128,-1,89
 722 -362 722 -362 584.5 -319 c 128,-1,90
 447 -276 447 -276 345 -200 c 128,-1,91
 243 -124 243 -124 176 -3.5 c 128,-1,92
 109 117 109 117 76 286.5 c 128,-1,93
 43 456 43 456 43 687 c 0,94,95
 43 893 43 893 73.5 1051.5 c 128,-1,96
 104 1210 104 1210 166 1327 c 128,-1,97
 228 1444 228 1444 322 1523.5 c 128,-1,98
 416 1603 416 1603 543 1651 c 128,-1,99
 670 1699 670 1699 830.5 1720 c 128,-1,100
 991 1741 991 1741 1186 1741 c 0,101,102
 1393 1741 1393 1741 1551 1717.5 c 128,-1,103
 1709 1694 1709 1694 1825.5 1647 c 128,-1,104
 1942 1600 1942 1600 2020.5 1528.5 c 128,-1,105
 2099 1457 2099 1457 2146.5 1361 c 128,-1,106
 2194 1265 2194 1265 2214 1144.5 c 128,-1,107
 2234 1024 2234 1024 2234 878 c 0,108,109
 2234 643 2234 643 2195.5 490 c 128,-1,110
 2157 337 2157 337 2079.5 248 c 128,-1,111
 2002 159 2002 159 1886.5 123.5 c 128,-1,112
 1771 88 1771 88 1617 88 c 0,113,114
 1507 88 1507 88 1435 110.5 c 128,-1,115
 1363 133 1363 133 1320 161 c 0,116,117
 1270 194 1270 194 1243 235 c 1,0,1
1113 637 m 1,118,-1
 1113 332 l 1,119,-1
 1212 332 l 1,120,-1
 1212 637 l 1,121,-1
 1113 637 l 1,118,-1
EndSplineSet
EndChar

StartChar: quotedblbase
Encoding: 8222 8222 154
Width: 1256
Flags: W
HStem: -507 806<148 487 769 1108>
LayerCount: 2
Fore
SplineSet
487 -507 m 1,0,-1
 148 -507 l 1,1,-1
 48 299 l 1,2,-1
 587 299 l 1,3,-1
 487 -507 l 1,0,-1
1108 -507 m 1,4,-1
 769 -507 l 1,5,-1
 669 299 l 1,6,-1
 1208 299 l 1,7,-1
 1108 -507 l 1,4,-1
EndSplineSet
EndChar

StartChar: ellipsis
Encoding: 8230 8230 155
Width: 2069
Flags: W
HStem: 0 467<74 613 765 1304 1456 1995>
VStem: 74 539<0 467> 765 539<0 467> 1456 539<0 467>
CounterMasks: 1 70
LayerCount: 2
Fore
SplineSet
613 0 m 1,0,-1
 74 0 l 1,1,-1
 74 467 l 1,2,-1
 613 467 l 1,3,-1
 613 0 l 1,0,-1
1304 0 m 1,4,-1
 765 0 l 1,5,-1
 765 467 l 1,6,-1
 1304 467 l 1,7,-1
 1304 0 l 1,4,-1
1995 0 m 1,8,-1
 1456 0 l 1,9,-1
 1456 467 l 1,10,-1
 1995 467 l 1,11,-1
 1995 0 l 1,8,-1
EndSplineSet
EndChar

StartChar: dagger
Encoding: 8224 8224 156
Width: 1322
Flags: W
HStem: 0 21G<350 962> 900 400<40 350 962 1282> 1575 20G<366 962>
VStem: 350 612<0 900>
LayerCount: 2
Fore
SplineSet
962 0 m 1,0,-1
 350 0 l 1,1,-1
 350 900 l 1,2,-1
 40 900 l 1,3,-1
 40 1300 l 1,4,-1
 366 1300 l 1,5,-1
 366 1595 l 1,6,-1
 962 1595 l 1,7,-1
 962 1300 l 1,8,-1
 1282 1300 l 1,9,-1
 1282 900 l 1,10,-1
 962 900 l 1,11,-1
 962 0 l 1,0,-1
EndSplineSet
EndChar

StartChar: daggerdbl
Encoding: 8225 8225 157
Width: 1352
Flags: W
HStem: 0 21G<365 977> 295 400<55 365 977 1297> 900 400<55 365 977 1297> 1575 20G<365 977>
VStem: 365 612<0 295 695 900 1300 1595>
LayerCount: 2
Fore
SplineSet
977 695 m 1,0,-1
 1297 695 l 1,1,-1
 1297 295 l 1,2,-1
 977 295 l 1,3,-1
 977 0 l 1,4,-1
 365 0 l 1,5,-1
 365 295 l 1,6,-1
 55 295 l 1,7,-1
 55 695 l 1,8,-1
 365 695 l 1,9,-1
 365 900 l 1,10,-1
 55 900 l 1,11,-1
 55 1300 l 1,12,-1
 365 1300 l 1,13,-1
 365 1595 l 1,14,-1
 977 1595 l 1,15,-1
 977 1300 l 1,16,-1
 1297 1300 l 1,17,-1
 1297 900 l 1,18,-1
 977 900 l 1,19,-1
 977 695 l 1,0,-1
EndSplineSet
EndChar

StartChar: circumflex
Encoding: 710 710 158
Width: 1706
Flags: W
HStem: 61 615<604 825 1008 1219>
LayerCount: 2
Fore
SplineSet
1219 676 m 1,0,-1
 1520 61 l 1,1,-1
 1008 61 l 1,2,-1
 915 381 l 1,3,-1
 825 61 l 1,4,-1
 315 61 l 1,5,-1
 604 676 l 1,6,-1
 1219 676 l 1,0,-1
EndSplineSet
EndChar

StartChar: perthousand
Encoding: 8240 8240 159
Width: 4060
Flags: W
HStem: -40 21G<992 1535.69> 75 215<2307.52 2400.4 3435.52 3528.4> 454 215<532.522 625.398> 955 219<2307.52 2400.4 3435.52 3528.4> 1334 219<532.522 625.398>
VStem: 46 486<669.918 1333.91> 628 481<669.918 1333.91> 992 539<-40 499> 1396 536<1134 1670> 1821 486<290.842 954.788> 2403 481<290.842 954.788> 2949 486<290.842 954.788> 3531 481<290.842 954.788>
DStem2: 992 -40 1531 -40 0.229927 0.973208<123.931 1757.08>
LayerCount: 2
Fore
SplineSet
1932 1670 m 1,0,-1
 1531 -40 l 1,1,-1
 992 -40 l 1,2,-1
 1396 1670 l 1,3,-1
 1932 1670 l 1,0,-1
3531 955 m 1,4,-1
 3435 955 l 1,5,-1
 3435 290 l 1,6,-1
 3531 290 l 1,7,-1
 3531 955 l 1,4,-1
3480 75 m 256,8,9
 3347 75 3347 75 3256 89 c 128,-1,10
 3165 103 3165 103 3106 127 c 128,-1,11
 3047 151 3047 151 3015 182 c 128,-1,12
 2983 213 2983 213 2968.5 248 c 128,-1,13
 2954 283 2954 283 2951.5 318.5 c 128,-1,14
 2949 354 2949 354 2949 386 c 2,15,-1
 2949 863 l 2,16,17
 2949 895 2949 895 2951.5 930.5 c 128,-1,18
 2954 966 2954 966 2968.5 1000.5 c 128,-1,19
 2983 1035 2983 1035 3015 1066.5 c 128,-1,20
 3047 1098 3047 1098 3106 1122 c 128,-1,21
 3165 1146 3165 1146 3256 1160 c 128,-1,22
 3347 1174 3347 1174 3480 1174 c 256,23,24
 3613 1174 3613 1174 3704 1160 c 128,-1,25
 3795 1146 3795 1146 3854 1122 c 128,-1,26
 3913 1098 3913 1098 3945.5 1066.5 c 128,-1,27
 3978 1035 3978 1035 3992.5 1000.5 c 128,-1,28
 4007 966 4007 966 4009.5 930.5 c 128,-1,29
 4012 895 4012 895 4012 863 c 2,30,-1
 4012 386 l 2,31,32
 4012 354 4012 354 4009.5 318.5 c 128,-1,33
 4007 283 4007 283 3992.5 248 c 128,-1,34
 3978 213 3978 213 3945.5 182 c 128,-1,35
 3913 151 3913 151 3854 127 c 128,-1,36
 3795 103 3795 103 3704 89 c 128,-1,37
 3613 75 3613 75 3480 75 c 256,8,9
2403 955 m 1,38,-1
 2307 955 l 1,39,-1
 2307 290 l 1,40,-1
 2403 290 l 1,41,-1
 2403 955 l 1,38,-1
2352 75 m 256,42,43
 2219 75 2219 75 2128 89 c 128,-1,44
 2037 103 2037 103 1978 127 c 128,-1,45
 1919 151 1919 151 1887 182 c 128,-1,46
 1855 213 1855 213 1840.5 248 c 128,-1,47
 1826 283 1826 283 1823.5 318.5 c 128,-1,48
 1821 354 1821 354 1821 386 c 2,49,-1
 1821 863 l 2,50,51
 1821 895 1821 895 1823.5 930.5 c 128,-1,52
 1826 966 1826 966 1840.5 1000.5 c 128,-1,53
 1855 1035 1855 1035 1887 1066.5 c 128,-1,54
 1919 1098 1919 1098 1978 1122 c 128,-1,55
 2037 1146 2037 1146 2128 1160 c 128,-1,56
 2219 1174 2219 1174 2352 1174 c 256,57,58
 2485 1174 2485 1174 2576 1160 c 128,-1,59
 2667 1146 2667 1146 2726 1122 c 128,-1,60
 2785 1098 2785 1098 2817.5 1066.5 c 128,-1,61
 2850 1035 2850 1035 2864.5 1000.5 c 128,-1,62
 2879 966 2879 966 2881.5 930.5 c 128,-1,63
 2884 895 2884 895 2884 863 c 2,64,-1
 2884 386 l 2,65,66
 2884 354 2884 354 2881.5 318.5 c 128,-1,67
 2879 283 2879 283 2864.5 248 c 128,-1,68
 2850 213 2850 213 2817.5 182 c 128,-1,69
 2785 151 2785 151 2726 127 c 128,-1,70
 2667 103 2667 103 2576 89 c 128,-1,71
 2485 75 2485 75 2352 75 c 256,42,43
628 1334 m 1,72,-1
 532 1334 l 1,73,-1
 532 669 l 1,74,-1
 628 669 l 1,75,-1
 628 1334 l 1,72,-1
577 454 m 256,76,77
 444 454 444 454 353 468 c 128,-1,78
 262 482 262 482 203 506 c 128,-1,79
 144 530 144 530 112 561.5 c 128,-1,80
 80 593 80 593 65.5 627.5 c 128,-1,81
 51 662 51 662 48.5 697.5 c 128,-1,82
 46 733 46 733 46 765 c 2,83,-1
 46 1244 l 2,84,85
 46 1276 46 1276 48.5 1311 c 128,-1,86
 51 1346 51 1346 65.5 1380.5 c 128,-1,87
 80 1415 80 1415 112 1446 c 128,-1,88
 144 1477 144 1477 203 1501 c 128,-1,89
 262 1525 262 1525 353 1539 c 128,-1,90
 444 1553 444 1553 577 1553 c 256,91,92
 710 1553 710 1553 801 1539 c 128,-1,93
 892 1525 892 1525 951 1501 c 128,-1,94
 1010 1477 1010 1477 1042.5 1446 c 128,-1,95
 1075 1415 1075 1415 1089.5 1380.5 c 128,-1,96
 1104 1346 1104 1346 1106.5 1311 c 128,-1,97
 1109 1276 1109 1276 1109 1244 c 2,98,-1
 1109 765 l 2,99,100
 1109 733 1109 733 1106.5 697.5 c 128,-1,101
 1104 662 1104 662 1089.5 627.5 c 128,-1,102
 1075 593 1075 593 1042.5 561.5 c 128,-1,103
 1010 530 1010 530 951 506 c 128,-1,104
 892 482 892 482 801 468 c 128,-1,105
 710 454 710 454 577 454 c 256,76,77
EndSplineSet
EndChar

StartChar: quoteleft
Encoding: 8216 8216 161
Width: 711
Flags: W
HStem: 1436 199<487.642 617>
VStem: 66 579<781 1264.68>
LayerCount: 2
Fore
SplineSet
617 1436 m 1,0,1
 555 1424 555 1424 507 1401 c 0,2,3
 486 1391 486 1391 466.5 1378.5 c 128,-1,4
 447 1366 447 1366 431.5 1349.5 c 128,-1,5
 416 1333 416 1333 406.5 1312.5 c 128,-1,6
 397 1292 397 1292 397 1268 c 1,7,-1
 645 1268 l 1,8,-1
 645 781 l 1,9,-1
 66 781 l 1,10,-1
 66 1118 l 2,11,12
 66 1270 66 1270 103.5 1369.5 c 128,-1,13
 141 1469 141 1469 212.5 1528 c 128,-1,14
 284 1587 284 1587 386 1611 c 128,-1,15
 488 1635 488 1635 617 1635 c 1,16,-1
 617 1436 l 1,0,1
EndSplineSet
EndChar

StartChar: quoteright
Encoding: 8217 8217 162
Width: 697
Flags: W
HStem: 749 199<94 223.358> 1583 20G<66 645>
VStem: 66 579<1119.32 1603>
LayerCount: 2
Fore
SplineSet
94 948 m 1,0,1
 156 960 156 960 204 983 c 0,2,3
 225 993 225 993 244.5 1005.5 c 128,-1,4
 264 1018 264 1018 279.5 1034.5 c 128,-1,5
 295 1051 295 1051 304.5 1071.5 c 128,-1,6
 314 1092 314 1092 314 1116 c 1,7,-1
 66 1116 l 1,8,-1
 66 1603 l 1,9,-1
 645 1603 l 1,10,-1
 645 1266 l 2,11,12
 645 1114 645 1114 607.5 1014.5 c 128,-1,13
 570 915 570 915 498.5 856 c 128,-1,14
 427 797 427 797 325 773 c 128,-1,15
 223 749 223 749 94 749 c 1,16,-1
 94 948 l 1,0,1
EndSplineSet
EndChar

StartChar: quotedblleft
Encoding: 8220 8220 163
Width: 1367
Flags: W
HStem: 781 487<397 645 1053 1301> 1436 199<487.642 617 1143.64 1273>
VStem: 66 579<781 1264.68> 722 579<781 1264.68>
LayerCount: 2
Fore
SplineSet
617 1436 m 1,0,1
 555 1424 555 1424 507 1401 c 0,2,3
 486 1391 486 1391 466.5 1378.5 c 128,-1,4
 447 1366 447 1366 431.5 1349.5 c 128,-1,5
 416 1333 416 1333 406.5 1312.5 c 128,-1,6
 397 1292 397 1292 397 1268 c 1,7,-1
 645 1268 l 1,8,-1
 645 781 l 1,9,-1
 66 781 l 1,10,-1
 66 1118 l 2,11,12
 66 1270 66 1270 103.5 1369.5 c 128,-1,13
 141 1469 141 1469 212.5 1528 c 128,-1,14
 284 1587 284 1587 386 1611 c 128,-1,15
 488 1635 488 1635 617 1635 c 1,16,-1
 617 1436 l 1,0,1
1273 1436 m 1,17,18
 1211 1424 1211 1424 1163 1401 c 0,19,20
 1142 1391 1142 1391 1122.5 1378.5 c 128,-1,21
 1103 1366 1103 1366 1087.5 1349.5 c 128,-1,22
 1072 1333 1072 1333 1062.5 1312.5 c 128,-1,23
 1053 1292 1053 1292 1053 1268 c 1,24,-1
 1301 1268 l 1,25,-1
 1301 781 l 1,26,-1
 722 781 l 1,27,-1
 722 1118 l 2,28,29
 722 1270 722 1270 759.5 1369.5 c 128,-1,30
 797 1469 797 1469 868.5 1528 c 128,-1,31
 940 1587 940 1587 1042 1611 c 128,-1,32
 1144 1635 1144 1635 1273 1635 c 1,33,-1
 1273 1436 l 1,17,18
EndSplineSet
EndChar

StartChar: quotedblright
Encoding: 8221 8221 164
Width: 1357
Flags: W
HStem: 749 199<94 223.358 754 883.358> 1116 487<66 314 726 974>
VStem: 66 579<1119.32 1603> 726 579<1119.32 1603>
LayerCount: 2
Fore
SplineSet
94 948 m 1,0,1
 156 960 156 960 204 983 c 0,2,3
 225 993 225 993 244.5 1005.5 c 128,-1,4
 264 1018 264 1018 279.5 1034.5 c 128,-1,5
 295 1051 295 1051 304.5 1071.5 c 128,-1,6
 314 1092 314 1092 314 1116 c 1,7,-1
 66 1116 l 1,8,-1
 66 1603 l 1,9,-1
 645 1603 l 1,10,-1
 645 1266 l 2,11,12
 645 1114 645 1114 607.5 1014.5 c 128,-1,13
 570 915 570 915 498.5 856 c 128,-1,14
 427 797 427 797 325 773 c 128,-1,15
 223 749 223 749 94 749 c 1,16,-1
 94 948 l 1,0,1
754 948 m 1,17,18
 816 960 816 960 864 983 c 0,19,20
 885 993 885 993 904.5 1005.5 c 128,-1,21
 924 1018 924 1018 939.5 1034.5 c 128,-1,22
 955 1051 955 1051 964.5 1071.5 c 128,-1,23
 974 1092 974 1092 974 1116 c 1,24,-1
 726 1116 l 1,25,-1
 726 1603 l 1,26,-1
 1305 1603 l 1,27,-1
 1305 1266 l 2,28,29
 1305 1114 1305 1114 1267.5 1014.5 c 128,-1,30
 1230 915 1230 915 1158.5 856 c 128,-1,31
 1087 797 1087 797 985 773 c 128,-1,32
 883 749 883 749 754 749 c 1,33,-1
 754 948 l 1,17,18
EndSplineSet
EndChar

StartChar: bullet
Encoding: 8226 8226 165
Width: 1156
Flags: W
VStem: 57 1044<429.646 1023.07>
LayerCount: 2
Fore
SplineSet
1101 726 m 256,0,1
 1101 584 1101 584 1074.5 486 c 128,-1,2
 1048 388 1048 388 1005.5 325 c 128,-1,3
 963 262 963 262 908.5 227.5 c 128,-1,4
 854 193 854 193 797.5 177 c 128,-1,5
 741 161 741 161 688.5 158.5 c 128,-1,6
 636 156 636 156 596 156 c 0,7,8
 541 156 541 156 479 159 c 128,-1,9
 417 162 417 162 357.5 178 c 128,-1,10
 298 194 298 194 243.5 228.5 c 128,-1,11
 189 263 189 263 147.5 326.5 c 128,-1,12
 106 390 106 390 81.5 487 c 128,-1,13
 57 584 57 584 57 726 c 0,14,15
 57 867 57 867 81.5 964 c 128,-1,16
 106 1061 106 1061 147.5 1124 c 128,-1,17
 189 1187 189 1187 243.5 1221.5 c 128,-1,18
 298 1256 298 1256 357.5 1272 c 128,-1,19
 417 1288 417 1288 478.5 1291 c 128,-1,20
 540 1294 540 1294 596 1294 c 0,21,22
 636 1294 636 1294 688.5 1291.5 c 128,-1,23
 741 1289 741 1289 797.5 1273 c 128,-1,24
 854 1257 854 1257 908.5 1223 c 128,-1,25
 963 1189 963 1189 1005.5 1126 c 128,-1,26
 1048 1063 1048 1063 1074.5 965.5 c 128,-1,27
 1101 868 1101 868 1101 726 c 256,0,1
EndSplineSet
EndChar

StartChar: endash
Encoding: 8211 8211 166
Width: 1005
Flags: W
HStem: 461 436<59 946>
LayerCount: 2
Fore
SplineSet
946 897 m 1,0,-1
 946 461 l 1,1,-1
 59 461 l 1,2,-1
 59 897 l 1,3,-1
 946 897 l 1,0,-1
EndSplineSet
EndChar

StartChar: emdash
Encoding: 8212 8212 167
Width: 1911
Flags: W
HStem: 461 436<59 1852>
LayerCount: 2
Fore
SplineSet
1852 897 m 1,0,-1
 1852 461 l 1,1,-1
 59 461 l 1,2,-1
 59 897 l 1,3,-1
 1852 897 l 1,0,-1
EndSplineSet
EndChar

StartChar: tilde
Encoding: 732 732 168
Width: 1288
Flags: W
HStem: 70 443<305.752 501.273> 260 446<788.005 975.939>
LayerCount: 2
Fore
SplineSet
891 260 m 0,0,1
 862 260 862 260 836 246 c 128,-1,2
 810 232 810 232 781.5 211 c 128,-1,3
 753 190 753 190 719 165 c 128,-1,4
 685 140 685 140 639.5 119 c 128,-1,5
 594 98 594 98 533 84 c 128,-1,6
 472 70 472 70 391 70 c 0,7,8
 286 70 286 70 205.5 96 c 128,-1,9
 125 122 125 122 70 190 c 128,-1,10
 15 258 15 258 -13 376.5 c 128,-1,11
 -41 495 -41 495 -41 681 c 1,12,-1
 274 681 l 1,13,14
 274 648 274 648 280 617.5 c 128,-1,15
 286 587 286 587 300.5 564 c 128,-1,16
 315 541 315 541 337.5 527 c 128,-1,17
 360 513 360 513 393 513 c 0,18,19
 422 513 422 513 450 527.5 c 128,-1,20
 478 542 478 542 509 563 c 128,-1,21
 540 584 540 584 576 609.5 c 128,-1,22
 612 635 612 635 657.5 656 c 128,-1,23
 703 677 703 677 760.5 691.5 c 128,-1,24
 818 706 818 706 891 706 c 0,25,26
 996 706 996 706 1076.5 680.5 c 128,-1,27
 1157 655 1157 655 1212 587 c 128,-1,28
 1267 519 1267 519 1295 400.5 c 128,-1,29
 1323 282 1323 282 1323 96 c 1,30,-1
 1008 96 l 1,31,32
 1008 124 1008 124 1002 153 c 128,-1,33
 996 182 996 182 982.5 206 c 128,-1,34
 969 230 969 230 946.5 245 c 128,-1,35
 924 260 924 260 891 260 c 0,0,1
EndSplineSet
EndChar

StartChar: trademark
Encoding: 8482 8482 169
Width: 1975
Flags: W
HStem: 657 938<208 605 825 1219 1497 1891> 1453 142<36 208 605 778>
VStem: 208 397<657 1453> 825 394<657 951> 1497 394<657 951>
LayerCount: 2
Fore
SplineSet
778 1595 m 1,0,-1
 778 1453 l 1,1,-1
 605 1453 l 1,2,-1
 605 657 l 1,3,-1
 208 657 l 1,4,-1
 208 1453 l 1,5,-1
 36 1453 l 1,6,-1
 36 1595 l 1,7,-1
 778 1595 l 1,0,-1
1303 657 m 1,8,-1
 1219 951 l 1,9,-1
 1219 657 l 1,10,-1
 825 657 l 1,11,-1
 825 1595 l 1,12,-1
 1287 1595 l 1,13,-1
 1359 1158 l 1,14,-1
 1423 1595 l 1,15,-1
 1891 1595 l 1,16,-1
 1891 657 l 1,17,-1
 1497 657 l 1,18,-1
 1497 951 l 1,19,-1
 1413 657 l 1,20,-1
 1303 657 l 1,8,-1
EndSplineSet
EndChar

StartChar: guilsinglright
Encoding: 8250 8250 171
Width: 1050
Flags: W
HStem: 0 21G<74 112.119> 1577 20G<74 111.355>
LayerCount: 2
Fore
SplineSet
1006 489 m 1,0,-1
 74 0 l 1,1,-1
 74 504 l 1,2,-1
 713 797 l 1,3,-1
 74 1092 l 1,4,-1
 74 1597 l 1,5,-1
 1006 1098 l 1,6,-1
 1006 489 l 1,0,-1
EndSplineSet
EndChar

StartChar: cent
Encoding: 162 162 175
Width: 1429
Flags: W
HStem: 1689 20G<461 967>
VStem: 46 607<319.125 1156.58> 461 506<-304 85.0601 1390.94 1709> 773 611<319.875 645 866 1156.25>
LayerCount: 2
Fore
SplineSet
461 79 m 1,0,1
 383 89 383 89 324 104.5 c 128,-1,2
 265 120 265 120 221.5 140.5 c 128,-1,3
 178 161 178 161 147.5 185 c 128,-1,4
 117 209 117 209 98 236 c 0,5,6
 78 263 78 263 67.5 291 c 128,-1,7
 57 319 57 319 52.5 347.5 c 128,-1,8
 48 376 48 376 47 403.5 c 128,-1,9
 46 431 46 431 46 457 c 2,10,-1
 46 1022 l 2,11,12
 46 1055 46 1055 48 1092.5 c 128,-1,13
 50 1130 50 1130 61.5 1167 c 128,-1,14
 73 1204 73 1204 98 1240 c 128,-1,15
 123 1276 123 1276 169 1306.5 c 128,-1,16
 215 1337 215 1337 286 1360.5 c 128,-1,17
 357 1384 357 1384 461 1397 c 1,18,-1
 461 1709 l 1,19,-1
 967 1709 l 1,20,-1
 967 1397 l 1,21,22
 1045 1387 1045 1387 1104.5 1371.5 c 128,-1,23
 1164 1356 1164 1356 1208 1335.5 c 128,-1,24
 1252 1315 1252 1315 1282 1291 c 128,-1,25
 1312 1267 1312 1267 1332 1241 c 1,26,27
 1351 1214 1351 1214 1362 1186 c 128,-1,28
 1373 1158 1373 1158 1377.5 1130 c 128,-1,29
 1382 1102 1382 1102 1383 1074.5 c 128,-1,30
 1384 1047 1384 1047 1384 1022 c 2,31,-1
 1382 866 l 1,32,-1
 773 866 l 1,33,-1
 773 1157 l 1,34,-1
 653 1157 l 1,35,-1
 653 319 l 1,36,-1
 773 319 l 1,37,-1
 773 645 l 1,38,-1
 1384 645 l 1,39,-1
 1384 457 l 2,40,41
 1384 423 1384 423 1382 385.5 c 128,-1,42
 1380 348 1380 348 1368.5 310.5 c 128,-1,43
 1357 273 1357 273 1332 237 c 128,-1,44
 1307 201 1307 201 1260.5 170 c 128,-1,45
 1214 139 1214 139 1142.5 115.5 c 128,-1,46
 1071 92 1071 92 967 79 c 1,47,-1
 967 -304 l 1,48,-1
 461 -304 l 1,49,-1
 461 79 l 1,0,1
EndSplineSet
EndChar

StartChar: sterling
Encoding: 163 163 176
Width: 1642
Flags: W
HStem: 0 268<46 184.566> 718 222<46 214 839 1293> 1364 268<841.625 950.833>
VStem: 214 625<301.737 718 940 1362.53>
LayerCount: 2
Fore
SplineSet
1293 718 m 1,0,-1
 839 718 l 1,1,-1
 839 268 l 1,2,-1
 975 268 l 1,3,-1
 975 562 l 1,4,-1
 1593 562 l 1,5,-1
 1593 385 l 2,6,7
 1593 345 1593 345 1590.5 301 c 128,-1,8
 1588 257 1588 257 1575 214 c 128,-1,9
 1562 171 1562 171 1534.5 132.5 c 128,-1,10
 1507 94 1507 94 1456 64.5 c 128,-1,11
 1405 35 1405 35 1327 17.5 c 128,-1,12
 1249 0 1249 0 1135 0 c 0,13,14
 1049 0 1049 0 992 14.5 c 128,-1,15
 935 29 935 29 898 49 c 128,-1,16
 861 69 861 69 838.5 91.5 c 128,-1,17
 816 114 816 114 798 130 c 1,18,19
 766 98 766 98 736.5 75.5 c 128,-1,20
 707 53 707 53 670 38.5 c 128,-1,21
 633 24 633 24 583.5 16 c 128,-1,22
 534 8 534 8 461 4.5 c 128,-1,23
 388 1 388 1 287 0.5 c 128,-1,24
 186 0 186 0 46 0 c 1,25,-1
 46 265 l 1,26,27
 93 270 93 270 130 283 c 0,28,29
 146 289 146 289 161 297 c 128,-1,30
 176 305 176 305 188 316 c 128,-1,31
 200 327 200 327 207 341.5 c 128,-1,32
 214 356 214 356 214 375 c 2,33,-1
 214 718 l 1,34,-1
 46 718 l 1,35,-1
 46 940 l 1,36,-1
 214 940 l 1,37,-1
 214 1064 l 2,38,39
 214 1172 214 1172 223 1256.5 c 128,-1,40
 232 1341 232 1341 258.5 1404 c 128,-1,41
 285 1467 285 1467 333.5 1510.5 c 128,-1,42
 382 1554 382 1554 460 1581 c 128,-1,43
 538 1608 538 1608 650 1620 c 128,-1,44
 762 1632 762 1632 916 1632 c 0,45,46
 1078 1632 1078 1632 1189.5 1614.5 c 128,-1,47
 1301 1597 1301 1597 1373.5 1567.5 c 128,-1,48
 1446 1538 1446 1538 1486 1499.5 c 128,-1,49
 1526 1461 1526 1461 1545 1418 c 128,-1,50
 1564 1375 1564 1375 1567.5 1331 c 128,-1,51
 1571 1287 1571 1287 1571 1247 c 2,52,-1
 1571 1070 l 1,53,-1
 953 1070 l 1,54,-1
 953 1364 l 1,55,-1
 839 1364 l 1,56,-1
 839 940 l 1,57,-1
 1293 940 l 1,58,-1
 1293 718 l 1,0,-1
EndSplineSet
EndChar

StartChar: currency
Encoding: 164 164 177
Width: 1446
Flags: W
HStem: 299 270<663.784 779.812> 1069 274<664.461 778.469>
VStem: 54 607<570.014 1067.51> 781 608<569.959 1067.59>
DStem2: 202 1414 117 1330 0.701151 -0.713013<0.29532 141.022 1424.17 1601.65> 117 272 202 188 0.701151 0.713013<0 179.611 1462.76 1601.36>
LayerCount: 2
Fore
SplineSet
327 1286 m 1,0,1
 399 1312 399 1312 496 1327.5 c 128,-1,2
 593 1343 593 1343 724 1343 c 0,3,4
 852 1343 852 1343 948 1328 c 128,-1,5
 1044 1313 1044 1313 1116 1287 c 1,6,-1
 1240 1414 l 1,7,-1
 1325 1330 l 1,8,-1
 1228 1231 l 1,9,10
 1289 1189 1289 1189 1322.5 1136.5 c 128,-1,11
 1356 1084 1356 1084 1371.5 1027.5 c 128,-1,12
 1387 971 1387 971 1389.5 913.5 c 128,-1,13
 1392 856 1392 856 1392 804 c 0,14,15
 1392 765 1392 765 1389 712.5 c 128,-1,16
 1386 660 1386 660 1368 604.5 c 128,-1,17
 1350 549 1350 549 1311 495 c 128,-1,18
 1272 441 1272 441 1200 398 c 1,19,-1
 1325 272 l 1,20,-1
 1240 188 l 1,21,-1
 1084 346 l 1,22,23
 1015 324 1015 324 927 311.5 c 128,-1,24
 839 299 839 299 724 299 c 0,25,26
 607 299 607 299 517.5 312 c 128,-1,27
 428 325 428 325 359 348 c 1,28,-1
 202 188 l 1,29,-1
 117 272 l 1,30,-1
 243 400 l 1,31,32
 172 443 172 443 133.5 497 c 128,-1,33
 95 551 95 551 77.5 606 c 128,-1,34
 60 661 60 661 57 713 c 128,-1,35
 54 765 54 765 54 804 c 0,36,37
 54 856 54 856 56.5 913 c 128,-1,38
 59 970 59 970 74 1026 c 128,-1,39
 89 1082 89 1082 122 1134.5 c 128,-1,40
 155 1187 155 1187 215 1229 c 1,41,-1
 117 1330 l 1,42,-1
 202 1414 l 1,43,-1
 327 1286 l 1,0,1
661 569 m 1,44,-1
 781 569 l 1,45,-1
 781 1069 l 1,46,-1
 661 1069 l 1,47,-1
 661 569 l 1,44,-1
EndSplineSet
EndChar

StartChar: yen
Encoding: 165 165 178
Width: 1666
Flags: W
HStem: 0 21G<494 1168> 299 143<143 494 1168 1524> 585 143<143 384 1282 1524> 1575 20G<29 638.997 1026.82 1637>
LayerCount: 2
Fore
SplineSet
494 442 m 1,0,-1
 494 459 l 1,1,-1
 442 585 l 1,2,-1
 143 585 l 1,3,-1
 143 728 l 1,4,-1
 384 728 l 1,5,-1
 29 1595 l 1,6,-1
 633 1595 l 1,7,-1
 830 938 l 1,8,-1
 1033 1595 l 1,9,-1
 1637 1595 l 1,10,-1
 1282 728 l 1,11,-1
 1524 728 l 1,12,-1
 1524 585 l 1,13,-1
 1223 585 l 1,14,-1
 1168 449 l 1,15,-1
 1168 442 l 1,16,-1
 1524 442 l 1,17,-1
 1524 299 l 1,18,-1
 1168 299 l 1,19,-1
 1168 0 l 1,20,-1
 494 0 l 1,21,-1
 494 299 l 1,22,-1
 143 299 l 1,23,-1
 143 442 l 1,24,-1
 494 442 l 1,0,-1
EndSplineSet
EndChar

StartChar: brokenbar
Encoding: 166 166 179
Width: 864
Flags: W
HStem: -255 911<94 770> 797 911<94 770>
VStem: 94 676<-255 656 797 1708>
LayerCount: 2
Fore
SplineSet
770 656 m 1,0,-1
 770 -255 l 1,1,-1
 94 -255 l 1,2,-1
 94 656 l 1,3,-1
 770 656 l 1,0,-1
770 1708 m 1,4,-1
 770 797 l 1,5,-1
 94 797 l 1,6,-1
 94 1708 l 1,7,-1
 770 1708 l 1,4,-1
EndSplineSet
EndChar

StartChar: section
Encoding: 167 167 180
Width: 1400
Flags: W
VStem: 63 588<235.195 426 751.625 949.102> 69 604<1238.11 1497.82> 729 604<235.184 492.823>
LayerCount: 2
Fore
SplineSet
69 1331 m 0,0,1
 69 1395 69 1395 76 1452.5 c 128,-1,2
 83 1510 83 1510 106.5 1559 c 128,-1,3
 130 1608 130 1608 173.5 1647.5 c 128,-1,4
 217 1687 217 1687 289.5 1714.5 c 128,-1,5
 362 1742 362 1742 468 1757 c 128,-1,6
 574 1772 574 1772 722 1772 c 0,7,8
 866 1772 866 1772 967.5 1759.5 c 128,-1,9
 1069 1747 1069 1747 1138 1724 c 128,-1,10
 1207 1701 1207 1701 1246.5 1668.5 c 128,-1,11
 1286 1636 1286 1636 1307 1596 c 128,-1,12
 1328 1556 1328 1556 1333.5 1509.5 c 128,-1,13
 1339 1463 1339 1463 1339 1412 c 0,14,15
 1339 1386 1339 1386 1338.5 1360 c 128,-1,16
 1338 1334 1338 1334 1338 1307 c 1,17,-1
 751 1307 l 1,18,-1
 751 1498 l 1,19,-1
 673 1498 l 1,20,-1
 673 1249 l 1,21,22
 682 1240 682 1240 716 1237 c 128,-1,23
 750 1234 750 1234 799.5 1232 c 128,-1,24
 849 1230 849 1230 909 1227.5 c 128,-1,25
 969 1225 969 1225 1030.5 1216 c 128,-1,26
 1092 1207 1092 1207 1149.5 1189.5 c 128,-1,27
 1207 1172 1207 1172 1252 1141.5 c 128,-1,28
 1297 1111 1297 1111 1324 1064 c 128,-1,29
 1351 1017 1351 1017 1351 950 c 0,30,31
 1351 895 1351 895 1335 854.5 c 128,-1,32
 1319 814 1319 814 1295 784.5 c 128,-1,33
 1271 755 1271 755 1242.5 736.5 c 128,-1,34
 1214 718 1214 718 1188.5 707 c 128,-1,35
 1163 696 1163 696 1145.5 691 c 128,-1,36
 1128 686 1128 686 1125 686 c 1,37,38
 1127 685 1127 685 1143.5 679.5 c 128,-1,39
 1160 674 1160 674 1183 661.5 c 128,-1,40
 1206 649 1206 649 1232.5 628 c 128,-1,41
 1259 607 1259 607 1281.5 575.5 c 128,-1,42
 1304 544 1304 544 1318.5 501 c 128,-1,43
 1333 458 1333 458 1333 402 c 0,44,45
 1333 338 1333 338 1326 280.5 c 128,-1,46
 1319 223 1319 223 1295.5 174 c 128,-1,47
 1272 125 1272 125 1228.5 85.5 c 128,-1,48
 1185 46 1185 46 1112.5 18.5 c 128,-1,49
 1040 -9 1040 -9 934 -24 c 128,-1,50
 828 -39 828 -39 680 -39 c 0,51,52
 536 -39 536 -39 434.5 -26.5 c 128,-1,53
 333 -14 333 -14 264 9 c 128,-1,54
 195 32 195 32 155.5 64.5 c 128,-1,55
 116 97 116 97 95 137 c 128,-1,56
 74 177 74 177 68.5 223.5 c 128,-1,57
 63 270 63 270 63 321 c 0,58,59
 63 347 63 347 63.5 373 c 128,-1,60
 64 399 64 399 64 426 c 1,61,-1
 651 426 l 1,62,-1
 651 235 l 1,63,-1
 729 235 l 1,64,-1
 729 484 l 1,65,66
 720 493 720 493 679 493 c 0,67,68
 641 493 641 493 582.5 488.5 c 128,-1,69
 524 484 524 484 457 484 c 0,70,71
 410 484 410 484 361.5 488 c 128,-1,72
 313 492 313 492 268 504 c 128,-1,73
 223 516 223 516 183.5 537 c 128,-1,74
 144 558 144 558 114.5 591 c 128,-1,75
 85 624 85 624 68 671 c 128,-1,76
 51 718 51 718 51 783 c 0,77,78
 51 834 51 834 65.5 873.5 c 128,-1,79
 80 913 80 913 102 942 c 128,-1,80
 124 971 124 971 149.5 990.5 c 128,-1,81
 175 1010 175 1010 198 1022 c 128,-1,82
 221 1034 221 1034 237 1039.5 c 128,-1,83
 253 1045 253 1045 255 1046 c 1,84,85
 253 1047 253 1047 238 1053.5 c 128,-1,86
 223 1060 223 1060 202.5 1074 c 128,-1,87
 182 1088 182 1088 158.5 1109.5 c 128,-1,88
 135 1131 135 1131 115 1162.5 c 128,-1,89
 95 1194 95 1194 82 1235.5 c 128,-1,90
 69 1277 69 1277 69 1331 c 0,0,1
738 750 m 1,91,-1
 738 973 l 1,92,-1
 664 973 l 1,93,-1
 664 750 l 1,94,-1
 738 750 l 1,91,-1
EndSplineSet
EndChar

StartChar: dieresis
Encoding: 168 168 181
Width: 774
Flags: W
HStem: 82 336<-209 270 518 997>
VStem: -209 479<82 418> 518 479<82 418>
LayerCount: 2
Fore
SplineSet
270 418 m 1,0,-1
 270 82 l 1,1,-1
 -209 82 l 1,2,-1
 -209 418 l 1,3,-1
 270 418 l 1,0,-1
997 418 m 1,4,-1
 997 82 l 1,5,-1
 518 82 l 1,6,-1
 518 418 l 1,7,-1
 997 418 l 1,4,-1
EndSplineSet
EndChar

StartChar: copyright
Encoding: 169 169 182
Width: 1910
Flags: W
HStem: -102 171<586.507 1323.49> 215 160<897.473 976.979> 1274 160<897.473 976.979> 1573 176<584.337 1325.66>
VStem: 52 254.5<277.131 1367.31> 481 414<375.133 1273.86> 979 412<375.399 752 915 1273.92> 1603 255<278.814 1365.11>
LayerCount: 2
Fore
SplineSet
955 -102 m 256,0,1
 784 -102 784 -102 654 -81.5 c 128,-1,2
 524 -61 524 -61 428.5 -26.5 c 128,-1,3
 333 8 333 8 268 54 c 128,-1,4
 203 100 203 100 161 152 c 128,-1,5
 119 204 119 204 97 258.5 c 128,-1,6
 75 313 75 313 65 364 c 128,-1,7
 55 415 55 415 53.5 460.5 c 128,-1,8
 52 506 52 506 52 539 c 2,9,-1
 52 1116 l 2,10,11
 52 1160 52 1160 55.5 1224 c 128,-1,12
 59 1288 59 1288 83 1358.5 c 128,-1,13
 107 1429 107 1429 161 1498.5 c 128,-1,14
 215 1568 215 1568 315 1624 c 128,-1,15
 415 1680 415 1680 571 1714.5 c 128,-1,16
 727 1749 727 1749 955 1749 c 256,17,18
 1183 1749 1183 1749 1339 1714.5 c 128,-1,19
 1495 1680 1495 1680 1595 1624 c 128,-1,20
 1695 1568 1695 1568 1749 1498.5 c 128,-1,21
 1803 1429 1803 1429 1827 1358.5 c 128,-1,22
 1851 1288 1851 1288 1854.5 1224 c 128,-1,23
 1858 1160 1858 1160 1858 1116 c 2,24,-1
 1858 539 l 2,25,26
 1858 506 1858 506 1856.5 460.5 c 128,-1,27
 1855 415 1855 415 1845 364 c 128,-1,28
 1835 313 1835 313 1813 258.5 c 128,-1,29
 1791 204 1791 204 1749 152 c 128,-1,30
 1707 100 1707 100 1642 54 c 128,-1,31
 1577 8 1577 8 1481.5 -26.5 c 128,-1,32
 1386 -61 1386 -61 1256 -81.5 c 128,-1,33
 1126 -102 1126 -102 955 -102 c 256,0,1
955 69 m 256,34,35
 1109 69 1109 69 1217 88.5 c 128,-1,36
 1325 108 1325 108 1397 140.5 c 128,-1,37
 1469 173 1469 173 1510 215.5 c 128,-1,38
 1551 258 1551 258 1572 304 c 128,-1,39
 1593 350 1593 350 1598 396 c 128,-1,40
 1603 442 1603 442 1603 482 c 2,41,-1
 1603 1165 l 2,42,43
 1603 1205 1603 1205 1598 1250.5 c 128,-1,44
 1593 1296 1593 1296 1572 1341 c 128,-1,45
 1551 1386 1551 1386 1510 1428 c 128,-1,46
 1469 1470 1469 1470 1397 1502.5 c 128,-1,47
 1325 1535 1325 1535 1217 1554 c 128,-1,48
 1109 1573 1109 1573 955 1573 c 256,49,50
 801 1573 801 1573 693 1554 c 128,-1,51
 585 1535 585 1535 513 1502.5 c 128,-1,52
 441 1470 441 1470 399.5 1428 c 128,-1,53
 358 1386 358 1386 337.5 1341 c 128,-1,54
 317 1296 317 1296 311.5 1250 c 128,-1,55
 306 1204 306 1204 306 1165 c 0,56,57
 306 1151 306 1151 306.5 1138 c 128,-1,58
 307 1125 307 1125 307 1113 c 2,59,-1
 307 534 l 2,60,61
 307 522 307 522 306.5 509 c 128,-1,62
 306 496 306 496 306 482 c 0,63,64
 306 442 306 442 311.5 396 c 128,-1,65
 317 350 317 350 337.5 304 c 128,-1,66
 358 258 358 258 399.5 215.5 c 128,-1,67
 441 173 441 173 513 140.5 c 128,-1,68
 585 108 585 108 693 88.5 c 128,-1,69
 801 69 801 69 955 69 c 256,34,35
895 375 m 1,70,-1
 979 375 l 1,71,-1
 979 752 l 1,72,-1
 1391 752 l 1,73,-1
 1391 485 l 2,74,75
 1391 458 1391 458 1389 427 c 128,-1,76
 1387 396 1387 396 1374 366 c 128,-1,77
 1361 336 1361 336 1333 308.5 c 128,-1,78
 1305 281 1305 281 1253.5 260.5 c 128,-1,79
 1202 240 1202 240 1123 227.5 c 128,-1,80
 1044 215 1044 215 928 215 c 0,81,82
 817 215 817 215 741 227.5 c 128,-1,83
 665 240 665 240 615.5 261 c 128,-1,84
 566 282 566 282 539 309.5 c 128,-1,85
 512 337 512 337 499 367.5 c 128,-1,86
 486 398 486 398 483.5 429 c 128,-1,87
 481 460 481 460 481 489 c 2,88,-1
 481 1159 l 2,89,90
 481 1188 481 1188 483.5 1219.5 c 128,-1,91
 486 1251 486 1251 499 1281.5 c 128,-1,92
 512 1312 512 1312 539 1339.5 c 128,-1,93
 566 1367 566 1367 615.5 1388 c 128,-1,94
 665 1409 665 1409 741 1421.5 c 128,-1,95
 817 1434 817 1434 928 1434 c 0,96,97
 1044 1434 1044 1434 1123 1421.5 c 128,-1,98
 1202 1409 1202 1409 1253.5 1388.5 c 128,-1,99
 1305 1368 1305 1368 1333 1340.5 c 128,-1,100
 1361 1313 1361 1313 1374 1282.5 c 128,-1,101
 1387 1252 1387 1252 1389 1221.5 c 128,-1,102
 1391 1191 1391 1191 1391 1163 c 2,103,-1
 1391 915 l 1,104,-1
 979 915 l 1,105,-1
 979 1274 l 1,106,-1
 895 1274 l 1,107,-1
 895 375 l 1,70,-1
EndSplineSet
EndChar

StartChar: guillemotleft
Encoding: 171 171 184
Width: 1870
Flags: W
HStem: 0 21G<841.971 876 1761.97 1796> 1577 20G<842.653 876 1762.65 1796>
DStem2: 337 797 44 489 0.862121 -0.506703<0 613.147> 1257 797 964 489 0.862121 -0.506703<0 613.147>
LayerCount: 2
Fore
SplineSet
44 1098 m 1,0,-1
 876 1597 l 1,1,-1
 876 1092 l 1,2,-1
 337 797 l 1,3,-1
 876 504 l 1,4,-1
 876 0 l 1,5,-1
 44 489 l 1,6,-1
 44 1098 l 1,0,-1
964 1098 m 1,7,-1
 1796 1597 l 1,8,-1
 1796 1092 l 1,9,-1
 1257 797 l 1,10,-1
 1796 504 l 1,11,-1
 1796 0 l 1,12,-1
 964 489 l 1,13,-1
 964 1098 l 1,7,-1
EndSplineSet
EndChar

StartChar: logicalnot
Encoding: 172 172 185
Width: 1313
Flags: W
HStem: 641 676<53 975>
VStem: 975 244<278 641>
LayerCount: 2
Fore
SplineSet
1219 278 m 1,0,-1
 975 278 l 1,1,-1
 975 641 l 1,2,-1
 53 641 l 1,3,-1
 53 1317 l 1,4,-1
 1219 1317 l 1,5,-1
 1219 278 l 1,0,-1
EndSplineSet
EndChar

StartChar: minus
Encoding: 8722 8722 186
Width: 1011
Flags: W
HStem: 461 436<62 949>
LayerCount: 2
Fore
SplineSet
949 897 m 1,0,-1
 949 461 l 1,1,-1
 62 461 l 1,2,-1
 62 897 l 1,3,-1
 949 897 l 1,0,-1
EndSplineSet
EndChar

StartChar: registered
Encoding: 174 174 187
Width: 1910
Flags: W
HStem: -102 171<586.507 1323.49> 756 159<916 1004> 1274 160<916 1001.34> 1573 176<584.337 1325.66>
VStem: 52 254.5<277.131 1367.31> 502 414<279 756 915 1274> 1004 426<279 755.633> 1004 408<915.373 1273.92> 1603 255<278.814 1365.11>
LayerCount: 2
Fore
SplineSet
955 -102 m 256,0,1
 784 -102 784 -102 654 -81.5 c 128,-1,2
 524 -61 524 -61 428.5 -26.5 c 128,-1,3
 333 8 333 8 268 54 c 128,-1,4
 203 100 203 100 161 152 c 128,-1,5
 119 204 119 204 97 258.5 c 128,-1,6
 75 313 75 313 65 364 c 128,-1,7
 55 415 55 415 53.5 460.5 c 128,-1,8
 52 506 52 506 52 539 c 2,9,-1
 52 1116 l 2,10,11
 52 1160 52 1160 55.5 1224 c 128,-1,12
 59 1288 59 1288 83 1358.5 c 128,-1,13
 107 1429 107 1429 161 1498.5 c 128,-1,14
 215 1568 215 1568 315 1624 c 128,-1,15
 415 1680 415 1680 571 1714.5 c 128,-1,16
 727 1749 727 1749 955 1749 c 256,17,18
 1183 1749 1183 1749 1339 1714.5 c 128,-1,19
 1495 1680 1495 1680 1595 1624 c 128,-1,20
 1695 1568 1695 1568 1749 1498.5 c 128,-1,21
 1803 1429 1803 1429 1827 1358.5 c 128,-1,22
 1851 1288 1851 1288 1854.5 1224 c 128,-1,23
 1858 1160 1858 1160 1858 1116 c 2,24,-1
 1858 539 l 2,25,26
 1858 506 1858 506 1856.5 460.5 c 128,-1,27
 1855 415 1855 415 1845 364 c 128,-1,28
 1835 313 1835 313 1813 258.5 c 128,-1,29
 1791 204 1791 204 1749 152 c 128,-1,30
 1707 100 1707 100 1642 54 c 128,-1,31
 1577 8 1577 8 1481.5 -26.5 c 128,-1,32
 1386 -61 1386 -61 1256 -81.5 c 128,-1,33
 1126 -102 1126 -102 955 -102 c 256,0,1
1004 756 m 1,34,-1
 916 756 l 1,35,-1
 916 279 l 1,36,-1
 502 279 l 1,37,-1
 502 1434 l 1,38,-1
 949 1434 l 2,39,40
 1065 1434 1065 1434 1144 1421.5 c 128,-1,41
 1223 1409 1223 1409 1274.5 1388.5 c 128,-1,42
 1326 1368 1326 1368 1354 1340.5 c 128,-1,43
 1382 1313 1382 1313 1395 1282.5 c 128,-1,44
 1408 1252 1408 1252 1410 1221.5 c 128,-1,45
 1412 1191 1412 1191 1412 1163 c 2,46,-1
 1412 1010 l 2,47,48
 1412 963 1412 963 1395.5 933 c 128,-1,49
 1379 903 1379 903 1354 884.5 c 128,-1,50
 1329 866 1329 866 1300 856.5 c 128,-1,51
 1271 847 1271 847 1246 842 c 1,52,53
 1274 839 1274 839 1306 829 c 128,-1,54
 1338 819 1338 819 1365 796.5 c 128,-1,55
 1392 774 1392 774 1410 737 c 128,-1,56
 1428 700 1428 700 1428 643 c 2,57,-1
 1430 279 l 1,58,-1
 1004 279 l 1,59,-1
 1004 756 l 1,34,-1
916 915 m 1,60,-1
 1004 915 l 1,61,-1
 1004 1274 l 1,62,-1
 916 1274 l 1,63,-1
 916 915 l 1,60,-1
955 69 m 256,64,65
 1109 69 1109 69 1217 88.5 c 128,-1,66
 1325 108 1325 108 1397 140.5 c 128,-1,67
 1469 173 1469 173 1510 215.5 c 128,-1,68
 1551 258 1551 258 1572 304 c 128,-1,69
 1593 350 1593 350 1598 396 c 128,-1,70
 1603 442 1603 442 1603 482 c 2,71,-1
 1603 1165 l 2,72,73
 1603 1205 1603 1205 1598 1250.5 c 128,-1,74
 1593 1296 1593 1296 1572 1341 c 128,-1,75
 1551 1386 1551 1386 1510 1428 c 128,-1,76
 1469 1470 1469 1470 1397 1502.5 c 128,-1,77
 1325 1535 1325 1535 1217 1554 c 128,-1,78
 1109 1573 1109 1573 955 1573 c 256,79,80
 801 1573 801 1573 693 1554 c 128,-1,81
 585 1535 585 1535 513 1502.5 c 128,-1,82
 441 1470 441 1470 399.5 1428 c 128,-1,83
 358 1386 358 1386 337.5 1341 c 128,-1,84
 317 1296 317 1296 311.5 1250 c 128,-1,85
 306 1204 306 1204 306 1165 c 0,86,87
 306 1151 306 1151 306.5 1138 c 128,-1,88
 307 1125 307 1125 307 1113 c 2,89,-1
 307 534 l 2,90,91
 307 522 307 522 306.5 509 c 128,-1,92
 306 496 306 496 306 482 c 0,93,94
 306 442 306 442 311.5 396 c 128,-1,95
 317 350 317 350 337.5 304 c 128,-1,96
 358 258 358 258 399.5 215.5 c 128,-1,97
 441 173 441 173 513 140.5 c 128,-1,98
 585 108 585 108 693 88.5 c 128,-1,99
 801 69 801 69 955 69 c 256,64,65
EndSplineSet
EndChar

StartChar: macron
Encoding: 175 175 188
Width: 774
Flags: W
HStem: 82 336<-147 940>
LayerCount: 2
Fore
SplineSet
940 418 m 1,0,-1
 940 82 l 1,1,-1
 -147 82 l 1,2,-1
 -147 418 l 1,3,-1
 940 418 l 1,0,-1
EndSplineSet
EndChar

StartChar: degree
Encoding: 176 176 189
Width: 752
Flags: W
HStem: 1030 213<275.774 469.291> 1501 211<275.271 469.797>
VStem: 35 209<1274.77 1470.33> 502 215<1276.28 1468.81>
LayerCount: 2
Fore
SplineSet
35 1370 m 0,0,1
 35 1442 35 1442 61.5 1504 c 128,-1,2
 88 1566 88 1566 134.5 1612.5 c 128,-1,3
 181 1659 181 1659 242.5 1685.5 c 128,-1,4
 304 1712 304 1712 375 1712 c 0,5,6
 447 1712 447 1712 509 1685.5 c 128,-1,7
 571 1659 571 1659 617.5 1612.5 c 128,-1,8
 664 1566 664 1566 690.5 1504 c 128,-1,9
 717 1442 717 1442 717 1370 c 0,10,11
 717 1299 717 1299 690.5 1237.5 c 128,-1,12
 664 1176 664 1176 617.5 1129.5 c 128,-1,13
 571 1083 571 1083 509 1056.5 c 128,-1,14
 447 1030 447 1030 375 1030 c 0,15,16
 304 1030 304 1030 242.5 1056.5 c 128,-1,17
 181 1083 181 1083 134.5 1129.5 c 128,-1,18
 88 1176 88 1176 61.5 1237.5 c 128,-1,19
 35 1299 35 1299 35 1370 c 0,0,1
244 1372 m 0,20,21
 244 1346 244 1346 254 1322.5 c 128,-1,22
 264 1299 264 1299 281.5 1281.5 c 128,-1,23
 299 1264 299 1264 322.5 1253.5 c 128,-1,24
 346 1243 346 1243 373 1243 c 0,25,26
 399 1243 399 1243 422.5 1253.5 c 128,-1,27
 446 1264 446 1264 463.5 1281.5 c 128,-1,28
 481 1299 481 1299 491.5 1322.5 c 128,-1,29
 502 1346 502 1346 502 1372 c 0,30,31
 502 1399 502 1399 491.5 1422.5 c 128,-1,32
 481 1446 481 1446 463.5 1463.5 c 128,-1,33
 446 1481 446 1481 422.5 1491 c 128,-1,34
 399 1501 399 1501 373 1501 c 0,35,36
 346 1501 346 1501 322.5 1491 c 128,-1,37
 299 1481 299 1481 281.5 1463.5 c 128,-1,38
 264 1446 264 1446 254 1422.5 c 128,-1,39
 244 1399 244 1399 244 1372 c 0,20,21
EndSplineSet
EndChar

StartChar: plusminus
Encoding: 177 177 190
Width: 1339
Flags: W
HStem: -1 436<220 1107> 911 483<41 408 932 1298>
VStem: 408 524<503 911 1394 1801>
LayerCount: 2
Fore
SplineSet
408 1394 m 1,0,-1
 408 1801 l 1,1,-1
 932 1801 l 1,2,-1
 932 1394 l 1,3,-1
 1298 1394 l 1,4,-1
 1298 911 l 1,5,-1
 932 911 l 1,6,-1
 932 503 l 1,7,-1
 408 503 l 1,8,-1
 408 911 l 1,9,-1
 41 911 l 1,10,-1
 41 1394 l 1,11,-1
 408 1394 l 1,0,-1
1107 435 m 1,12,-1
 1107 -1 l 1,13,-1
 220 -1 l 1,14,-1
 220 435 l 1,15,-1
 1107 435 l 1,12,-1
EndSplineSet
EndChar

StartChar: uni00B2
Encoding: 178 178 191
Width: 1168
Flags: W
HStem: 0 240<535 1074> 1086 220<535.44 631.603>
VStem: 64 471<240 343.609 851 1085.04> 633 491<810.383 1085.16>
LayerCount: 2
Fore
SplineSet
64 851 m 1,0,1
 64 902 64 902 67 948.5 c 128,-1,2
 70 995 70 995 78.5 1036.5 c 128,-1,3
 87 1078 87 1078 103 1114 c 128,-1,4
 119 1150 119 1150 145 1180 c 0,5,6
 172 1210 172 1210 210.5 1233.5 c 128,-1,7
 249 1257 249 1257 302 1273 c 128,-1,8
 355 1289 355 1289 425 1297.5 c 128,-1,9
 495 1306 495 1306 584 1306 c 0,10,11
 758 1306 758 1306 864.5 1276 c 128,-1,12
 971 1246 971 1246 1028.5 1191 c 128,-1,13
 1086 1136 1086 1136 1105 1059.5 c 128,-1,14
 1124 983 1124 983 1124 890 c 0,15,16
 1124 777 1124 777 1098.5 700.5 c 128,-1,17
 1073 624 1073 624 1032 574 c 128,-1,18
 991 524 991 524 938 494 c 128,-1,19
 885 464 885 464 829.5 444.5 c 128,-1,20
 774 425 774 425 721 410.5 c 128,-1,21
 668 396 668 396 627 375.5 c 128,-1,22
 586 355 586 355 560.5 324 c 128,-1,23
 535 293 535 293 535 240 c 1,24,-1
 1074 240 l 1,25,-1
 1074 0 l 1,26,-1
 64 0 l 1,27,-1
 64 242 l 2,28,29
 64 366 64 366 88.5 454 c 128,-1,30
 113 542 113 542 153 602 c 128,-1,31
 193 662 193 662 244 698.5 c 128,-1,32
 295 735 295 735 348.5 756 c 128,-1,33
 402 777 402 777 453 786.5 c 128,-1,34
 504 796 504 796 544 802 c 128,-1,35
 584 808 584 808 608.5 815 c 128,-1,36
 633 822 633 822 633 838 c 2,37,-1
 633 1086 l 1,38,-1
 535 1086 l 1,39,-1
 535 851 l 1,40,-1
 64 851 l 1,0,1
EndSplineSet
EndChar

StartChar: uni00B3
Encoding: 179 179 192
Width: 1194
Flags: W
HStem: -30 219<525.673 637.388> 566 180<451 640> 1091 217<525.673 637.388>
VStem: 55 470<189.964 491 820 1089.49> 640 490<190.236 565.808 746.186 1090.39>
LayerCount: 2
Fore
SplineSet
55 820 m 1,0,1
 55 900 55 900 61.5 967.5 c 128,-1,2
 68 1035 68 1035 88 1089.5 c 128,-1,3
 108 1144 108 1144 144 1185 c 128,-1,4
 180 1226 180 1226 239.5 1253 c 128,-1,5
 299 1280 299 1280 385 1294 c 128,-1,6
 471 1308 471 1308 590 1308 c 0,7,8
 710 1308 710 1308 797 1293 c 128,-1,9
 884 1278 884 1278 944 1251 c 128,-1,10
 1004 1224 1004 1224 1040.5 1186 c 128,-1,11
 1077 1148 1077 1148 1097 1102 c 128,-1,12
 1117 1056 1117 1056 1123.5 1003 c 128,-1,13
 1130 950 1130 950 1130 894 c 0,14,15
 1130 822 1130 822 1112 776.5 c 128,-1,16
 1094 731 1094 731 1073 704 c 0,17,18
 1047 672 1047 672 1016 656 c 1,19,20
 1047 641 1047 641 1073 610 c 0,21,22
 1094 584 1094 584 1112 537.5 c 128,-1,23
 1130 491 1130 491 1130 418 c 0,24,25
 1130 360 1130 360 1123.5 304 c 128,-1,26
 1117 248 1117 248 1097 198 c 128,-1,27
 1077 148 1077 148 1040.5 106 c 128,-1,28
 1004 64 1004 64 944 34 c 128,-1,29
 884 4 884 4 797 -13 c 128,-1,30
 710 -30 710 -30 590 -30 c 0,31,32
 471 -30 471 -30 385 -15 c 128,-1,33
 299 0 299 0 239.5 30 c 128,-1,34
 180 60 180 60 144 104 c 128,-1,35
 108 148 108 148 88 206 c 128,-1,36
 68 264 68 264 61.5 335.5 c 128,-1,37
 55 407 55 407 55 492 c 1,38,-1
 525 491 l 1,39,-1
 525 189 l 1,40,-1
 640 189 l 1,41,-1
 640 566 l 1,42,-1
 451 566 l 1,43,-1
 451 746 l 1,44,-1
 640 746 l 1,45,-1
 640 1091 l 1,46,-1
 525 1091 l 1,47,-1
 525 820 l 1,48,-1
 55 820 l 1,0,1
EndSplineSet
EndChar

StartChar: acute
Encoding: 180 180 193
Width: 1706
Flags: W
LayerCount: 2
Fore
SplineSet
1520 266 m 1,0,-1
 549 41 l 1,1,-1
 467 246 l 1,2,-1
 1274 809 l 1,3,-1
 1520 266 l 1,0,-1
EndSplineSet
EndChar

StartChar: uni00B5
Encoding: 181 181 194
AltUni2: 0003bc.ffffffff.0
Width: 1490
Flags: W
HStem: 0 21G<873.842 1412> 1280 20G<73 685 804 1412>
VStem: 73 612<-114 -1.54883 231 1300> 804 608<231 1300>
LayerCount: 2
Fore
SplineSet
73 -114 m 1,0,-1
 73 1300 l 1,1,-1
 685 1300 l 1,2,-1
 685 231 l 1,3,-1
 804 231 l 1,4,-1
 804 1300 l 1,5,-1
 1412 1300 l 1,6,-1
 1412 0 l 1,7,-1
 882 0 l 1,8,-1
 851 76 l 1,9,10
 835 56 835 56 814.5 41.5 c 128,-1,11
 794 27 794 27 772 16 c 128,-1,12
 750 5 750 5 726.5 -2.5 c 128,-1,13
 703 -10 703 -10 681 -16 c 1,14,-1
 681 -345 l 1,15,-1
 151 -345 l 1,16,-1
 73 -114 l 1,0,-1
EndSplineSet
EndChar

StartChar: paragraph
Encoding: 182 182 195
Width: 1371
Flags: W
HStem: 0 21G<605 884 999 1277> 1580 20G<639 1277>
VStem: 36 1241<885.025 1355.18> 605 279<0 658> 999 278<0 658>
LayerCount: 2
Fore
SplineSet
605 659 m 1,0,1
 442 659 442 659 332.5 692.5 c 128,-1,2
 223 726 223 726 157 785.5 c 128,-1,3
 91 845 91 845 63.5 927 c 128,-1,4
 36 1009 36 1009 36 1107 c 0,5,6
 36 1180 36 1180 47 1245.5 c 128,-1,7
 58 1311 58 1311 86 1365.5 c 128,-1,8
 114 1420 114 1420 162 1463.5 c 128,-1,9
 210 1507 210 1507 285 1537.5 c 128,-1,10
 360 1568 360 1568 464.5 1584 c 128,-1,11
 569 1600 569 1600 709 1600 c 2,12,-1
 1277 1600 l 1,13,-1
 1277 0 l 1,14,-1
 999 0 l 1,15,-1
 999 658 l 1,16,-1
 884 658 l 1,17,-1
 884 0 l 1,18,-1
 605 0 l 1,19,-1
 605 659 l 1,0,1
EndSplineSet
EndChar

StartChar: periodcentered
Encoding: 183 183 196
Width: 699
Flags: W
HStem: 655 467<80 619>
VStem: 80 539<655 1122>
LayerCount: 2
Fore
SplineSet
619 655 m 1,0,-1
 80 655 l 1,1,-1
 80 1122 l 1,2,-1
 619 1122 l 1,3,-1
 619 655 l 1,0,-1
EndSplineSet
EndChar

StartChar: cedilla
Encoding: 184 184 197
Width: 1456
Flags: W
HStem: -782 676<645 1135.49> -782 180<791.85 867> -288 296<559 869>
VStem: 869 401<-601.394 -288.445>
LayerCount: 2
Fore
SplineSet
559 8 m 1,0,-1
 869 8 l 1,1,-1
 869 -106 l 1,2,3
 966 -106 966 -106 1033.5 -118 c 128,-1,4
 1101 -130 1101 -130 1145.5 -150.5 c 128,-1,5
 1190 -171 1190 -171 1215 -197 c 128,-1,6
 1240 -223 1240 -223 1252.5 -252 c 128,-1,7
 1265 -281 1265 -281 1267.5 -310.5 c 128,-1,8
 1270 -340 1270 -340 1270 -366 c 2,9,-1
 1270 -522 l 2,10,11
 1270 -549 1270 -549 1267 -578.5 c 128,-1,12
 1264 -608 1264 -608 1251 -636.5 c 128,-1,13
 1238 -665 1238 -665 1210.5 -691.5 c 128,-1,14
 1183 -718 1183 -718 1134 -738 c 128,-1,15
 1085 -758 1085 -758 1010 -770 c 128,-1,16
 935 -782 935 -782 828 -782 c 0,17,18
 720 -782 720 -782 645 -770 c 128,-1,19
 570 -758 570 -758 520.5 -738 c 128,-1,20
 471 -718 471 -718 444 -691.5 c 128,-1,21
 417 -665 417 -665 403.5 -636.5 c 128,-1,22
 390 -608 390 -608 387.5 -578.5 c 128,-1,23
 385 -549 385 -549 385 -522 c 2,24,-1
 385 -415 l 1,25,-1
 789 -352 l 1,26,-1
 789 -602 l 1,27,-1
 869 -602 l 1,28,-1
 869 -288 l 1,29,-1
 559 -288 l 1,30,-1
 559 8 l 1,0,-1
EndSplineSet
EndChar

StartChar: uni00B9
Encoding: 185 185 198
Width: 834
Flags: W
HStem: 0 21G<185 726> 1081 195<24 185>
VStem: 185 541<0 1081>
LayerCount: 2
Fore
SplineSet
726 1276 m 1,0,-1
 726 0 l 1,1,-1
 185 0 l 1,2,-1
 185 1081 l 1,3,-1
 24 1081 l 1,4,-1
 24 1276 l 1,5,-1
 726 1276 l 1,0,-1
EndSplineSet
EndChar

StartChar: grave
Encoding: 96 96 205
Width: 1706
Flags: W
LayerCount: 2
Fore
SplineSet
631 809 m 1,0,-1
 1438 246 l 1,1,-1
 1356 41 l 1,2,-1
 385 266 l 1,3,-1
 631 809 l 1,0,-1
EndSplineSet
EndChar

StartChar: caron
Encoding: 711 711 206
Width: 1706
Flags: W
HStem: 82 614<604 825 1008 1219>
LayerCount: 2
Fore
SplineSet
604 82 m 1,0,-1
 315 696 l 1,1,-1
 825 696 l 1,2,-1
 915 377 l 1,3,-1
 1008 696 l 1,4,-1
 1520 696 l 1,5,-1
 1219 82 l 1,6,-1
 604 82 l 1,0,-1
EndSplineSet
EndChar

StartChar: dotlessi
Encoding: 305 305 207
Width: 766
Flags: W
HStem: 0 21G<80 686>
VStem: 80 606<0 1298>
LayerCount: 2
Fore
SplineSet
686 0 m 1,0,-1
 80 0 l 1,1,-1
 80 1298 l 1,2,-1
 686 1298 l 1,3,-1
 686 0 l 1,0,-1
EndSplineSet
EndChar

StartChar: bracketleft
Encoding: 91 91 210
Width: 1103
Flags: W
HStem: -319 242<766 1129> 1578 241<766 1129>
VStem: 92 674<-77 1578>
LayerCount: 2
Fore
SplineSet
92 1819 m 1,0,-1
 1129 1819 l 1,1,-1
 1129 1578 l 1,2,-1
 766 1578 l 1,3,-1
 766 -77 l 1,4,-1
 1129 -77 l 1,5,-1
 1129 -319 l 1,6,-1
 92 -319 l 1,7,-1
 92 1819 l 1,0,-1
EndSplineSet
EndChar

StartChar: ring
Encoding: 730 730 211
Width: 774
Flags: W
HStem: 90 213<293.774 487.291> 561 211<293.271 487.797>
VStem: 53 209<334.766 530.328> 520 215<336.278 528.814>
LayerCount: 2
Fore
SplineSet
53 430 m 0,0,1
 53 502 53 502 79.5 564 c 128,-1,2
 106 626 106 626 152.5 672.5 c 128,-1,3
 199 719 199 719 260.5 745.5 c 128,-1,4
 322 772 322 772 393 772 c 0,5,6
 465 772 465 772 527 745.5 c 128,-1,7
 589 719 589 719 635.5 672.5 c 128,-1,8
 682 626 682 626 708.5 564 c 128,-1,9
 735 502 735 502 735 430 c 0,10,11
 735 359 735 359 708.5 297.5 c 128,-1,12
 682 236 682 236 635.5 189.5 c 128,-1,13
 589 143 589 143 527 116.5 c 128,-1,14
 465 90 465 90 393 90 c 0,15,16
 322 90 322 90 260.5 116.5 c 128,-1,17
 199 143 199 143 152.5 189.5 c 128,-1,18
 106 236 106 236 79.5 297.5 c 128,-1,19
 53 359 53 359 53 430 c 0,0,1
262 432 m 0,20,21
 262 406 262 406 272 382.5 c 128,-1,22
 282 359 282 359 299.5 341.5 c 128,-1,23
 317 324 317 324 340.5 313.5 c 128,-1,24
 364 303 364 303 391 303 c 0,25,26
 417 303 417 303 440.5 313.5 c 128,-1,27
 464 324 464 324 481.5 341.5 c 128,-1,28
 499 359 499 359 509.5 382.5 c 128,-1,29
 520 406 520 406 520 432 c 0,30,31
 520 459 520 459 509.5 482.5 c 128,-1,32
 499 506 499 506 481.5 523.5 c 128,-1,33
 464 541 464 541 440.5 551 c 128,-1,34
 417 561 417 561 391 561 c 0,35,36
 364 561 364 561 340.5 551 c 128,-1,37
 317 541 317 541 299.5 523.5 c 128,-1,38
 282 506 282 506 272 482.5 c 128,-1,39
 262 459 262 459 262 432 c 0,20,21
EndSplineSet
EndChar

StartChar: bracketright
Encoding: 93 93 212
Width: 1102
Flags: W
HStem: -319 242<-27 336> 1578 241<-27 336>
VStem: 336 674<-77 1578>
LayerCount: 2
Fore
SplineSet
1010 -319 m 1,0,-1
 -27 -319 l 1,1,-1
 -27 -77 l 1,2,-1
 336 -77 l 1,3,-1
 336 1578 l 1,4,-1
 -27 1578 l 1,5,-1
 -27 1819 l 1,6,-1
 1010 1819 l 1,7,-1
 1010 -319 l 1,0,-1
EndSplineSet
EndChar

StartChar: asciicircum
Encoding: 94 94 226
Width: 1706
Flags: W
HStem: 61 615<604 825 1008 1219>
LayerCount: 2
Fore
SplineSet
1219 676 m 1,0,-1
 1520 61 l 1,1,-1
 1008 61 l 1,2,-1
 915 381 l 1,3,-1
 825 61 l 1,4,-1
 315 61 l 1,5,-1
 604 676 l 1,6,-1
 1219 676 l 1,0,-1
EndSplineSet
EndChar

StartChar: backslash
Encoding: 92 92 227
Width: 1110
Flags: W
HStem: 0 21G<397.323 1078> 1575 20G<29 707.702>
VStem: 29 674<921 1595> 402 676<0 676>
DStem2: 703 1595 29 1595 0.228869 -0.973457<0 1483.77>
LayerCount: 2
Fore
SplineSet
703 1595 m 1,0,-1
 1078 0 l 1,1,-1
 402 0 l 1,2,-1
 29 1595 l 1,3,-1
 703 1595 l 1,0,-1
EndSplineSet
EndChar

StartChar: question
Encoding: 63 63 245
Width: 1435
Flags: W
HStem: 0 397<271 916> 1364 268<658.167 771.849>
VStem: 271 645<0 397 462 616.822> 769 626<1027.06 1362.53>
LayerCount: 2
Fore
SplineSet
269 462 m 1,0,1
 269 573 269 573 291 653.5 c 128,-1,2
 313 734 313 734 348 792 c 128,-1,3
 383 850 383 850 428 887.5 c 128,-1,4
 473 925 473 925 520 949.5 c 128,-1,5
 567 974 567 974 611.5 988.5 c 128,-1,6
 656 1003 656 1003 691 1014 c 128,-1,7
 726 1025 726 1025 747.5 1036.5 c 128,-1,8
 769 1048 769 1048 769 1066 c 2,9,-1
 773 1364 l 1,10,-1
 656 1364 l 1,11,-1
 656 1070 l 1,12,-1
 38 1070 l 1,13,-1
 38 1247 l 2,14,15
 38 1287 38 1287 41.5 1331 c 128,-1,16
 45 1375 45 1375 64 1418 c 128,-1,17
 83 1461 83 1461 123 1499.5 c 128,-1,18
 163 1538 163 1538 235.5 1567.5 c 128,-1,19
 308 1597 308 1597 419.5 1614.5 c 128,-1,20
 531 1632 531 1632 693 1632 c 0,21,22
 847 1632 847 1632 959 1620 c 128,-1,23
 1071 1608 1071 1608 1149 1581 c 128,-1,24
 1227 1554 1227 1554 1275.5 1510.5 c 128,-1,25
 1324 1467 1324 1467 1350.5 1404 c 128,-1,26
 1377 1341 1377 1341 1386 1256.5 c 128,-1,27
 1395 1172 1395 1172 1395 1064 c 0,28,29
 1395 977 1395 977 1374.5 913.5 c 128,-1,30
 1354 850 1354 850 1320 804.5 c 128,-1,31
 1286 759 1286 759 1243.5 729 c 128,-1,32
 1201 699 1201 699 1156 680 c 0,33,34
 1111 660 1111 660 1068 648 c 128,-1,35
 1025 636 1025 636 991 626.5 c 128,-1,36
 957 617 957 617 936.5 607.5 c 128,-1,37
 916 598 916 598 916 583 c 2,38,-1
 916 462 l 1,39,-1
 269 462 l 1,0,1
271 397 m 1,40,-1
 916 397 l 1,41,-1
 916 0 l 1,42,-1
 271 0 l 1,43,-1
 271 397 l 1,40,-1
EndSplineSet
EndChar

StartChar: Euro
Encoding: 8364 8364 246
Width: 1623
Flags: W
HStem: -39 218<835.625 944.833> 553 173<40 208 833 1187> 814 176<40 208 833 1187> 1314 268<835.625 944.833>
VStem: 208 625<189.013 553 726 814 990 1312.53> 947 618<179.033 473 1070 1313.86>
LayerCount: 2
Fore
SplineSet
208 814 m 1,0,-1
 40 814 l 1,1,-1
 40 990 l 1,2,-1
 208 990 l 1,3,-1
 208 1014 l 2,4,5
 208 1122 208 1122 217 1206.5 c 128,-1,6
 226 1291 226 1291 252.5 1354 c 128,-1,7
 279 1417 279 1417 327.5 1460.5 c 128,-1,8
 376 1504 376 1504 454 1531 c 128,-1,9
 532 1558 532 1558 644 1570 c 128,-1,10
 756 1582 756 1582 910 1582 c 0,11,12
 1072 1582 1072 1582 1183.5 1564.5 c 128,-1,13
 1295 1547 1295 1547 1367.5 1517.5 c 128,-1,14
 1440 1488 1440 1488 1480 1449.5 c 128,-1,15
 1520 1411 1520 1411 1539 1368 c 128,-1,16
 1558 1325 1558 1325 1561.5 1281 c 128,-1,17
 1565 1237 1565 1237 1565 1197 c 2,18,-1
 1565 1070 l 1,19,-1
 947 1070 l 1,20,-1
 947 1314 l 1,21,-1
 833 1314 l 1,22,-1
 833 990 l 1,23,-1
 1187 990 l 1,24,-1
 1187 814 l 1,25,-1
 833 814 l 1,26,-1
 833 726 l 1,27,-1
 1187 726 l 1,28,-1
 1187 553 l 1,29,-1
 833 553 l 1,30,-1
 833 179 l 1,31,-1
 947 179 l 1,32,-1
 947 473 l 1,33,-1
 1565 473 l 1,34,-1
 1565 346 l 2,35,36
 1565 306 1565 306 1561.5 262 c 128,-1,37
 1558 218 1558 218 1539 175 c 128,-1,38
 1520 132 1520 132 1480 93.5 c 128,-1,39
 1440 55 1440 55 1367.5 25.5 c 128,-1,40
 1295 -4 1295 -4 1183.5 -21.5 c 128,-1,41
 1072 -39 1072 -39 910 -39 c 0,42,43
 756 -39 756 -39 644 -27 c 128,-1,44
 532 -15 532 -15 454 12 c 128,-1,45
 376 39 376 39 327.5 82.5 c 128,-1,46
 279 126 279 126 252.5 189 c 128,-1,47
 226 252 226 252 217 336.5 c 128,-1,48
 208 421 208 421 208 529 c 2,49,-1
 208 553 l 1,50,-1
 40 553 l 1,51,-1
 40 726 l 1,52,-1
 208 726 l 1,53,-1
 208 814 l 1,0,-1
EndSplineSet
EndChar

StartChar: underscore
Encoding: 95 95 247
Width: 966
Flags: W
HStem: -435 436<10 956>
LayerCount: 2
Fore
SplineSet
956 1 m 1,0,-1
 956 -435 l 1,1,-1
 10 -435 l 1,2,-1
 10 1 l 1,3,-1
 956 1 l 1,0,-1
EndSplineSet
EndChar

StartChar: asciitilde
Encoding: 126 126 248
Width: 1456
Flags: W
HStem: 616 443<390.752 586.273> 806 446<873.005 1060.94>
LayerCount: 2
Fore
SplineSet
976 806 m 0,0,1
 947 806 947 806 921 792 c 128,-1,2
 895 778 895 778 866.5 757 c 128,-1,3
 838 736 838 736 804 711 c 128,-1,4
 770 686 770 686 724.5 665 c 128,-1,5
 679 644 679 644 618 630 c 128,-1,6
 557 616 557 616 476 616 c 0,7,8
 371 616 371 616 290.5 642 c 128,-1,9
 210 668 210 668 155 736 c 128,-1,10
 100 804 100 804 72 922.5 c 128,-1,11
 44 1041 44 1041 44 1227 c 1,12,-1
 359 1227 l 1,13,14
 359 1194 359 1194 365 1163.5 c 128,-1,15
 371 1133 371 1133 385.5 1110 c 128,-1,16
 400 1087 400 1087 422.5 1073 c 128,-1,17
 445 1059 445 1059 478 1059 c 0,18,19
 507 1059 507 1059 535 1073.5 c 128,-1,20
 563 1088 563 1088 594 1109 c 128,-1,21
 625 1130 625 1130 661 1155.5 c 128,-1,22
 697 1181 697 1181 742.5 1202 c 128,-1,23
 788 1223 788 1223 845.5 1237.5 c 128,-1,24
 903 1252 903 1252 976 1252 c 0,25,26
 1081 1252 1081 1252 1161.5 1226.5 c 128,-1,27
 1242 1201 1242 1201 1297 1133 c 128,-1,28
 1352 1065 1352 1065 1380 946.5 c 128,-1,29
 1408 828 1408 828 1408 642 c 1,30,-1
 1093 642 l 1,31,32
 1093 670 1093 670 1087 699 c 128,-1,33
 1081 728 1081 728 1067.5 752 c 128,-1,34
 1054 776 1054 776 1031.5 791 c 128,-1,35
 1009 806 1009 806 976 806 c 0,0,1
EndSplineSet
EndChar

StartChar: bar
Encoding: 124 124 249
Width: 862
Flags: W
VStem: 93 676<-100 1795>
LayerCount: 2
Fore
SplineSet
769 1795 m 1,0,-1
 769 -100 l 1,1,-1
 93 -100 l 1,2,-1
 93 1795 l 1,3,-1
 769 1795 l 1,0,-1
EndSplineSet
EndChar

StartChar: braceleft
Encoding: 123 123 250
Width: 1057
Flags: W
HStem: -330 279<912.98 1124> 658 279<12 157.475> 1646 279<912.98 1124>
CounterMasks: 1 e0
LayerCount: 2
Fore
SplineSet
814 1348 m 0,0,1
 799 1241 799 1241 792 1156 c 128,-1,2
 785 1071 785 1071 773 1003.5 c 128,-1,3
 761 936 761 936 737.5 885 c 128,-1,4
 714 834 714 834 666 797 c 1,5,6
 714 760 714 760 737.5 709.5 c 128,-1,7
 761 659 761 659 773 591.5 c 128,-1,8
 785 524 785 524 792 438.5 c 128,-1,9
 799 353 799 353 814 247 c 0,10,11
 830 136 830 136 856 76 c 128,-1,12
 882 16 882 16 920 -12.5 c 128,-1,13
 958 -41 958 -41 1008.5 -46 c 128,-1,14
 1059 -51 1059 -51 1124 -51 c 1,15,-1
 1124 -330 l 1,16,17
 1001 -330 1001 -330 892 -323 c 128,-1,18
 783 -316 783 -316 689.5 -292.5 c 128,-1,19
 596 -269 596 -269 518.5 -223.5 c 128,-1,20
 441 -178 441 -178 380.5 -100.5 c 128,-1,21
 320 -23 320 -23 278 91.5 c 128,-1,22
 236 206 236 206 213 367 c 0,23,24
 203 439 203 439 194 489 c 128,-1,25
 185 539 185 539 175 571 c 128,-1,26
 165 603 165 603 152.5 621 c 128,-1,27
 140 639 140 639 121 647 c 128,-1,28
 102 655 102 655 75.5 656.5 c 128,-1,29
 49 658 49 658 12 658 c 1,30,-1
 12 937 l 1,31,32
 49 937 49 937 75.5 938.5 c 128,-1,33
 102 940 102 940 121 948 c 128,-1,34
 140 956 140 956 152.5 974 c 128,-1,35
 165 992 165 992 175 1024 c 128,-1,36
 185 1056 185 1056 193.5 1106 c 128,-1,37
 202 1156 202 1156 213 1228 c 0,38,39
 236 1389 236 1389 278 1503.5 c 128,-1,40
 320 1618 320 1618 380.5 1695.5 c 128,-1,41
 441 1773 441 1773 518.5 1818.5 c 128,-1,42
 596 1864 596 1864 689.5 1887.5 c 128,-1,43
 783 1911 783 1911 892 1918 c 128,-1,44
 1001 1925 1001 1925 1124 1925 c 1,45,-1
 1124 1646 l 1,46,47
 1059 1646 1059 1646 1008.5 1641 c 128,-1,48
 958 1636 958 1636 920 1607.5 c 128,-1,49
 882 1579 882 1579 856 1519 c 128,-1,50
 830 1459 830 1459 814 1348 c 0,0,1
EndSplineSet
EndChar

StartChar: braceright
Encoding: 125 125 251
Width: 1057
Flags: W
HStem: -330 279<-67 144.02> 656.5 282<897.778 1045> 1646 279<-67 144.02>
CounterMasks: 1 e0
LayerCount: 2
Fore
SplineSet
243 1348 m 0,0,1
 227 1459 227 1459 201 1519 c 128,-1,2
 175 1579 175 1579 137 1607.5 c 128,-1,3
 99 1636 99 1636 48.5 1641 c 128,-1,4
 -2 1646 -2 1646 -67 1646 c 1,5,-1
 -67 1925 l 1,6,7
 56 1925 56 1925 165 1918 c 128,-1,8
 274 1911 274 1911 367.5 1887.5 c 128,-1,9
 461 1864 461 1864 538.5 1818.5 c 128,-1,10
 616 1773 616 1773 676 1695.5 c 128,-1,11
 736 1618 736 1618 778.5 1503.5 c 128,-1,12
 821 1389 821 1389 844 1228 c 0,13,14
 854 1156 854 1156 862.5 1106 c 128,-1,15
 871 1056 871 1056 881 1024 c 128,-1,16
 891 992 891 992 903.5 974 c 128,-1,17
 916 956 916 956 935 948 c 128,-1,18
 954 940 954 940 980.5 938.5 c 128,-1,19
 1007 937 1007 937 1045 937 c 1,20,-1
 1045 658 l 1,21,22
 1007 658 1007 658 980.5 656.5 c 128,-1,23
 954 655 954 655 935 647 c 128,-1,24
 916 639 916 639 903.5 621 c 128,-1,25
 891 603 891 603 881 571 c 128,-1,26
 871 539 871 539 862.5 489 c 128,-1,27
 854 439 854 439 844 367 c 0,28,29
 821 206 821 206 778.5 91.5 c 128,-1,30
 736 -23 736 -23 676 -100.5 c 128,-1,31
 616 -178 616 -178 538.5 -223.5 c 128,-1,32
 461 -269 461 -269 367.5 -292.5 c 128,-1,33
 274 -316 274 -316 165 -323 c 128,-1,34
 56 -330 56 -330 -67 -330 c 1,35,-1
 -67 -51 l 1,36,37
 -2 -51 -2 -51 48.5 -46 c 128,-1,38
 99 -41 99 -41 137 -12.5 c 128,-1,39
 175 16 175 16 201 76 c 128,-1,40
 227 136 227 136 243 247 c 0,41,42
 258 353 258 353 265 438.5 c 128,-1,43
 272 524 272 524 284 591.5 c 128,-1,44
 296 659 296 659 319.5 709.5 c 128,-1,45
 343 760 343 760 391 797 c 1,46,47
 343 834 343 834 319.5 885 c 128,-1,48
 296 936 296 936 284 1003.5 c 128,-1,49
 272 1071 272 1071 265 1156 c 128,-1,50
 258 1241 258 1241 243 1348 c 0,0,1
EndSplineSet
EndChar

StartChar: breve
Encoding: 728 728 252
Width: 1288
Flags: W
HStem: 70 403<506.271 766.962>
VStem: 150 315<517.106 731> 807 315<512.5 731>
LayerCount: 2
Fore
SplineSet
641 70 m 0,0,1
 515 70 515 70 423 103.5 c 128,-1,2
 331 137 331 137 270 214.5 c 128,-1,3
 209 292 209 292 179.5 418.5 c 128,-1,4
 150 545 150 545 150 731 c 1,5,-1
 465 731 l 1,6,7
 465 671 465 671 468.5 623.5 c 128,-1,8
 472 576 472 576 489 542.5 c 128,-1,9
 506 509 506 509 541.5 491 c 128,-1,10
 577 473 577 473 641 473 c 0,11,12
 701 473 701 473 734.5 491 c 128,-1,13
 768 509 768 509 784 542.5 c 128,-1,14
 800 576 800 576 803.5 624 c 128,-1,15
 807 672 807 672 807 731 c 1,16,-1
 1122 731 l 1,17,18
 1122 545 1122 545 1093 418.5 c 128,-1,19
 1064 292 1064 292 1004.5 214.5 c 128,-1,20
 945 137 945 137 854.5 103.5 c 128,-1,21
 764 70 764 70 641 70 c 0,0,1
EndSplineSet
EndChar

StartChar: hungarumlaut
Encoding: 733 733 262
Width: 2571
Flags: W
LayerCount: 2
Fore
SplineSet
1355 957 m 1,0,-1
 1037 30 l 1,1,-1
 822 30 l 1,2,-1
 822 1015 l 1,3,-1
 1355 957 l 1,0,-1
1961 953 m 1,4,-1
 1643 30 l 1,5,-1
 1427 30 l 1,6,-1
 1427 1011 l 1,7,-1
 1961 953 l 1,4,-1
EndSplineSet
EndChar

StartChar: ogonek
Encoding: 731 731 282
Width: 1288
Flags: W
HStem: -737 315<730.957 937> -13 92<745.824 937>
VStem: 276 403<-369.478 -177.877>
LayerCount: 2
Fore
SplineSet
276 -316 m 0,0,1
 276 -253 276 -253 304.5 -203 c 128,-1,2
 333 -153 333 -153 379.5 -113.5 c 128,-1,3
 426 -74 426 -74 485 -44 c 128,-1,4
 544 -14 544 -14 606 7 c 0,5,6
 751 57 751 57 937 79 c 1,7,-1
 937 0 l 1,8,9
 877 0 877 0 829.5 -13 c 128,-1,10
 782 -26 782 -26 748.5 -54.5 c 128,-1,11
 715 -83 715 -83 697 -127.5 c 128,-1,12
 679 -172 679 -172 679 -236 c 0,13,14
 679 -296 679 -296 697 -333 c 128,-1,15
 715 -370 715 -370 748.5 -389.5 c 128,-1,16
 782 -409 782 -409 830 -415.5 c 128,-1,17
 878 -422 878 -422 937 -422 c 1,18,-1
 937 -737 l 1,19,20
 778 -737 778 -737 654.5 -711.5 c 128,-1,21
 531 -686 531 -686 447 -634 c 128,-1,22
 363 -582 363 -582 319.5 -503 c 128,-1,23
 276 -424 276 -424 276 -316 c 0,0,1
EndSplineSet
EndChar

StartChar: dcroat
Encoding: 273 273 295
Width: 1505
Flags: W
HStem: 0 21G<449 523 874.051 1425> 1323 20G<449 536.5> 1462 138<583 1470> 1690 20G<804 1425>
VStem: 63 621<232.062 1067.75> 804 621<231 1069 1225 1710>
LayerCount: 2
Fore
SplineSet
1470 1600 m 1,0,-1
 1470 1462 l 1,1,-1
 583 1462 l 1,2,-1
 583 1600 l 1,3,-1
 1470 1600 l 1,0,-1
1425 1710 m 1,4,-1
 1425 0 l 1,5,-1
 882 0 l 1,6,-1
 851 78 l 1,7,8
 825 46 825 46 782 24 c 128,-1,9
 739 2 739 2 690 -11.5 c 128,-1,10
 641 -25 641 -25 591.5 -31 c 128,-1,11
 542 -37 542 -37 504 -37 c 0,12,13
 394 -37 394 -37 318.5 -17.5 c 128,-1,14
 243 2 243 2 194 35 c 128,-1,15
 145 68 145 68 118.5 110.5 c 128,-1,16
 92 153 92 153 79.5 199 c 128,-1,17
 67 245 67 245 65 291 c 128,-1,18
 63 337 63 337 63 377 c 2,19,-1
 63 930 l 2,20,21
 63 970 63 970 65 1016 c 128,-1,22
 67 1062 67 1062 79.5 1108 c 128,-1,23
 92 1154 92 1154 118.5 1196.5 c 128,-1,24
 145 1239 145 1239 194 1271.5 c 128,-1,25
 243 1304 243 1304 318.5 1323.5 c 128,-1,26
 394 1343 394 1343 504 1343 c 0,27,28
 569 1343 569 1343 617.5 1335 c 128,-1,29
 666 1327 666 1327 702 1312 c 128,-1,30
 738 1297 738 1297 762.5 1275 c 128,-1,31
 787 1253 787 1253 804 1225 c 1,32,-1
 804 1710 l 1,33,-1
 1425 1710 l 1,4,-1
804 1069 m 1,34,-1
 684 1069 l 1,35,-1
 684 231 l 1,36,-1
 804 231 l 1,37,-1
 804 1069 l 1,34,-1
EndSplineSet
EndChar

StartChar: Dcroat
Encoding: 272 272 297
Width: 1680
Flags: W
HStem: 0 233<792 923> 726 142<21 842> 1364 231<792 923>
VStem: 116 676<233 1364> 923 676<233.762 1362.88>
LayerCount: 2
Fore
SplineSet
842 868 m 1,0,-1
 842 726 l 1,1,-1
 21 726 l 1,2,-1
 21 868 l 1,3,-1
 842 868 l 1,0,-1
792 233 m 1,4,-1
 923 233 l 1,5,-1
 923 1364 l 1,6,-1
 792 1364 l 1,7,-1
 792 233 l 1,4,-1
1599 393 m 2,8,9
 1599 353 1599 353 1596 308.5 c 128,-1,10
 1593 264 1593 264 1574.5 220 c 128,-1,11
 1556 176 1556 176 1515.5 136.5 c 128,-1,12
 1475 97 1475 97 1400.5 66.5 c 128,-1,13
 1326 36 1326 36 1211.5 18 c 128,-1,14
 1097 0 1097 0 930 0 c 2,15,-1
 116 0 l 1,16,-1
 116 1595 l 1,17,-1
 930 1595 l 2,18,19
 1097 1595 1097 1595 1211.5 1577 c 128,-1,20
 1326 1559 1326 1559 1400.5 1529 c 128,-1,21
 1475 1499 1475 1499 1515.5 1459.5 c 128,-1,22
 1556 1420 1556 1420 1574.5 1376.5 c 128,-1,23
 1593 1333 1593 1333 1596 1288.5 c 128,-1,24
 1599 1244 1599 1244 1599 1204 c 2,25,-1
 1599 393 l 2,8,9
EndSplineSet
EndChar

StartChar: uni00AD
Encoding: 173 173 298
Width: 1005
Flags: W
HStem: 461 436<59 946>
LayerCount: 2
Fore
SplineSet
946 897 m 1,0,-1
 946 461 l 1,1,-1
 59 461 l 1,2,-1
 59 897 l 1,3,-1
 946 897 l 1,0,-1
EndSplineSet
EndChar

StartChar: uni2074
Encoding: 8308 8308 299
Width: 1210
Flags: W
HStem: 1586 20G<234.773 741>
VStem: 240 501<1105 1606> 636 510<330 524 812 1080>
LayerCount: 2
Fore
SplineSet
1146 330 m 1,0,-1
 636 330 l 1,1,-1
 636 524 l 1,2,-1
 44 524 l 1,3,-1
 44 856 l 1,4,-1
 240 1606 l 1,5,-1
 741 1606 l 1,6,-1
 546 856 l 1,7,-1
 546 812 l 1,8,-1
 636 812 l 1,9,-1
 636 1080 l 1,10,-1
 1146 1080 l 1,11,-1
 1146 330 l 1,0,-1
EndSplineSet
EndChar

StartChar: dotaccent
Encoding: 729 729 304
Width: 699
Flags: W
HStem: 0 467<80 619>
VStem: 80 539<0 467>
LayerCount: 2
Fore
SplineSet
619 0 m 1,0,-1
 80 0 l 1,1,-1
 80 467 l 1,2,-1
 619 467 l 1,3,-1
 619 0 l 1,0,-1
EndSplineSet
EndChar

StartChar: Hbar
Encoding: 294 294 305
Width: 1771
Flags: W
HStem: 0 21G<144 820 951 1627> 688 250<820 951> 1146 236<46 1725> 1575 20G<144 820 951 1627>
VStem: 144 676<0 688 938 1595> 951 676<0 688 938 1595>
LayerCount: 2
Fore
SplineSet
1725 1382 m 1,0,-1
 1725 1146 l 1,1,-1
 46 1146 l 1,2,-1
 46 1382 l 1,3,-1
 1725 1382 l 1,0,-1
1627 1595 m 1,4,-1
 1627 0 l 1,5,-1
 951 0 l 1,6,-1
 951 688 l 1,7,-1
 820 688 l 1,8,-1
 820 0 l 1,9,-1
 144 0 l 1,10,-1
 144 1595 l 1,11,-1
 820 1595 l 1,12,-1
 820 938 l 1,13,-1
 951 938 l 1,14,-1
 951 1595 l 1,15,-1
 1627 1595 l 1,4,-1
EndSplineSet
EndChar

StartChar: hbar
Encoding: 295 295 309
Width: 1519
Flags: W
HStem: 0 21G<80 701 821 1442> 1323 20G<983 1057> 1447 188<-12 1303> 1690 20G<80 701>
VStem: 80 621<0 1069 1225 1710> 821 621<0 1067.75>
LayerCount: 2
Fore
SplineSet
1303 1635 m 1,0,-1
 1303 1447 l 1,1,-1
 -12 1447 l 1,2,-1
 -12 1635 l 1,3,-1
 1303 1635 l 1,0,-1
80 0 m 1,4,-1
 80 1710 l 1,5,-1
 701 1710 l 1,6,-1
 701 1225 l 1,7,8
 720 1257 720 1257 755.5 1279.5 c 128,-1,9
 791 1302 791 1302 833 1316 c 128,-1,10
 875 1330 875 1330 919.5 1336.5 c 128,-1,11
 964 1343 964 1343 1002 1343 c 0,12,13
 1112 1343 1112 1343 1187.5 1323.5 c 128,-1,14
 1263 1304 1263 1304 1312 1271.5 c 128,-1,15
 1361 1239 1361 1239 1387 1196.5 c 128,-1,16
 1413 1154 1413 1154 1425.5 1108 c 128,-1,17
 1438 1062 1438 1062 1440 1016 c 128,-1,18
 1442 970 1442 970 1442 930 c 2,19,-1
 1442 0 l 1,20,-1
 821 0 l 1,21,-1
 821 1069 l 1,22,-1
 701 1069 l 1,23,-1
 701 0 l 1,24,-1
 80 0 l 1,4,-1
EndSplineSet
EndChar

StartChar: jcircumflex
Encoding: 309 309 311
Width: 781
Flags: W
HStem: -318.5 252.5<-220.122 80> -285 219<-221 79.8281> 1280 20G<80 701> 1395 615<99 320 503 714>
VStem: 80 621<-64.8511 1300>
LayerCount: 2
Fore
SplineSet
701 94 m 2,0,1
 701 54 701 54 698.5 7.5 c 128,-1,2
 696 -39 696 -39 682 -85 c 128,-1,3
 668 -131 668 -131 639 -174 c 128,-1,4
 610 -217 610 -217 557 -250 c 128,-1,5
 504 -283 504 -283 422.5 -302.5 c 128,-1,6
 341 -322 341 -322 223 -322 c 0,7,8
 132 -322 132 -322 62 -318.5 c 128,-1,9
 -8 -315 -8 -315 -62 -309.5 c 128,-1,10
 -116 -304 -116 -304 -154.5 -297.5 c 128,-1,11
 -193 -291 -193 -291 -221 -285 c 1,12,-1
 -221 -66 l 1,13,-1
 80 -66 l 1,14,-1
 80 1300 l 1,15,-1
 701 1300 l 1,16,-1
 701 94 l 2,0,1
714 2010 m 1,17,-1
 1015 1395 l 1,18,-1
 503 1395 l 1,19,-1
 410 1715 l 1,20,-1
 320 1395 l 1,21,-1
 -190 1395 l 1,22,-1
 99 2010 l 1,23,-1
 714 2010 l 1,17,-1
EndSplineSet
EndChar

StartChar: kgreenlandic
Encoding: 312 312 323
Width: 1612
Flags: W
HStem: 0 21G<80 701 1013.16 1634> 1279 21G<80 701 974.059 1610>
VStem: 80 621<0 318 858 1299>
LayerCount: 2
Fore
SplineSet
80 0 m 1,0,-1
 80 1299 l 1,1,-1
 701 1299 l 1,2,-1
 701 858 l 1,3,-1
 987 1300 l 1,4,-1
 1610 1300 l 1,5,-1
 1253 790 l 1,6,-1
 1634 0 l 1,7,-1
 1022 0 l 1,8,-1
 821 455 l 1,9,-1
 701 318 l 1,10,-1
 701 0 l 1,11,-1
 80 0 l 1,0,-1
EndSplineSet
EndChar

StartChar: tbar
Encoding: 359 359 333
Width: 1002
Flags: W
HStem: 0 21G<186 807> 597 200<41 960> 1100 200<40 186 807 962> 1575 20G<186 807>
VStem: 186 621<0 1100 1300 1595>
LayerCount: 2
Fore
SplineSet
960 797 m 1,0,-1
 960 597 l 1,1,-1
 41 597 l 1,2,-1
 41 797 l 1,3,-1
 960 797 l 1,0,-1
807 0 m 1,4,-1
 186 0 l 1,5,-1
 186 1100 l 1,6,-1
 40 1100 l 1,7,-1
 40 1300 l 1,8,-1
 186 1300 l 1,9,-1
 186 1595 l 1,10,-1
 807 1595 l 1,11,-1
 807 1300 l 1,12,-1
 962 1300 l 1,13,-1
 962 1100 l 1,14,-1
 807 1100 l 1,15,-1
 807 0 l 1,4,-1
EndSplineSet
EndChar

StartChar: Eng
Encoding: 330 330 334
Width: 1740
Flags: W
HStem: 0 21G<97 570> 1575 20G<97 702.615 1170 1643>
VStem: 97 473<0 711> 1170 473<-381.125 -144 834 1595>
LayerCount: 2
Fore
SplineSet
1173 -144 m 1,0,-1
 570 711 l 1,1,-1
 570 0 l 1,2,-1
 97 0 l 1,3,-1
 97 1595 l 1,4,-1
 690 1595 l 1,5,-1
 1170 834 l 1,6,-1
 1170 1595 l 1,7,-1
 1643 1595 l 1,8,-1
 1643 -245 l 2,9,10
 1643 -375 1643 -375 1597 -473 c 128,-1,11
 1551 -571 1551 -571 1475.5 -637 c 128,-1,12
 1400 -703 1400 -703 1304 -737 c 128,-1,13
 1208 -771 1208 -771 1107.5 -771.5 c 128,-1,14
 1007 -772 1007 -772 911 -740 c 128,-1,15
 815 -708 815 -708 739.5 -642.5 c 128,-1,16
 664 -577 664 -577 618 -477.5 c 128,-1,17
 572 -378 572 -378 572 -245 c 2,18,-1
 572 -125 l 1,19,-1
 1042 -125 l 1,20,-1
 1042 -383 l 1,21,-1
 1173 -383 l 1,22,-1
 1173 -144 l 1,0,-1
EndSplineSet
EndChar

StartChar: eng
Encoding: 331 331 335
Width: 1519
Flags: W
HStem: -458.5 252.5<520.878 821> -425 219<520 820.828> 0 21G<80 701> 1280 20G<80 631.267>
VStem: 80 621<0 1069> 821 621<-204.851 1067.62>
LayerCount: 2
Fore
SplineSet
80 0 m 1,0,-1
 80 1300 l 1,1,-1
 623 1300 l 1,2,-1
 654 1225 l 1,3,4
 679 1255 679 1255 720 1277.5 c 128,-1,5
 761 1300 761 1300 807.5 1314.5 c 128,-1,6
 854 1329 854 1329 902.5 1336 c 128,-1,7
 951 1343 951 1343 992 1343 c 0,8,9
 1102 1343 1102 1343 1178 1323 c 128,-1,10
 1254 1303 1254 1303 1304 1270 c 128,-1,11
 1354 1237 1354 1237 1382 1194 c 128,-1,12
 1410 1151 1410 1151 1423 1105 c 128,-1,13
 1436 1059 1436 1059 1439 1013 c 128,-1,14
 1442 967 1442 967 1442 928 c 2,15,-1
 1442 -46 l 2,16,17
 1442 -86 1442 -86 1439.5 -132.5 c 128,-1,18
 1437 -179 1437 -179 1423 -225 c 128,-1,19
 1409 -271 1409 -271 1380 -314 c 128,-1,20
 1351 -357 1351 -357 1298 -390 c 128,-1,21
 1245 -423 1245 -423 1163.5 -442.5 c 128,-1,22
 1082 -462 1082 -462 964 -462 c 0,23,24
 873 -462 873 -462 803 -458.5 c 128,-1,25
 733 -455 733 -455 679 -449.5 c 128,-1,26
 625 -444 625 -444 586.5 -437.5 c 128,-1,27
 548 -431 548 -431 520 -425 c 1,28,-1
 520 -206 l 1,29,-1
 821 -206 l 1,30,-1
 821 1069 l 1,31,-1
 701 1069 l 1,32,-1
 701 0 l 1,33,-1
 80 0 l 1,0,-1
EndSplineSet
EndChar

StartChar: Euro
Encoding: 65539 -1 347
Width: 1690
Flags: W
HStem: -39 272<816.26 939.694> 441 255<51 883> 868 255<51 883> 1364 268<813.646 941.949>
VStem: 136 676<233.408 1363.53> 943 676<233.408 686 909 1363.53>
LayerCount: 2
Fore
SplineSet
883 696 m 1,0,-1
 883 441 l 1,1,-1
 51 441 l 1,2,-1
 51 696 l 1,3,-1
 883 696 l 1,0,-1
883 1123 m 1,4,-1
 883 868 l 1,5,-1
 51 868 l 1,6,-1
 51 1123 l 1,7,-1
 883 1123 l 1,4,-1
943 1364 m 1,8,-1
 812 1364 l 1,9,-1
 812 233 l 1,10,-1
 943 233 l 1,11,-1
 943 686 l 1,12,-1
 1619 686 l 1,13,-1
 1619 371 l 2,14,15
 1619 331 1619 331 1613.5 285 c 128,-1,16
 1608 239 1608 239 1585 193.5 c 128,-1,17
 1562 148 1562 148 1516 106 c 128,-1,18
 1470 64 1470 64 1388.5 32 c 128,-1,19
 1307 0 1307 0 1184.5 -19.5 c 128,-1,20
 1062 -39 1062 -39 886 -39 c 0,21,22
 709 -39 709 -39 584.5 -19.5 c 128,-1,23
 460 0 460 0 377 32 c 128,-1,24
 294 64 294 64 245.5 106 c 128,-1,25
 197 148 197 148 173 193.5 c 128,-1,26
 149 239 149 239 142.5 285 c 128,-1,27
 136 331 136 331 136 371 c 2,28,-1
 136 1227 l 2,29,30
 136 1267 136 1267 142.5 1312.5 c 128,-1,31
 149 1358 149 1358 173 1403 c 128,-1,32
 197 1448 197 1448 245 1489.5 c 128,-1,33
 293 1531 293 1531 376 1562.5 c 128,-1,34
 459 1594 459 1594 583 1613 c 128,-1,35
 707 1632 707 1632 883 1632 c 256,36,37
 1059 1632 1059 1632 1182.5 1613 c 128,-1,38
 1306 1594 1306 1594 1387.5 1562.5 c 128,-1,39
 1469 1531 1469 1531 1515.5 1489.5 c 128,-1,40
 1562 1448 1562 1448 1585 1403 c 128,-1,41
 1608 1358 1608 1358 1613.5 1312.5 c 128,-1,42
 1619 1267 1619 1267 1619 1227 c 2,43,-1
 1619 909 l 1,44,-1
 943 909 l 1,45,-1
 943 1364 l 1,8,-1
EndSplineSet
EndChar

StartChar: florin
Encoding: 402 402 349
Width: 1204
Flags: W
HStem: -434 257<-135 74> -383 206<-135 74> 998 202<32 226 873 1180> 1377 254<896 1220>
DStem2: 74 -177 716 -17 0.128062 0.991766<20.4935 1184.79 1467.98 1640.35>
LayerCount: 2
Fore
SplineSet
716 -17 m 2,0,1
 701 -131 701 -131 655.5 -210.5 c 128,-1,2
 610 -290 610 -290 541 -339.5 c 128,-1,3
 472 -389 472 -389 383 -411.5 c 128,-1,4
 294 -434 294 -434 192 -434 c 0,5,6
 109 -434 109 -434 20 -420.5 c 128,-1,7
 -69 -407 -69 -407 -161 -383 c 1,8,-1
 -135 -177 l 1,9,-1
 74 -177 l 1,10,-1
 226 998 l 1,11,-1
 6 998 l 1,12,-1
 32 1200 l 1,13,-1
 252 1200 l 1,14,-1
 254 1217 l 2,15,16
 267 1320 267 1320 302.5 1398 c 128,-1,17
 338 1476 338 1476 408 1527.5 c 128,-1,18
 478 1579 478 1579 588 1605 c 128,-1,19
 698 1631 698 1631 862 1631 c 0,20,21
 973 1631 973 1631 1045 1623.5 c 128,-1,22
 1117 1616 1117 1616 1163 1606 c 0,23,24
 1186 1601 1186 1601 1207 1596 c 128,-1,25
 1228 1591 1228 1591 1246 1583 c 1,26,-1
 1220 1377 l 1,27,-1
 896 1377 l 1,28,-1
 873 1200 l 1,29,-1
 1206 1200 l 1,30,-1
 1180 998 l 1,31,-1
 847 998 l 1,32,-1
 716 -17 l 2,0,1
EndSplineSet
EndChar

StartChar: afii00208
Encoding: 8213 8213 350
Width: 1911
Flags: W
HStem: 461 436<59 1852>
LayerCount: 2
Fore
SplineSet
1852 897 m 1,0,-1
 1852 461 l 1,1,-1
 59 461 l 1,2,-1
 59 897 l 1,3,-1
 1852 897 l 1,0,-1
EndSplineSet
EndChar

